<svg xmlns="http://www.w3.org/2000/svg" width="151.05" height="63.14" viewBox="0 0 151.05 63.14">
  <defs>
    <style>
      .a {
        fill: #f9fbfc;
      }
    </style>
  </defs>
  <g>
    <path class="a" d="M13.11,34.07a9.74,9.74,0,0,1-3.48-.56,14.64,14.64,0,0,1-2.53-1.23Q6,31.6,5.23,31a2.59,2.59,0,0,0-1.46-.56,1.78,1.78,0,0,0-.92.26,2.29,2.29,0,0,0-.7.64L0,34.88A15,15,0,0,0,2.6,37a18.58,18.58,0,0,0,3.13,1.62,19.34,19.34,0,0,0,3.48,1,18.6,18.6,0,0,0,3.68.37,15.71,15.71,0,0,0,5.77-1,12.51,12.51,0,0,0,4.27-2.71,11.47,11.47,0,0,0,2.65-4,13.5,13.5,0,0,0,.91-5,10,10,0,0,0-.77-4.14,8.84,8.84,0,0,0-2-2.88,11.5,11.5,0,0,0-2.9-1.95A31.31,31.31,0,0,0,17.44,17q-1.71-.58-3.33-1.1a18.93,18.93,0,0,1-2.9-1.16,6.45,6.45,0,0,1-2-1.57,3.47,3.47,0,0,1-.77-2.3,5.11,5.11,0,0,1,.38-2A4.06,4.06,0,0,1,9.92,7.31a5.58,5.58,0,0,1,1.91-1,8.69,8.69,0,0,1,2.65-.37,9.07,9.07,0,0,1,2.91.42,13.12,13.12,0,0,1,2.15.93q.92.51,1.58.93a2.34,2.34,0,0,0,1.23.42,1.54,1.54,0,0,0,.91-.26A2.51,2.51,0,0,0,24,7.56l1.81-3.44a14.43,14.43,0,0,0-5-3A18.28,18.28,0,0,0,14.41,0,14.72,14.72,0,0,0,8.94.95a12.15,12.15,0,0,0-4,2.52A10.83,10.83,0,0,0,1.6,11.24a11.61,11.61,0,0,0,.77,4.51,9,9,0,0,0,2,3,10.68,10.68,0,0,0,2.9,2,28.47,28.47,0,0,0,3.3,1.3q1.68.54,3.3,1a15.32,15.32,0,0,1,2.9,1.12,6.24,6.24,0,0,1,2,1.64,3.93,3.93,0,0,1,.77,2.52,5.3,5.3,0,0,1-1.71,4.24A7.14,7.14,0,0,1,13.11,34.07Z"/>
    <rect class="a" x="78.75" y="0.43" width="7.31" height="39.16"/>
    <polygon class="a" points="118.83 33.58 103.18 33.58 103.18 0.43 95.89 0.43 95.89 39.59 118.83 39.59 118.83 33.58"/>
    <path class="a" d="M129.53,39.59h7.26V24.43l14.27-24h-6.45a2.24,2.24,0,0,0-1.52.51,3.63,3.63,0,0,0-.89,1.11l-7.12,13.08q-.6,1.16-1.06,2.19t-.81,2.06q-.38-1-.85-2.06t-1.1-2.19L124.11,2.06a3.9,3.9,0,0,0-.93-1.16,2.28,2.28,0,0,0-1.5-.46h-6.42l14.27,24Z"/>
    <path class="a" d="M55.22,39.71a19.62,19.62,0,0,0,4.33-1.19,18.27,18.27,0,0,0,6.25-4.18,18.71,18.71,0,0,0,4-6.35,21.88,21.88,0,0,0,1.42-8,22.91,22.91,0,0,0-.64-5.47,19.69,19.69,0,0,0-1.85-4.82,18.61,18.61,0,0,0-3-4,17.82,17.82,0,0,0-3.94-3.06A19.7,19.7,0,0,0,57,.69,22,22,0,0,0,51.42,0a21.1,21.1,0,0,0-8.1,1.5,18.41,18.41,0,0,0-6.27,4.18A18.77,18.77,0,0,0,33,12a21.68,21.68,0,0,0-1.44,8A21.68,21.68,0,0,0,33,28a18.78,18.78,0,0,0,4,6.35,18.42,18.42,0,0,0,6.27,4.18,19.73,19.73,0,0,0,4.58,1.23V55.83H0v7.31H151.05V55.83H55.22Zm-9-6.86a10.75,10.75,0,0,1-3.9-2.72,12.14,12.14,0,0,1-2.48-4.33A18,18,0,0,1,39,20a18,18,0,0,1,.87-5.78,12.28,12.28,0,0,1,2.48-4.35,10.68,10.68,0,0,1,3.9-2.74,14.51,14.51,0,0,1,10.32,0,10.56,10.56,0,0,1,3.89,2.74,12.4,12.4,0,0,1,2.46,4.35A18,18,0,0,1,63.8,20a18,18,0,0,1-.87,5.78,12.25,12.25,0,0,1-2.46,4.33,10.63,10.63,0,0,1-3.89,2.72,11.61,11.61,0,0,1-1.36.46V20.72H47.91V33.37A11.75,11.75,0,0,1,46.27,32.85Z"/>
  </g>
</svg>
