<svg xmlns="http://www.w3.org/2000/svg" viewBox="0 0 96 121.5">
  <defs>
    <style>
      .a {
        fill: #0d0d0d;
      }

      .b {
        fill: #c50808;
      }

      .c {
        fill: #ececec;
      }
    </style>
  </defs>
  <title>Asset 1</title>
  <g>
    <path class="a" d="M0,76.53q0-38,0-76C0,.1.1,0,.54,0H95.46c.44,0,.54.1.54.54q0,38,0,76a5.41,5.41,0,0,0-.32,2,39.63,39.63,0,0,1-.8,5.09A47.34,47.34,0,0,1,91.4,93.88,48,48,0,0,1,86.52,102a42.84,42.84,0,0,1-3,3.62c-.94,1-1.94,2-3,3a42.9,42.9,0,0,1-3.5,3,51.34,51.34,0,0,1-12.27,6.84,47.54,47.54,0,0,1-12.35,2.88,3.54,3.54,0,0,0-1.58.2H45a.15.15,0,0,0-.17-.12,32.82,32.82,0,0,1-4.42-.48,46.77,46.77,0,0,1-6.5-1.51A47.57,47.57,0,0,1,25,115.62a48.11,48.11,0,0,1-9.49-6.82,48.71,48.71,0,0,1-5.59-6.15A47.6,47.6,0,0,1,3.24,90.8a47,47,0,0,1-3-12.87A2.83,2.83,0,0,0,0,76.53Zm63.47-20c.08,0,.13,0,.14-.11.28-.21.58-.41.85-.63a8.4,8.4,0,0,1,6.07-1.89c2.2.16,4.14,1,4.82,3.89.1.39.31.45.67.45q9.43,0,18.86,0c.56,0,.63-.18.63-.66q0-28.22,0-56.41c0-.49-.08-.65-.63-.65Q48,.5,1.12.48c-.51,0-.64.1-.64.63q0,28.2,0,56.41c0,.59.16.69.71.69,6.44,0,12.89,0,19.34,0h.66a28.61,28.61,0,0,1-2.24-6,1.64,1.64,0,0,0-.18.35,15.33,15.33,0,0,0-.5,2.13c0,.23,0,.62-.31.59s-.23-.4-.27-.63-.05-.56-.06-.83A11.87,11.87,0,0,1,18,49.78c.22-.71.38-1.43.6-2.25a2.6,2.6,0,0,0-.84,1c-.11.16-.17.49-.44.37s-.12-.39-.06-.58a9.67,9.67,0,0,1,2.29-4c.38-.41.75-.84,1.09-1.22a2.82,2.82,0,0,0-1,.44c-.11.07-.26.26-.42.11s0-.37.09-.47c.44-.46.81-1,1.3-1.41A18.85,18.85,0,0,1,24,39.38,4,4,0,0,1,23,35.09a2.37,2.37,0,0,0,.14-.57A3.56,3.56,0,0,1,24.35,32a9,9,0,0,1,2.34-1.59c.9-.44,1.82-.85,2.72-1.3a3.11,3.11,0,0,0,1.7-2.77l-.47.26a3.67,3.67,0,0,1-3.88-.06c-.15-.08-.44-.11-.37-.37s.32-.18.49-.22a4.54,4.54,0,0,0,2-.81,5.28,5.28,0,0,1-2.54-2.79c-.08-.21-.25-.48,0-.65s.39.12.57.23A11,11,0,0,0,30,23.41a5.79,5.79,0,0,0-2.71-4.6c-.12-.07-.35,0-.29-.29s.2-.19.36-.2a3.73,3.73,0,0,1,3.56,1.44c.45.6.8.52,1.28.16a11.56,11.56,0,0,1-.73-1.14c-.8-1.56-.61-3.38,1.07-4.18.24-.11.53-.38.78-.15s-.06.47-.13.7a2.31,2.31,0,0,0-.06,1.77c.18.38.35.41.57,0A4.06,4.06,0,0,1,35,15.47a5.58,5.58,0,0,1,4-.63c.17,0,.4,0,.44.19s-.2.3-.37.38a12.19,12.19,0,0,0-2.26,1.33.38.38,0,0,0-.2.39c.05.25.25.09.38.1a2.17,2.17,0,0,0,1-.18,10.16,10.16,0,0,1,2.78-.95,6.82,6.82,0,0,1,4.38.75c.13.08.26.13.22.29s-.18.18-.33.19a11,11,0,0,0-2.48.47A2.37,2.37,0,0,0,41,18.94c-.17.32-.1.44.25.42s.7,0,1.06-.05A17.48,17.48,0,0,1,46.42,19a4.75,4.75,0,0,1,3.2,1.75c.08.1.22.19.14.35s-.26.15-.41.12a9.87,9.87,0,0,0-2-.08,5.61,5.61,0,0,0-2.38.52s0,.07.05.07l.6.25a6.48,6.48,0,0,1,3.89,3.74c.07.17.21.39,0,.56s-.36,0-.53-.11a7.3,7.3,0,0,0-3.08-.7c-.21,0-.5,0-.41.32.2.74.3,1.51.57,2.24a4,4,0,0,1,.25,2.61c0,.14-.07.28-.22.32s-.24-.12-.31-.23a2,2,0,0,0-.93-1,12.25,12.25,0,0,1-1.69-1s-.1-.09-.12-.08,0,.12,0,.19c.3,1.13.6,2.26.83,3.41a52.61,52.61,0,0,1,.71,6.12c0,.13,0,.3-.14.35s-.27-.07-.34-.24-.28-.54-.42-.81c-.2.11-.2.24-.15.45a20.75,20.75,0,0,1,.52,4.91c0,.29-.07.58-.1.88a.25.25,0,0,1-.19.25c-.17,0-.15-.15-.2-.24a6.88,6.88,0,0,0-1.09-1.62,17.73,17.73,0,0,0-.07,2.6,2.51,2.51,0,0,0,1,2.1L48,50.43A25.88,25.88,0,0,1,51,53a11.86,11.86,0,0,0,2.32,2,.69.69,0,0,0-.05-.6A33.28,33.28,0,0,1,52.15,48,24.28,24.28,0,0,1,52,44.32a43,43,0,0,1,1.16-9.92A18,18,0,0,1,57.46,26c4.29-4.28,9.43-6.45,15.57-5.78a8.87,8.87,0,0,1,6.64,4.08,14,14,0,0,1,1.86,4.39c0,.18.16.4-.08.52a.48.48,0,0,1-.53-.15,9.66,9.66,0,0,0-1.19-1,14,14,0,0,0-10.44-2.27c-4.93.89-8.18,4.12-10.58,8.25a19.47,19.47,0,0,0-2,5.26,39.21,39.21,0,0,0-1.26,8.41c0,.23-.09.49.12.74a34.72,34.72,0,0,1,2.45-8.8,20.54,20.54,0,0,1,7.21-8.91,12.67,12.67,0,0,1,9.5-2.41,8.76,8.76,0,0,1,5.14,2.35c2.38,2.47,2.57,6.33,1.31,9.27-.06.14-.1.3-.3.31s-.2-.2-.25-.33C78.75,35,74.2,32.68,69.47,34.21a13,13,0,0,0-6.13,4.53,25.07,25.07,0,0,0-5.08,13,1.42,1.42,0,0,0,.36-.74A36.7,36.7,0,0,1,62,43.69c3-4.81,7.57-7,12.87-6.19a6.71,6.71,0,0,1,5,9.67c-.06.15-.13.29-.31.3s-.23-.18-.3-.31a9.69,9.69,0,0,0-1.65-2.37,6.39,6.39,0,0,0-6.46-1.95,11,11,0,0,0-5.46,3.59A24,24,0,0,0,61,54c.29,0,.33-.22.43-.36.43-.57.83-1.16,1.26-1.72a13.16,13.16,0,0,1,9-5.55c3.25-.42,6.13.7,6.8,4.51a4.69,4.69,0,0,1-1,3.92c-.23.29-.46.43-.63-.08a6.23,6.23,0,0,0-1.33-2.28,5.31,5.31,0,0,0-6.19-1,15.41,15.41,0,0,0-5.78,4.88s-.13.1,0,.19h-.09v.08ZM27.1,22.63l-.11,0,0,.11a3.84,3.84,0,0,0,2.23,2c.41.16.55-.22.72-.46a.28.28,0,0,0-.19-.45A17.46,17.46,0,0,1,27.1,22.63ZM64.36,60.09A8.45,8.45,0,0,1,67.29,59c1.51-.19,3-.16,4.11,1.07a6.75,6.75,0,0,1,.87,6.23c-.09.18-.15.46-.42.43s-.24-.3-.28-.48a5.25,5.25,0,0,0-1.47-2.65,3.7,3.7,0,0,0-5.08,0s-.12,0,0,.08l0-.07a2.16,2.16,0,0,0,.76-.07,4.43,4.43,0,0,1,4.38,1.78,4,4,0,0,1,.4,4.35c-.09.2-.12.52-.44.47s-.21-.34-.24-.55a3.07,3.07,0,0,0-2.14-2.72,1.88,1.88,0,0,0-1.8.26,4.58,4.58,0,0,0,.56.15,3.26,3.26,0,0,1,2.31,1.1,3.63,3.63,0,0,1,.4,3.23c-.07.14-.14.3-.32.31s-.23-.2-.3-.33-.16-.44-.28-.64c-.53-.91-1.13-1.25-1.89-1.11a3.87,3.87,0,0,0,.95,1.24c1.49,1.53,2.93,3.11,4.56,4.49.15.13.42.25.29.51s-.37.21-.58.21H69.81a10.8,10.8,0,0,1,2.57,3c.09.16.25.36,0,.52s-.34,0-.48-.13a14.31,14.31,0,0,0-2.1-1.33c-.17-.08-.34-.26-.63-.12a12,12,0,0,1,1.72,2.22c.08.15.24.32.09.48s-.37,0-.53-.07a18.14,18.14,0,0,0-2.58-1.45A3.06,3.06,0,0,0,66.69,79c0,.27.22.35.35.48a7.42,7.42,0,0,1,1.42,1.74c.07.13.19.28,0,.43s-.29,0-.43,0c-.46-.26-.91-.53-1.38-.78a26.25,26.25,0,0,0-2.8-1.35c.4.64.72,1.13,1,1.64.1.18.38.39.14.62s-.45,0-.63-.14c-.71-.44-1.39-.92-2.1-1.36-.23-.14-.45-.37-.79-.27.14.41.5.64.68,1,.08.17.32.31.16.51s-.43.15-.65.06a15.85,15.85,0,0,1-3.92-2.13c-.3-.23-.39-.14-.44.18a3,3,0,0,1-1,1.87c-.24.2-.23.35-.11.6.53,1.08,1.07,2.16,1.55,3.26a1.48,1.48,0,0,0,1.18.92,8.62,8.62,0,0,0,4.79-.48c.66-.27,1.31-.57,2-.86l.09.16A12.35,12.35,0,0,1,59.35,89c.2.39.4.74.57,1.12a7.12,7.12,0,0,0,.86,1.55,2.85,2.85,0,0,0,3.14,1,1.68,1.68,0,0,1,1.81.69A2.47,2.47,0,0,1,66,95.74c-.13-.23-.24-.46-.38-.67-.32-.48-.63-.52-1.09-.18a1.23,1.23,0,0,1-1.92-.1,2.52,2.52,0,0,0-1-.67c-.32-.08-.64-.15-.9.2a20,20,0,0,0-3.21,5,1.85,1.85,0,0,1-1.81,1.29c-.95,0-1,0-1.32,1a2.43,2.43,0,0,1-.36,1.07c-.06-.14-.1-.21-.12-.28a3.7,3.7,0,0,1,1.51-4.51,3.77,3.77,0,0,0,1.43-1.56c-1.48.73-3.09,1.12-4.21,2.41a1.54,1.54,0,0,1-1.91.28,1.17,1.17,0,0,0-1.66.41c-.16.19-.25.48-.55.57A2.92,2.92,0,0,1,51,96.48a20.1,20.1,0,0,0,4.8-1.9,7.78,7.78,0,0,0-2.36,0c-1.16.37-1.22.33-2-.68a.67.67,0,0,0-1-.23c-.29.18-.56.37-.84.56-.1.06-.21.16-.32.07s0-.19,0-.27c.56-1.78,2-2.82,3.82-1.86a7.51,7.51,0,0,0,4,.65c.79,0,.89-.28.55-1C57,90.35,56.16,89,55.33,87.55s-1.73-3-2.59-4.42c-.11-.18-.18-.4-.43-.45A3.54,3.54,0,0,1,50.7,81.6,58.6,58.6,0,0,1,46,76.13a1.11,1.11,0,0,0-.82-.47,17.27,17.27,0,0,1-2-.43c-.44-.12-.61-.12-.7.44-.3,1.9-.92,3-3,2.75-.35,0-.43.18-.55.41-.61,1.28-1.28,2.53-2,3.76S36,84,37.32,85.06A10.72,10.72,0,0,0,41.74,87c.18,0,.39,0,.53.29a8.18,8.18,0,0,1-2.67.53A9.16,9.16,0,0,1,35,86.63c-.36-.19-.55-.15-.76.19-.41.68-.88,1.32-1.26,2a1.51,1.51,0,0,0,.61,2.35A2.78,2.78,0,0,1,35,93.24a2.46,2.46,0,0,1-1.21,2.67c-.12,0-.26.15-.38,0s0-.25.07-.36a2.61,2.61,0,0,0,.35-.94c0-.16.08-.39-.18-.42-.74-.1-1-.65-1.18-1.25a1.89,1.89,0,0,0-2.74-1.1,18.2,18.2,0,0,1-4.12,1.46,1.25,1.25,0,0,0-.88.53,1.72,1.72,0,0,1-2.56.72,1.46,1.46,0,0,0-2,.34c-.13.12-.21.34-.45.32a.28.28,0,0,1,0-.29,3.62,3.62,0,0,1,3.18-2.76,2.66,2.66,0,0,0,1.61-.51,1.77,1.77,0,0,0-1.68-.25c-1.39.42-1.73-.25-1.93-1.1-.11-.48-.41-.49-.7-.49A8.19,8.19,0,0,0,19,90c-.12,0-.25.22-.36,0s0-.27.13-.37a4,4,0,0,1,1.74-1,5.73,5.73,0,0,1,3.25.35,5.29,5.29,0,0,0,1.87.28,3.2,3.2,0,0,0-.88-.52c-.55-.29-1.15-.62-1.24-1.27s-.46-.62-.91-.59a8,8,0,0,1-1.26.23,1.23,1.23,0,0,1,.5-.61,2.47,2.47,0,0,1,3.6.09c.83.87,1.86,1.52,2.7,2.39a.74.74,0,0,0,1.11.05,5.35,5.35,0,0,0,.86-1A37.1,37.1,0,0,0,32.07,85a38.62,38.62,0,0,0,3.4-7.6c.07-.23.22-.44-.07-.68A4.17,4.17,0,0,1,34.27,75a15,15,0,0,1-.88-3.86.91.91,0,0,0-.48-.73A39.26,39.26,0,0,1,28,66.73a31,31,0,0,1-6.22-7.57.83.83,0,0,0-.85-.48q-9.9,0-19.81,0c-.5,0-.63.14-.62.63,0,4.51,0,9,0,13.53a51,51,0,0,0,.59,8.09A47.48,47.48,0,0,0,6.21,96.07,49.34,49.34,0,0,0,14,106.65a49,49,0,0,0,4.43,4,44.59,44.59,0,0,0,7.09,4.72,46.6,46.6,0,0,0,12.17,4.57,45.12,45.12,0,0,0,8,1.08,52,52,0,0,0,5.44-.06,48.25,48.25,0,0,0,6-.77,45.57,45.57,0,0,0,10.61-3.45A47.55,47.55,0,0,0,94.5,83a48.29,48.29,0,0,0,1-8.79c.09-5,0-10,0-14.95,0-.4-.1-.54-.52-.54q-9.47,0-18.93,0c-.42,0-.52.16-.54.55a6.07,6.07,0,0,1-1,3c-.11.16-.18.4-.43.34s-.18-.27-.21-.44a7,7,0,0,0-1.27-2.91,1.22,1.22,0,0,0-1.09-.54c-1.56,0-3.13.08-4.69,0A2.82,2.82,0,0,0,64.28,60l-.16.11C64.21,60.18,64.28,60.15,64.36,60.09ZM48.88,25.55a1.07,1.07,0,0,0-.27-.71,6.53,6.53,0,0,0-3.9-2.71c-.2-.05-.52,0-.52-.3a.65.65,0,0,1,.45-.56,8.31,8.31,0,0,1,1.75-.5c.81-.14,1.62-.06,2.56-.13a4.86,4.86,0,0,0-3.89-1.24,32.48,32.48,0,0,1-3.94.41c-.63,0-.77-.18-.6-.8A2.38,2.38,0,0,1,42,17.55a10.21,10.21,0,0,1,2.28-.64l-.51-.18a6.53,6.53,0,0,0-4.62.36,7.41,7.41,0,0,1-2.83.8c-.53,0-.65-.19-.41-.65A3.56,3.56,0,0,1,37.14,16l1.19-.75a4.17,4.17,0,0,0-4.27,2c-.39.75-.7.77-1.23.09a1.61,1.61,0,0,1-.32-.76,5.18,5.18,0,0,1,.11-1.43,2.16,2.16,0,0,0-1.17,1.79,3.61,3.61,0,0,0,1.15,2.74.37.37,0,0,0,.37.13A5.91,5.91,0,0,1,37.37,21a14,14,0,0,1,5.09,6.3,2.35,2.35,0,0,0,.41.63C43.76,28.83,45,29.17,46,30a2.94,2.94,0,0,0-.15-1.52,16.43,16.43,0,0,1-.77-2.85c-.06-.42.05-.6.52-.62A9.39,9.39,0,0,1,48.88,25.55ZM23.76,33.92l2.08-1.42c.14-.09.28-.32.44-.13s-.05.33-.18.43c-.51.37-1,.73-1.55,1.09-1.86,1.29-1.65,3.4-.66,4.87a.62.62,0,0,0,.89.23,13.13,13.13,0,0,1,1.66-.61,7.4,7.4,0,0,0,3.16-2,8.83,8.83,0,0,0,2.34-5.56,8,8,0,0,0-.43-3.77,2.31,2.31,0,0,0-.16.3A3.51,3.51,0,0,1,29.3,29.6c-.88.39-1.76.81-2.62,1.25a6.74,6.74,0,0,0-2.57,2A1.26,1.26,0,0,0,23.76,33.92Zm5.32,18.42c0,.13,0,.27,0,.41a2,2,0,0,0,.05.35,9.21,9.21,0,0,0,2.65,4.72,53.78,53.78,0,0,0,8.38,7.11,60.64,60.64,0,0,0,18.74,8.91c2.68.79,5.4,1.47,8.15,2,.24.05.56.22.62-.16s-.28-.31-.51-.36a88.71,88.71,0,0,1-16.24-4.94A61.28,61.28,0,0,1,37,61.84a36.18,36.18,0,0,1-4.74-4.35,10.51,10.51,0,0,1-2.4-3.85,4.14,4.14,0,0,1,2.75-5.32A5.17,5.17,0,0,1,34,48.1c.21,0,.42-.05.42-.31s-.25-.3-.43-.31a5.58,5.58,0,0,0-.57.08A4.56,4.56,0,0,0,29.08,52.34ZM67.2,72.88c.14,0,.4.1.43-.22s-.21-.29-.4-.32L65.5,72a54.52,54.52,0,0,1-14.42-4.92c-.24-.12-.58-.54-.8-.13s.33.5.58.62a52.42,52.42,0,0,0,9.78,3.84A52.76,52.76,0,0,0,67.2,72.88ZM65,69.63c.21,0,.37,0,.4-.25s-.14-.27-.33-.33A57.44,57.44,0,0,1,57,66.2c-.74-.34-1.46-.69-2.19-1-.17-.08-.38-.21-.51,0s.09.37.28.47l.16.08a52,52,0,0,0,8.44,3.33ZM33.86,22.42a1.45,1.45,0,1,0,0,2.89,1.44,1.44,0,0,0,1.44-1.42A1.45,1.45,0,0,0,33.86,22.42Zm-3.28,1.93a8.43,8.43,0,0,1-1.43,1.21,13.29,13.29,0,0,1-1.72.74,3.17,3.17,0,0,0,3.45-.39.39.39,0,0,0,.1-.43C30.86,25.12,30.72,24.76,30.58,24.35ZM28,18.76a7,7,0,0,1,2.43,4.18,10.26,10.26,0,0,1,.41-2.3.28.28,0,0,0-.07-.32A3.52,3.52,0,0,0,28,18.76ZM66.94,58.08a.44.44,0,0,1,0,.09h4.23A5.3,5.3,0,0,0,66.94,58.08ZM18.54,47.51l0,.07s0,0,0,0a.19.19,0,0,0,0-.08ZM23.71,34l0,0s0,0,0,0l0,0ZM69.17,78.14s0,0,0,0,0,0,0,0,0,0,0,0ZM66.51,79l0,0s0,0,0,0l0,0Z"/>
    <path class="b" d="M65,63.6a3.7,3.7,0,0,1,5.08,0,5.25,5.25,0,0,1,1.47,2.65c0,.18.05.45.28.48s.33-.25.42-.43a6.75,6.75,0,0,0-.87-6.23c-1.13-1.23-2.6-1.26-4.11-1.07a8.45,8.45,0,0,0-2.93,1.06L64.28,60a2.82,2.82,0,0,1,2.58-1.33c1.56.1,3.13,0,4.69,0a1.22,1.22,0,0,1,1.09.54,7,7,0,0,1,1.27,2.91c0,.17,0,.4.21.44s.32-.18.43-.34a6.07,6.07,0,0,0,1-3c0-.39.12-.55.54-.55q9.47,0,18.93,0c.42,0,.52.14.52.54,0,5,0,10,0,14.95a48.29,48.29,0,0,1-1,8.79,48,48,0,0,1-26.81,33.73,45.57,45.57,0,0,1-10.61,3.45,48.25,48.25,0,0,1-6,.77,52,52,0,0,1-5.44.06,45.12,45.12,0,0,1-8-1.08,46.6,46.6,0,0,1-12.17-4.57,44.59,44.59,0,0,1-7.09-4.72,49,49,0,0,1-4.43-4A49.34,49.34,0,0,1,6.21,96.07,47.48,47.48,0,0,1,1.07,80.93a51,51,0,0,1-.59-8.09c0-4.51,0-9,0-13.53,0-.49.12-.63.62-.63q9.9,0,19.81,0a.83.83,0,0,1,.85.48A31,31,0,0,0,28,66.73a39.26,39.26,0,0,0,4.93,3.65.91.91,0,0,1,.48.73A15,15,0,0,0,34.27,75a4.17,4.17,0,0,0,1.13,1.72c.29.24.14.45.07.68a38.62,38.62,0,0,1-3.4,7.6,37.1,37.1,0,0,1-1.92,3.2,5.35,5.35,0,0,1-.86,1,.74.74,0,0,1-1.11-.05c-.84-.87-1.87-1.52-2.7-2.39a2.47,2.47,0,0,0-3.6-.09,1.23,1.23,0,0,0-.5.61A8,8,0,0,0,22.64,87c.45,0,.82-.08.91.59s.69,1,1.24,1.27a3.2,3.2,0,0,1,.88.52,5.29,5.29,0,0,1-1.87-.28,5.73,5.73,0,0,0-3.25-.35,4,4,0,0,0-1.74,1c-.11.1-.21.23-.13.37s.24,0,.36,0a8.19,8.19,0,0,1,1.08-.2c.29,0,.59,0,.7.49.2.85.54,1.52,1.93,1.1a1.77,1.77,0,0,1,1.68.25,2.66,2.66,0,0,1-1.61.51A3.62,3.62,0,0,0,19.64,95a.28.28,0,0,0,0,.29c.24,0,.32-.2.45-.32a1.46,1.46,0,0,1,2-.34,1.72,1.72,0,0,0,2.56-.72,1.25,1.25,0,0,1,.88-.53,18.2,18.2,0,0,0,4.12-1.46A1.89,1.89,0,0,1,32.44,93c.22.6.44,1.15,1.18,1.25.26,0,.2.26.18.42a2.61,2.61,0,0,1-.35.94c-.07.11-.2.24-.07.36s.26,0,.38,0A2.46,2.46,0,0,0,35,93.24a2.78,2.78,0,0,0-1.41-2.06A1.51,1.51,0,0,1,33,88.83c.38-.69.85-1.33,1.26-2,.21-.34.4-.38.76-.19a9.16,9.16,0,0,0,4.63,1.16,8.18,8.18,0,0,0,2.67-.53c-.14-.26-.35-.25-.53-.29a10.72,10.72,0,0,1-4.42-1.91C36,84,36,84,36.85,82.59s1.39-2.48,2-3.76c.12-.23.2-.46.55-.41,2.12.28,2.74-.85,3-2.75.09-.56.26-.56.7-.44a17.27,17.27,0,0,0,2,.43,1.11,1.11,0,0,1,.82.47A58.6,58.6,0,0,0,50.7,81.6a3.54,3.54,0,0,0,1.61,1.08c.25,0,.32.27.43.45.86,1.47,1.71,3,2.59,4.42s1.65,2.8,2.34,4.28c.34.71.24.94-.55,1a7.51,7.51,0,0,1-4-.65c-1.83-1-3.26.08-3.82,1.86,0,.08,0,.23,0,.27s.22,0,.32-.07c.28-.19.55-.38.84-.56a.67.67,0,0,1,1,.23c.74,1,.8,1,2,.68a7.78,7.78,0,0,1,2.36,0,20.1,20.1,0,0,1-4.8,1.9A2.92,2.92,0,0,0,48.46,100c.3-.09.39-.38.55-.57A1.17,1.17,0,0,1,50.67,99a1.54,1.54,0,0,0,1.91-.28c1.12-1.29,2.73-1.68,4.21-2.41a3.77,3.77,0,0,1-1.43,1.56,3.7,3.7,0,0,0-1.51,4.51c0,.07.06.14.12.28a2.43,2.43,0,0,0,.36-1.07c.3-.94.37-1,1.32-1a1.85,1.85,0,0,0,1.81-1.29,20,20,0,0,1,3.21-5c.26-.35.58-.28.9-.2a2.52,2.52,0,0,1,1,.67,1.23,1.23,0,0,0,1.92.1c.46-.34.77-.3,1.09.18.14.21.25.44.38.67a2.47,2.47,0,0,0-.26-2.44,1.68,1.68,0,0,0-1.81-.69,2.85,2.85,0,0,1-3.14-1,7.12,7.12,0,0,1-.86-1.55c-.17-.38-.37-.73-.57-1.12a12.35,12.35,0,0,0,6.39-3.89l-.09-.16c-.65.29-1.3.59-2,.86a8.62,8.62,0,0,1-4.79.48,1.48,1.48,0,0,1-1.18-.92c-.48-1.1-1-2.18-1.55-3.26-.12-.25-.13-.4.11-.6a3,3,0,0,0,1-1.87c.05-.32.14-.41.44-.18a15.85,15.85,0,0,0,3.92,2.13c.22.09.48.16.65-.06s-.08-.34-.16-.51c-.18-.34-.54-.57-.68-1,.34-.1.56.13.79.27.71.44,1.39.92,2.1,1.36.18.11.4.35.63.14s0-.44-.14-.62c-.28-.51-.6-1-1-1.64a26.25,26.25,0,0,1,2.8,1.35c.47.25.92.52,1.38.78.14.08.29.17.43,0s0-.3,0-.43A7.42,7.42,0,0,0,67,79.51c-.13-.13-.34-.21-.35-.48a3.06,3.06,0,0,1,1.22.42,18.14,18.14,0,0,1,2.58,1.45c.16.11.35.26.53.07s0-.33-.09-.48a12,12,0,0,0-1.72-2.22c.29-.14.46,0,.63.12a14.31,14.31,0,0,1,2.1,1.33c.14.11.31.26.48.13s0-.36,0-.52a10.8,10.8,0,0,0-2.57-3h1.84c.21,0,.48,0,.58-.21s-.14-.38-.29-.51c-1.63-1.38-3.07-3-4.56-4.49a3.87,3.87,0,0,1-.95-1.24c.76-.14,1.36.2,1.89,1.11.12.2.17.44.28.64s.09.34.3.33.25-.17.32-.31a3.63,3.63,0,0,0-.4-3.23,3.26,3.26,0,0,0-2.31-1.1,4.58,4.58,0,0,1-.56-.15,1.88,1.88,0,0,1,1.8-.26,3.07,3.07,0,0,1,2.14,2.72c0,.21,0,.5.24.55s.35-.27.44-.47a4,4,0,0,0-.4-4.35,4.43,4.43,0,0,0-4.38-1.78,2.16,2.16,0,0,1-.76.07Z"/>
    <path class="c" d="M63.54,56.31a15.41,15.41,0,0,1,5.78-4.88,5.31,5.31,0,0,1,6.19,1,6.23,6.23,0,0,1,1.33,2.28c.17.51.4.37.63.08a4.69,4.69,0,0,0,1-3.92c-.67-3.81-3.55-4.93-6.8-4.51a13.16,13.16,0,0,0-9,5.55c-.43.56-.83,1.15-1.26,1.72-.1.14-.14.38-.43.36a24,24,0,0,1,4.65-7.54,11,11,0,0,1,5.46-3.59,6.39,6.39,0,0,1,6.46,1.95,9.69,9.69,0,0,1,1.65,2.37c.07.13.09.31.3.31s.25-.15.31-.3a6.71,6.71,0,0,0-5-9.67c-5.3-.86-9.92,1.38-12.87,6.19A36.7,36.7,0,0,0,58.62,51a1.42,1.42,0,0,1-.36.74,25.07,25.07,0,0,1,5.08-13,13,13,0,0,1,6.13-4.53c4.73-1.53,9.28.78,11.19,5.65,0,.13,0,.34.25.33s.24-.17.3-.31c1.26-2.94,1.07-6.8-1.31-9.27a8.76,8.76,0,0,0-5.14-2.35,12.67,12.67,0,0,0-9.5,2.41,20.54,20.54,0,0,0-7.21,8.91,34.72,34.72,0,0,0-2.45,8.8c-.21-.25-.12-.51-.12-.74a39.21,39.21,0,0,1,1.26-8.41,19.47,19.47,0,0,1,2-5.26c2.4-4.13,5.65-7.36,10.58-8.25A14,14,0,0,1,79.73,28a9.66,9.66,0,0,1,1.19,1,.48.48,0,0,0,.53.15c.24-.12.12-.34.08-.52a14,14,0,0,0-1.86-4.39A8.87,8.87,0,0,0,73,20.18c-6.14-.67-11.28,1.5-15.57,5.78a18,18,0,0,0-4.29,8.44A43,43,0,0,0,52,44.32,24.28,24.28,0,0,0,52.15,48a33.28,33.28,0,0,0,1.15,6.41.69.69,0,0,1,.05.6A11.86,11.86,0,0,1,51,53,25.88,25.88,0,0,0,48,50.43l-4.47-3.37a2.51,2.51,0,0,1-1-2.1,17.73,17.73,0,0,1,.07-2.6A6.88,6.88,0,0,1,43.62,44c.05.09,0,.27.2.24A.25.25,0,0,0,44,44c0-.3.09-.59.1-.88a20.75,20.75,0,0,0-.52-4.91c-.05-.21-.05-.34.15-.45.14.27.29.53.42.81s.16.28.34.24.15-.22.14-.35a52.61,52.61,0,0,0-.71-6.12c-.23-1.15-.53-2.28-.83-3.41l.14-.11a12.25,12.25,0,0,0,1.69,1,2,2,0,0,1,.93,1c.07.11.14.27.31.23s.18-.18.22-.32A4,4,0,0,0,46.14,28c-.27-.73-.37-1.5-.57-2.24-.09-.35.2-.32.41-.32a7.3,7.3,0,0,1,3.08.7c.17.08.34.29.53.11s0-.39,0-.56A6.48,6.48,0,0,0,45.66,22l-.6-.25s0,0-.05-.07a5.61,5.61,0,0,1,2.38-.52,9.87,9.87,0,0,1,2,.08c.15,0,.32.05.41-.12s-.06-.25-.14-.35A4.75,4.75,0,0,0,46.42,19a17.48,17.48,0,0,0-4.09.32c-.36,0-.71,0-1.06.05s-.42-.1-.25-.42a2.37,2.37,0,0,1,1.55-1.14,11,11,0,0,1,2.48-.47c.15,0,.3,0,.33-.19s-.09-.21-.22-.29a6.82,6.82,0,0,0-4.38-.75,10.16,10.16,0,0,0-2.78.95,2.17,2.17,0,0,1-1,.18c-.13,0-.33.15-.38-.1a.38.38,0,0,1,.2-.39,12.19,12.19,0,0,1,2.26-1.33c.17-.08.42-.14.37-.38s-.27-.16-.44-.19a5.58,5.58,0,0,0-4,.63,4.06,4.06,0,0,0-1.38,1.47c-.22.39-.39.36-.57,0a2.31,2.31,0,0,1,.06-1.77c.07-.23.34-.49.13-.7s-.54,0-.78.15c-1.68.8-1.87,2.62-1.07,4.18a11.56,11.56,0,0,0,.73,1.14c-.48.36-.83.44-1.28-.16a3.73,3.73,0,0,0-3.56-1.44c-.16,0-.31,0-.36.2s.17.22.29.29A5.79,5.79,0,0,1,30,23.41a11,11,0,0,1-3.07-1.51c-.18-.11-.37-.37-.57-.23s-.06.44,0,.65a5.28,5.28,0,0,0,2.54,2.79,4.54,4.54,0,0,1-2,.81c-.17,0-.44,0-.49.22s.22.29.37.37a3.67,3.67,0,0,0,3.88.06l.47-.26a3.11,3.11,0,0,1-1.7,2.77c-.9.45-1.82.86-2.72,1.3A9,9,0,0,0,24.35,32a3.56,3.56,0,0,0-1.21,2.55,2.37,2.37,0,0,1-.14.57A4,4,0,0,0,24,39.38a18.85,18.85,0,0,0-3.38,2.37c-.49.43-.86,1-1.3,1.41-.1.1-.27.29-.09.47s.31,0,.42-.11a2.82,2.82,0,0,1,1-.44c-.34.38-.71.81-1.09,1.22a9.67,9.67,0,0,0-2.29,4c-.06.19-.19.47.06.58s.33-.21.44-.37a2.6,2.6,0,0,1,.84-1c-.22.82-.38,1.54-.6,2.25a11.87,11.87,0,0,0-.38,4.07c0,.27,0,.55.06.83s-.06.61.27.63.27-.36.31-.59a15.33,15.33,0,0,1,.5-2.13,1.64,1.64,0,0,1,.18-.35,28.61,28.61,0,0,0,2.24,6h-.66c-6.45,0-12.9,0-19.34,0-.55,0-.72-.1-.71-.69q0-28.2,0-56.41c0-.53.13-.63.64-.63Q48,.5,94.89.48c.55,0,.63.16.63.65q0,28.2,0,56.41c0,.48-.07.66-.63.66q-9.42,0-18.86,0c-.36,0-.57-.06-.67-.45-.68-2.84-2.62-3.73-4.82-3.89a8.4,8.4,0,0,0-6.07,1.89c-.27.22-.57.42-.85.63Z"/>
    <path class="b" d="M48.88,25.55A9.39,9.39,0,0,0,45.64,25c-.47,0-.58.2-.52.62a16.43,16.43,0,0,0,.77,2.85A2.94,2.94,0,0,1,46,30c-1-.85-2.28-1.19-3.17-2.14a2.35,2.35,0,0,1-.41-.63A14,14,0,0,0,37.37,21,5.91,5.91,0,0,0,33,19.8a.37.37,0,0,1-.37-.13,3.61,3.61,0,0,1-1.15-2.74,2.16,2.16,0,0,1,1.17-1.79,5.18,5.18,0,0,0-.11,1.43,1.61,1.61,0,0,0,.32.76c.53.68.84.66,1.23-.09a4.17,4.17,0,0,1,4.27-2L37.14,16a3.56,3.56,0,0,0-1.25,1.25c-.24.46-.12.67.41.65a7.41,7.41,0,0,0,2.83-.8,6.53,6.53,0,0,1,4.62-.36l.51.18a10.21,10.21,0,0,0-2.28.64A2.38,2.38,0,0,0,40.52,19c-.17.62,0,.79.6.8a32.48,32.48,0,0,0,3.94-.41A4.86,4.86,0,0,1,49,20.64c-.94.07-1.75,0-2.56.13a8.31,8.31,0,0,0-1.75.5.65.65,0,0,0-.45.56c0,.28.32.25.52.3a6.53,6.53,0,0,1,3.9,2.71A1.07,1.07,0,0,1,48.88,25.55Z"/>
    <path class="b" d="M23.76,33.92a1.26,1.26,0,0,1,.35-1,6.74,6.74,0,0,1,2.57-2c.86-.44,1.74-.86,2.62-1.25a3.51,3.51,0,0,0,2.05-2.24,2.31,2.31,0,0,1,.16-.3,8,8,0,0,1,.43,3.77,8.83,8.83,0,0,1-2.34,5.56,7.4,7.4,0,0,1-3.16,2,13.13,13.13,0,0,0-1.66.61.62.62,0,0,1-.89-.23c-1-1.47-1.2-3.58.66-4.87.51-.36,1-.72,1.55-1.09.13-.1.34-.24.18-.43s-.3,0-.44.13Z"/>
    <path class="c" d="M29.08,52.34a4.56,4.56,0,0,1,4.35-4.78,5.58,5.58,0,0,1,.57-.08c.18,0,.43.05.43.31s-.21.3-.42.31a5.17,5.17,0,0,0-1.4.22,4.14,4.14,0,0,0-2.75,5.32,10.51,10.51,0,0,0,2.4,3.85A36.18,36.18,0,0,0,37,61.84a61.28,61.28,0,0,0,13.93,8.55,88.71,88.71,0,0,0,16.24,4.94c.23,0,.56,0,.51.36s-.38.21-.62.16c-2.75-.54-5.47-1.22-8.15-2a60.64,60.64,0,0,1-18.74-8.91,53.78,53.78,0,0,1-8.38-7.11,9.21,9.21,0,0,1-2.65-4.72,2,2,0,0,1-.05-.35C29.08,52.61,29.08,52.47,29.08,52.34Z"/>
    <path class="c" d="M67.2,72.88a52.76,52.76,0,0,1-6.56-1.43,52.42,52.42,0,0,1-9.78-3.84c-.25-.12-.82-.17-.58-.62s.56,0,.8.13A54.52,54.52,0,0,0,65.5,72l1.73.3c.19,0,.43,0,.4.32S67.34,72.85,67.2,72.88Z"/>
    <path class="c" d="M65,69.63l-1.8-.56a52,52,0,0,1-8.44-3.33l-.16-.08c-.19-.1-.45-.19-.28-.47s.34-.11.51,0c.73.35,1.45.7,2.19,1A57.44,57.44,0,0,0,65,69.05c.19.06.35.11.33.33S65.18,69.65,65,69.63Z"/>
    <path class="c" d="M33.86,22.42a1.45,1.45,0,0,1,1.46,1.47,1.44,1.44,0,0,1-1.44,1.42,1.45,1.45,0,1,1,0-2.89Zm.58,1.45a.58.58,0,1,0-.54.57A.53.53,0,0,0,34.44,23.87Z"/>
    <path class="b" d="M30.58,24.35c.14.41.28.77.4,1.13a.39.39,0,0,1-.1.43,3.17,3.17,0,0,1-3.45.39,13.29,13.29,0,0,0,1.72-.74A8.43,8.43,0,0,0,30.58,24.35Z"/>
    <path class="b" d="M28,18.76a3.52,3.52,0,0,1,2.77,1.56.28.28,0,0,1,.07.32,10.26,10.26,0,0,0-.41,2.3A7,7,0,0,0,28,18.76Z"/>
    <path class="b" d="M27.1,22.63a17.46,17.46,0,0,0,2.69,1.19.28.28,0,0,1,.19.45c-.17.24-.31.62-.72.46a3.84,3.84,0,0,1-2.23-2Z"/>
    <path class="c" d="M66.94,58.08a5.3,5.3,0,0,1,4.24.09H67A.44.44,0,0,0,66.94,58.08Z"/>
    <path class="b" d="M64.36,60.09c-.08.06-.15.09-.24,0l.16-.11Z"/>
    <path class="c" d="M18.54,47.51l0,0a.19.19,0,0,1,0,.08s0,0,0,0Z"/>
    <path class="b" d="M23.71,34l0,0,0,0s0,0,0,0Z"/>
    <path class="c" d="M43.1,28.9c0-.07-.08-.15,0-.19s.08.05.12.08Z"/>
    <path class="c" d="M63.62,56.38c0,.08-.06.11-.14.11h0c-.09-.09,0-.14,0-.19Z"/>
    <path class="c" d="M63.48,56.49l-.06.08v-.08h.07Z"/>
    <path class="b" d="M65,63.61l0,.07c-.09-.07,0-.06,0-.08Z"/>
    <path class="b" d="M27,22.7l0-.11.11,0Z"/>
    <path class="b" d="M69.17,78.14l0,0s0,0,0,0,0,0,0,0S69.15,78.13,69.17,78.14Z"/>
    <path class="b" d="M66.51,79l0,0,0,0s0,0,0,0Z"/>
    <path class="a" d="M34.44,23.87a.58.58,0,1,1-.55-.58A.54.54,0,0,1,34.44,23.87Z"/>
  </g>
</svg>
