<svg xmlns="http://www.w3.org/2000/svg" viewBox="0 0 201.59 50.38">
  <defs>
    <style>
      .a {
        fill: #232323;
      }

      .b {
        fill: #aaa5a4;
      }

      .c {
        fill: #616161;
      }

      .d {
        fill: #38578a;
      }

      .e {
        fill: #d3262d;
      }

      .f {
        fill: #926c0b;
      }

      .g {
        fill: #961519;
      }

      .h {
        fill: #947b45;
      }

      .i {
        fill: #85575a;
      }

      .j {
        fill: #18315f;
      }

      .k {
        fill: #771c1d;
      }

      .l {
        fill: #fcfcfc;
      }

      .m {
        fill: #004fe6;
      }

      .n {
        fill: #001450;
      }

      .o {
        fill: #f9b900;
      }

      .p {
        fill: #f5a500;
      }

      .q {
        fill: #e90306;
      }
    </style>
  </defs>
  <title>Asset 1</title>
  <g>
    <path class="a" d="M66.74,43A57.34,57.34,0,0,1,48.23,49.9a35.68,35.68,0,0,1-15-.79,40.18,40.18,0,0,1-7.34-2.26.74.74,0,0,1,0-1,66.46,66.46,0,0,0,14.37,3A30.49,30.49,0,0,0,50.1,48,87,87,0,0,0,64,43.16c.89-.37,1.82-.61,2.73-.92a.54.54,0,0,1,.18.53Q66.82,43,66.74,43Z"/>
    <path class="a" d="M28.35,24.58c-.72.24-1.76-.29-2,1.1a26.05,26.05,0,0,1-1,3.69c-.17.56-.18,1,.45,1.33.38.18.84.54,0,.61a20,20,0,0,1-3.87,0c-.87-.09-.28-.39,0-.59a3.52,3.52,0,0,0,1.41-2.38c.74-2.57,1.59-5.1,2.31-7.66.33-1.21.81-2.52-.52-3.55-.65-.5-.13-.57.29-.58,1.83,0,3.67-.08,5.49,0,2.42.09,4.06,1.27,4.4,3,.3,1.58-1.42,4-3.41,4.59a16.26,16.26,0,0,1-2.21.42,1.1,1.1,0,0,1-.28-.83c.4-1,1.52-1.46,2.05-2.38s.72-1.89-.38-2.45S29.34,19,28.89,20a4.14,4.14,0,0,0-.21,3.39A1,1,0,0,1,28.35,24.58Z"/>
    <path class="a" d="M36.82,28.77a3.18,3.18,0,0,0,2.45,1.88,2.67,2.67,0,0,0,3.08-1.21,2.48,2.48,0,0,0-.19-3c-1-1.16-2-2.28-2.95-3.42s-2-2.54-1.11-4.33,2.13-2.43,4.5-2.36c1.21,0,2.18.92,3.44.7.57-.09.6.47.54.89a16.54,16.54,0,0,1-.41,2.19c-.07.28-.37.5-.57.75-.09-.28-.19-.56-.29-.84-.73-2.06-1.4-2.6-3.15-2.52-2,.08-2.91,1.76-1.76,3.37a30.07,30.07,0,0,0,3.09,3.31,4,4,0,0,1,1.32,4,4.57,4.57,0,0,1-5.53,3.65,8.89,8.89,0,0,1-2.13-.65c-.7-.29-1.66.73-2-.22-.22-.58.25-1.42.42-2.14l.15-.63C36.4,27.79,36.53,28.42,36.82,28.77Z"/>
    <path class="a" d="M58.82,31.86c-4-.07-6.47-3.35-5.88-7.39a10.17,10.17,0,0,1,8.4-8.21c1.71-.18,3.28.81,5,.3.19-.06.46.31.46.7a10.57,10.57,0,0,1-.73,3.14c0,.15-.23.27-.35.41-.09-.19-.21-.37-.29-.56-.16-.39-.27-.81-.46-1.19a2.87,2.87,0,0,0-3.63-1.74,6.49,6.49,0,0,0-4.71,3.55c-1,1.94-1.78,3.93-1.26,6.17.69,3,3,4.25,5.83,3.27.61-.21,1.16-.57,1.75-.81a.55.55,0,0,1,.5.2.6.6,0,0,1-.18.53A6.43,6.43,0,0,1,58.82,31.86Z"/>
    <path class="a" d="M12.92,16.61l2.47,0a.64.64,0,0,1,0,1.1,10.81,10.81,0,0,0-1.26,3.6c-.4,1.5.09,2,1.63,1.69A3.34,3.34,0,0,0,17,22.54c.87-.55,1.17-.19,1,.66A27.07,27.07,0,0,1,17.27,26c-.08.3-.2.67-.61.55s-.42-.4-.36-.76c.23-1.35-.52-1.61-1.68-1.61-1,0-1.6.26-1.75,1.38s-.54,2.28-.8,3.43c-.12.58.06,1.19.67,1.23,2.12.13,4.33.47,6-1.45a.76.76,0,0,1,1,0c-.92,2.62-.92,2.64-3.47,2.64s-5.14,0-7.71-.08A1.13,1.13,0,0,1,8,31.16c0-.34.3-.38.6-.47.82-.25,1.06-1,1.26-1.72q1.51-5.37,3-10.75c.07-.27-.11-.62-.18-.93C12.39,16.92,12.48,16.7,12.92,16.61Z"/>
    <path class="a" d="M91.38,32c-.2-2.42-.42-4.85-.6-7.28-.07-.91-.25-1.72-1.33-1.85a2.83,2.83,0,0,0-2.61,1.64c-.4,1.65-1.09,3-3,3.23a.61.61,0,0,1-.56-.58c-.2-1.21,1.6-3-.29-3.53s-1.58,1.75-2,2.92a4.29,4.29,0,0,1-.24.59c-.29.38-.62.68-1.15.43-1.79-2.38-1.68-3,.84-5.27,0-.34.22-.44.53-.3a6.35,6.35,0,0,1,4.38-.13A7.49,7.49,0,0,0,90,21.8c1.7-.58,2.31-.06,2.51,1.79.16,1.6.25,3.22.26,4.83,0,1,.69.87,1.26,1L94,29.38,93.91,31v0L92.1,32A.43.43,0,0,1,91.38,32Z"/>
    <path class="a" d="M22.74,36.4c2.11.25,4.2.6,6.32.75a32.26,32.26,0,0,0,11.56-1.67c1.32-.39,2.57-1.08,4-1l.17.19c-3,2.45-6.75,3.16-10.4,3.71A24.34,24.34,0,0,1,22,37C21.91,36.41,22.12,36.17,22.74,36.4Z"/>
    <path class="a" d="M70.88,30.1c-.1.19-.14.43-.29.55-.88.74-1.78,1.67-3,.87s-.44-1.9-.18-2.85c.48-1.72,1.07-3.41,1.61-5.11-.23-.38-.74-.33-1-.65.22-1.57,1.4-1.45,2.44-1.24s.85,1.18.65,1.87c-.55,1.83-1.29,3.6-1.81,5.44-.35,1.25.54,1.11,1.33.92Z"/>
    <path class="b" d="M147.88.13c4.34.08,7.55-.18,10.7.65a7.71,7.71,0,0,1,2.11.65c.24.15.47.32.71.48a2.6,2.6,0,0,1-.9.23c-1.78-.27-3.57-.49-5.33-.77a36.19,36.19,0,0,0-18.49,1.36c-.86.32-1.7,1-2.73.74-.3-.08-.58-.19-.87-.29a7.83,7.83,0,0,1,.75-.41A26.9,26.9,0,0,1,147.88.13Z"/>
    <path class="a" d="M72.53,28.1c.44-2,2-3.52,2.2-5.62.11-1.07,1.08-.93,1.75-.68s.21.82,0,1.29c-.4,1.2-.79,2.41-1.14,3.63-.29,1-1,2.24-.66,3,.57,1.35,0,2-1,2-1.28,0-1.28-1.16-1.06-2.18A1.5,1.5,0,0,0,72.53,28.1Z"/>
    <path class="a" d="M86.24,34.55l-1.08.31-.3-.09-.07-.3c.4-1.18-.1-1.85-1.24-2.13s-2.48-.6-3.72-.89a.68.68,0,0,1-1-.13c.17-.89-.37-2.05.92-2.52a.48.48,0,0,1,.73,0c0,.38-.26.91.3,1.1.79.26,1.62.43,2.43.66,3.12.88,3.12.88,2.89,4.1Z"/>
    <path class="a" d="M156.8,25a14.91,14.91,0,0,1-3.74-.56,1.81,1.81,0,0,1-1.31-1.58c-.27-2,.72-3.21,2.78-3a3.73,3.73,0,0,1,2.56,1c-.08.12-.15.25-.22.37-.5.65-2,.48-1.79,1.4s1.87.67,2.59,1.47a1,1,0,0,1,0,.88A1.06,1.06,0,0,1,156.8,25Z"/>
    <path class="b" d="M101.79,3.49c0-.11,0-.29.09-.3a34.46,34.46,0,0,1,12.59-.89c.12,0,.2.33.3.51s.28.18.24.3-.1.19-.16.19l-5.38.09a33.75,33.75,0,0,0-7.77.55q-.24-.19-.12-.33A.27.27,0,0,1,101.79,3.49Z"/>
    <path class="c" d="M60.24,8.71l-2.63-.12.06.05c-.33-1.17-1.42-1.19-2.27-1.29-3.35-.37-6.69-1-10.09-.56a.45.45,0,0,1-.14-.49c.06-.16.11-.23.17-.23,4.36,0,8.76-.39,13,1.22a5.37,5.37,0,0,0,1.92,0A1,1,0,0,1,60.24,8.71Z"/>
    <path class="c" d="M66.74,43l0-.8c3.25-2.08,7-3.19,10.33-5,.35-.19.62.09.73.37,0,.12-.14.45-.3.53C73.89,39.76,70.49,41.79,66.74,43Z"/>
    <path class="a" d="M5.64,26l-.12.8c-.15.22-.31.22-.48,0-1.37-.14-1.24.45-.63,1.28h0c-.6.46-1.48-.61-2,.36-.2.37-.55.37-.71.11a19.26,19.26,0,0,1-1.69-3c-.2-.51.54-.66.88-.5,1.5.74,3.15.47,4.7.82Z"/>
    <path class="d" d="M166.71,24.92c-.74.9-1.72.37-2.61.42-.52-.26-1.34-.06-1.47-.93-1.28-1.31-3.65-.59-4.61-2.48a1,1,0,0,1,.23-.83c2.4.75,4.84,1.43,7.21,2.29,1,.37,2.31-.4,3.06.83C168.05,24.79,167.14,24.23,166.71,24.92Z"/>
    <path class="a" d="M193.33,17.75a17.73,17.73,0,0,1-5-.52c-1.54-.42-1.73-1.32-1.65-2.58a.87.87,0,0,1,.24-1.24c1-1.29,2.38-1.13,3.75-.74a.41.41,0,0,1,.22.4c0,.16-.06.24-.1.24-.44.43-1.09.63-1.32,1.28.4,1.81,2.14,1.28,3.22,1.87a2.23,2.23,0,0,1,.76.48A.67.67,0,0,1,193.33,17.75Z"/>
    <path class="a" d="M78.61,32.08c-.48,2.51-.18,3,2,3.18.64.05,1.29,0,1.93,0,.33,0,.93-.27.89.33,0,.26-.61.65-1,.68A7.83,7.83,0,0,1,79,36.05c-1-.36-2.17-.44-2.43-1.74s.6-2.16,1.78-2.66l.27.13Z"/>
    <path class="c" d="M22.74,36.4c-.3.14-.65.21-.71.63a28.1,28.1,0,0,1-10.51-4.35l.1-.11c1.48-.27,2.57.75,3.84,1.17C17.91,34.56,20.32,35.5,22.74,36.4Z"/>
    <path class="a" d="M127,29.23c-2.38-.71-2.38-.71-2.44-3.1-.19-.1-.25-.2-.19-.31s.12-.15.19-.15c1.91-.79,3.83-1.52,5.77-.06a.57.57,0,0,1-.05.78c-1,.67-2.76.3-2.76,2.19A1,1,0,0,1,127,29.23Z"/>
    <path class="b" d="M83,4H73.16c-.17-.11-.23-.22-.17-.32s.12-.16.18-.16A15,15,0,0,1,83,3.5c.18.1.24.2.19.31S83.08,4,83,4Z"/>
    <path class="c" d="M43.31,7.26a36.18,36.18,0,0,0-9.94,3.18c-.29.12-.65.34-.86,0-.31-.54.26-.74.55-.87,3.28-1.53,6.56-3.07,10.31-3a.44.44,0,0,1,.12.48C43.43,7.18,43.37,7.26,43.31,7.26Z"/>
    <path class="e" d="M112.75,35.81a3.28,3.28,0,0,1-2.54.55c-1-.26-2,.5-2.95-.09s-.09-1.47,0-2.21a1.21,1.21,0,0,1,.45-.62c.68-.07,1.37-.23,1.9.41.77.88,1.94.1,2.78.67a.79.79,0,0,1,.43,0A.77.77,0,0,1,112.75,35.81Z"/>
    <path class="b" d="M71.28,4c0,.1-.06.28-.12.29C68.43,5,65.69,5.55,63,6.15l-.21-.23c2.57-1.85,5.61-2,8.6-2.39.18.14.24.26.16.36S71.35,4,71.28,4Z"/>
    <path class="c" d="M44.63,34.46c1.75-1.51,4.07-2,6-3.11a.62.62,0,0,1,.86.12c.2.33-.09.56-.34.69-2,1.12-4,2.3-6.36,2.49Z"/>
    <path class="c" d="M136.12,29.93,130,30a5.28,5.28,0,0,1-3-.78l.55-.68c2.87-1.16,5.61,0,8.38.48A.59.59,0,0,1,136.12,29.93Z"/>
    <path class="a" d="M100.22,35.54c-1.18-.52-2.09-1.3-1.63-2.71.37-1.17,1.87-1.52,3.53-1,.31.1.62.17.94.26a.58.58,0,0,1,0,.77c-.93.58-2.12.92-2.21,2.31A.53.53,0,0,1,100.22,35.54Z"/>
    <path class="a" d="M23.14,45.7a10.06,10.06,0,0,1-4.43-2.05.78.78,0,0,1,0-1c1.84,1,3.88,1.62,5.56,2.93A.88.88,0,0,1,23.14,45.7Z"/>
    <path class="a" d="M86.15,34.64c1-.93,2.39.38,3.37-.62.16-.17.4-.09.47.18a.76.76,0,0,1-.1.54A3.19,3.19,0,0,1,88.15,36c-1.56.66-1.76-.36-1.91-1.48Z"/>
    <path class="b" d="M169.29,4.74c-2.37-.08-4.42-1.26-6.61-2-.17,0-.29-.27-.43-.41.19-.09.4-.28.57-.25,2.33.44,4.75.68,6.49,2.61Z"/>
    <path class="c" d="M162.75,24.37c.19.68,1.18.26,1.35,1-2.44.13-4.9.57-7.3-.33l.81-.23a5,5,0,0,1,2.27-1.16C160.9,23.61,162,23.38,162.75,24.37Z"/>
    <path class="c" d="M109.52,36.51a8.84,8.84,0,0,1-7.77-.25.57.57,0,0,1,.36-.81,4.24,4.24,0,0,1,2.54-.07A28,28,0,0,0,109.52,36.51Z"/>
    <path class="a" d="M96.35,25.45c.58-1,.11-1.76-.42-2.6a.8.8,0,0,1,.57-1.23,1,1,0,0,1,1.27.67,3.19,3.19,0,0,1-1.06,3.46l-.29,0Z"/>
    <path class="c" d="M18.72,42.6v1A15.63,15.63,0,0,1,14,40.58a.42.42,0,0,1,.4-.41A14.62,14.62,0,0,1,18.72,42.6Z"/>
    <path class="a" d="M19.25,17.78c.27-1.5,1.5-1,2.22-.8s.38,1.08.16,1.66A15.39,15.39,0,0,1,21,20.06c-.17-.49-.31-1-.51-1.46a2.22,2.22,0,0,0-.4-.48A1.1,1.1,0,0,1,19.25,17.78Z"/>
    <path class="a" d="M10.92,37.18a6.48,6.48,0,0,1,2.92,2.51,2.59,2.59,0,0,1-.42.39c-1.27-.85-2.68-1.54-3.55-2.89A.78.78,0,0,1,10.92,37.18Z"/>
    <path class="c" d="M138.79,28.26a5.47,5.47,0,0,1,3,.14c-.69,1.35-2,.86-3,1-.41,0-.83,0-1.25,0a.78.78,0,0,1,.11-.78A1.42,1.42,0,0,1,138.79,28.26Z"/>
    <path class="f" d="M193.33,17.75c0-.2-.05-.4-.07-.6,1.39-1.48,3.13-.74,4.75-.75l.5,0,.68.14a.71.71,0,0,1,0,1.12A33.5,33.5,0,0,1,193.33,17.75Z"/>
    <path class="c" d="M64.78,10.78a12,12,0,0,1-3.86-1.55c-.19-.14-.25-.28-.2-.43s.11-.23.17-.23A6.14,6.14,0,0,1,65,10.51Z"/>
    <path class="c" d="M80.53,28.78l-.73,0-.22-1.24a.94.94,0,0,0,.87-.86,2.87,2.87,0,0,1,2.57.56.6.6,0,0,1,0,.8A3.54,3.54,0,0,1,80.53,28.78Z"/>
    <path class="c" d="M111.52,15.72c-1.21-.4-2.07.9-3.24.69h0c.15-.69,1.16-1.07.68-2l-.06.05c1,0,2.31-.38,2.59,1.26Z"/>
    <path class="b" d="M121.87,4.13l-3-.06a.77.77,0,0,1-.83-.68c-.2-.08-.28-.17-.23-.29s.1-.19.16-.19A4.74,4.74,0,0,1,122,4Z"/>
    <path class="c" d="M81,22c-.06.31-.3.28-.53.3-.2-1.28-1.64-1.48-2.16-2.48a.41.41,0,0,1,.4-.4C80,19.8,81.28,20.17,81,22Z"/>
    <path class="g" d="M109.52,36.51c-1.29,0-2.58,0-3.87,0-.56,0-1.08,0-1.37-.58a1.83,1.83,0,0,1,2.74-.08c1,.24,2.24-.47,3.19.47Z"/>
    <path class="b" d="M60.89,8.57l0,.66c-.39,0-.65-.09-.68-.52V7.3C60.62,6,61.71,6,62.74,5.92l.21.23a2.16,2.16,0,0,1-1.41,1.17C60.84,7.54,60.91,8.05,60.89,8.57Z"/>
    <path class="c" d="M92.05,6.07l3.24,0a.82.82,0,0,1,0,1.26l-1.93,0c-.2.27-.39.26-.58,0L92.09,6Z"/>
    <path class="b" d="M88.77,4.76l-3,0a.79.79,0,0,1-.84-.67c-.21-.1-.29-.2-.24-.33s.11-.2.18-.2c1.37.24,2.8.27,4,1.17Z"/>
    <path class="c" d="M15.43,17.68l0-1.1a3.63,3.63,0,0,1,.91-.16c.65,0,1.74-.34,1.77.61s-1.07.6-1.71.68A4.85,4.85,0,0,1,15.43,17.68Z"/>
    <path class="c" d="M130.35,26.15c0-.18,0-.36,0-.54a4.72,4.72,0,0,1,3.26,1.21l-.39.36C132,27.46,130.75,28,130.35,26.15Z"/>
    <path class="c" d="M199.17,17.64l0-1.12a2.21,2.21,0,0,1,1.79.28,4.82,4.82,0,0,1,.61.66,4.07,4.07,0,0,1-.87.25C200.2,17.73,199.68,17.66,199.17,17.64Z"/>
    <path class="c" d="M36.82,28.77l-1.11-.6c0-.41,0-.82,0-1.23a.64.64,0,0,1,.58-.61c.39,0,.52.27.54.57C36.85,27.52,36.82,28.14,36.82,28.77Z"/>
    <path class="b" d="M138.79,28.26c-.17.65-.75.48-1.18.6h-.43a1.93,1.93,0,0,1-1.76-1l.09-.42,2.49,0C138.48,27.5,138.7,27.82,138.79,28.26Z"/>
    <path class="c" d="M25.37,14.69c-.77.66-1.38,1.59-2.57,1.54-.08,0-.24-.16-.23-.19C23,14.91,24,14.62,25,14.29,25.34,14.24,25.47,14.37,25.37,14.69Z"/>
    <path class="b" d="M181.74,11.11c1,.07,2.09.13,2.49,1.37.17.13.23.27.18.41s-.09.23-.14.23c-1-.45-2.15-.71-2.73-1.81Z"/>
    <path class="c" d="M103.11,32.72l0-.65a7.15,7.15,0,0,1,3.41,1.12,1.58,1.58,0,0,1-.83.65C104.6,33.91,103.4,34.33,103.11,32.72Z"/>
    <path class="c" d="M23.14,45.7l1.14-.17c.55,0,1.12-.12,1.57.33l0,1A3.63,3.63,0,0,1,23.14,45.7Z"/>
    <path class="c" d="M5,26.82a.39.39,0,0,1,.48,0,8.08,8.08,0,0,1,3.17.29c0,.06-.07.17-.11.17a5.28,5.28,0,0,1-3.4-.16C5.1,27.07,5.08,26.92,5,26.82Z"/>
    <path class="h" d="M195.33,15a4,4,0,0,1,3.18,1.34v.09a2.56,2.56,0,0,1-3.36-1C195.21,15.34,195.27,15.19,195.33,15Z"/>
    <path class="c" d="M128.34,6.12l-1.87,0a.56.56,0,0,1-.17-.55c0-.18.1-.28.15-.28,1.18.42,2.13-.57,3.25-.53l0,0L129,6A.47.47,0,0,1,128.34,6.12Z"/>
    <path class="b" d="M43.31,7.26l.06-.7c.45-1,1.28-.44,2-.49l0,.72C44.83,7.75,44,7.22,43.31,7.26Z"/>
    <path class="b" d="M175.11,7.36a2.29,2.29,0,0,1-2.48-1.08.66.66,0,0,1,.24-.17,1.86,1.86,0,0,1,2.3,1.18Z"/>
    <path class="b" d="M92.77,7.33a.83.83,0,0,1,.58,0c-.46,1.26-1.44,1.45-2.6,1.29h0A1.78,1.78,0,0,1,92.77,7.33Z"/>
    <path class="b" d="M179.62,10c-1.09,0-2.11-.14-2.57-1.34l.08-.08a2.3,2.3,0,0,1,2.61,1.29Z"/>
    <path class="c" d="M87.42,10.48A2.49,2.49,0,0,1,90.13,9.3l0-.05c-.43,1.13-1.39,1.35-2.43,1.46Z"/>
    <path class="b" d="M117.37,10.57A3.13,3.13,0,0,1,119.9,9.2l.17.2c-.57,1.13-1.74,1.32-2.77,1.73a.33.33,0,0,1-.1-.39C117.26,10.63,117.31,10.57,117.37,10.57Z"/>
    <path class="b" d="M103.71,11.25c-1.1,0-2.14-.05-2.6-1.3l0-.06c1.11-.05,2.16,0,2.61,1.3Z"/>
    <path class="b" d="M53.1,11.87c-.34,1.3-1.46,1.27-2.45,1.44l-.24-.23a2.37,2.37,0,0,1,2.69-1.21Z"/>
    <path class="c" d="M116.69,11.2a2.26,2.26,0,0,1-2.59,1.29l.05,0a2.22,2.22,0,0,1,2.59-1.29Z"/>
    <path class="c" d="M117.94,2.91c0,.16,0,.32.07.48l-3.16-.09c0-.16-.06-.33-.08-.49Z"/>
    <path class="b" d="M122,4c1.07.26,2.34-.49,3.22.68l-.07.06c-1.08-.23-2.35.51-3.25-.63Z"/>
    <path class="c" d="M112.75,35.81l0-1.26a5.62,5.62,0,0,1,.92,0,5.16,5.16,0,0,1,.83.3c-.21.23-.37.55-.62.67A5.4,5.4,0,0,1,112.75,35.81Z"/>
    <path class="b" d="M169.31,4.72c.7,0,1.46-.21,2,.41.17.19.45.52.39.65a.5.5,0,0,1-.78.13c-.47-.53-1.5-.24-1.66-1.17Z"/>
    <path class="c" d="M75.81,17.73c.29-.14.59-.25.87-.4.47-.25.95-.61,1.45-.24s-.07.64-.24.65c-.68.06-1.44,2-2,0Z"/>
    <path class="c" d="M68,12.5a2.3,2.3,0,0,1-2.1-1.25l.15-.19c.81.27,2,0,1.92,1.48Z"/>
    <path class="c" d="M26.25,13.53c.35-.91,1.17-1.06,2-1.22.32,0,.45.11.38.43a3.14,3.14,0,0,1-2,1.21C26.27,14,26.14,13.86,26.25,13.53Z"/>
    <path class="c" d="M186.91,13.41l-.24,1.24c-.65-.43-1.54-.58-1.78-1.5l0,0Z"/>
    <path class="b" d="M119.9,9.2c.49-.74,1.33-.84,2.06-1.14q.21.21.12.39c-.06.12-.12.18-.17.18-.27,1.07-1.22.53-1.84.77Z"/>
    <path class="c" d="M90,28.44c-.18.09-.36.24-.53.23-.56-.05-.84-.5-1.14-.91.18-.07.36-.23.53-.21C89.42,27.6,89.67,28.08,90,28.44Z"/>
    <path class="b" d="M175.17,7.29a1.78,1.78,0,0,1,2,1.29l-.08.08a1.82,1.82,0,0,1-1.94-1.3Z"/>
    <path class="c" d="M57.61,8.59a.85.85,0,0,1-.36,1c-.28.18-.62.24-.75-.06s.13-.56.31-.69a2.6,2.6,0,0,1,.86-.23Z"/>
    <path class="b" d="M137.61,28.86a2.15,2.15,0,0,0-.12.5c-.16.9-.79.67-1.37.57a4.34,4.34,0,0,0,.07-.52c-.11-1.21.54-1,1.27-.68Z"/>
    <path class="c" d="M16.83,19.63l.51.28a1.83,1.83,0,0,1-1.18.95c-.16,0-.36-.16-.54-.25C16,20.23,16.25,19.74,16.83,19.63Z"/>
    <path class="c" d="M87.65,10.71a2.42,2.42,0,0,1-1.91,1.34c-.31.06-.41-.06-.33-.35a2.53,2.53,0,0,1,2-1.22A2.5,2.5,0,0,0,87.65,10.71Z"/>
    <path class="b" d="M140,11.58c-.19.11-.36.3-.53.29a1.35,1.35,0,0,1-1.18-.9c-.14-.33.26-.45.56-.36A2.12,2.12,0,0,1,140,11.58Z"/>
    <path class="b" d="M95.28,7.31V6.05c.08-.84.73-.66,1.25-.73l.12.14c-.18.61-1,1-.66,1.81l-.12.13A1.22,1.22,0,0,1,95.28,7.31Z"/>
    <path class="b" d="M112.81,17.08c-1,0-1.43-.37-1.29-1.36l0,0c.9,0,1.46.26,1.35,1.28Z"/>
    <path class="c" d="M73.21,15.79c.82.05,1.47.26,1.28,1.3l.05-.05c-.83,0-1.5-.24-1.29-1.3Z"/>
    <path class="c" d="M6.9,34.7a1.63,1.63,0,0,1-1.36-1.24c0-.37.11-.51.47-.42a1.63,1.63,0,0,1,1.22,1.33l-.05.28Z"/>
    <path class="c" d="M85.74,12.05A2.4,2.4,0,0,1,84,13.21c-.11,0-.37-.31-.34-.36a2.24,2.24,0,0,1,1.73-1.15A3.61,3.61,0,0,0,85.74,12.05Z"/>
    <path class="i" d="M112.36,34.52c-.94-.16-2.14.74-2.78-.67C110.52,34,111.6,33.62,112.36,34.52Z"/>
    <path class="c" d="M29.76,23.63v.94c-.46.46-.93.27-1.4,0l0-.9A.89.89,0,0,1,29.76,23.63Z"/>
    <path class="c" d="M122.58,8c.39-1,1.23-.65,2-.65l0,0c-.39,1-1.24.62-2,.64Z"/>
    <path class="b" d="M97.84,4.67c.43-1,1.28-.56,2-.59h0c-.29,1.13-1.25.5-1.88.71Z"/>
    <path class="c" d="M5.64,26l0-.17c.41-.1.81-.23,1.22-.3s.59,0,.6.34c0,.07-.35.22-.54.22A10.51,10.51,0,0,1,5.64,26Z"/>
    <path class="c" d="M101.79,3.49c0,.15-.05.3-.09.45l-1.86.15h0C100.22,3,101.11,3.61,101.79,3.49Z"/>
    <path class="c" d="M84.85,3.53a4.52,4.52,0,0,1,.06.53L83,4a1,1,0,0,1,0-.48Z"/>
    <path class="c" d="M71.28,4a2.22,2.22,0,0,1,.06-.51l1.83,0a.87.87,0,0,1,0,.48Z"/>
    <path class="b" d="M90.69,5.45c-.64-.22-1.59.42-1.92-.69l.06-.06c.68.13,1.57-.38,2,.61Z"/>
    <path class="c" d="M19.73,28.77l-1,0c.08-.19.12-.45.26-.56s.39-.94.91-.52C20.22,28,20.12,28.44,19.73,28.77Z"/>
    <path class="c" d="M133.57,26.82c.67.13,1.55-.39,1.94.62l0,0c-.89.51-1.72.89-1.92-.64Z"/>
    <path class="b" d="M128.34,6.12,129,6c.38,0,1-.17,1.05.27,0,.76-.72.34-1.1.35C128.78,6.66,128.55,6.31,128.34,6.12Z"/>
    <path class="c" d="M5.54,33.46a3.19,3.19,0,0,1-1.27-1.33c0-.35.1-.49.45-.39A2.06,2.06,0,0,1,6,33,6.14,6.14,0,0,0,5.54,33.46Z"/>
    <path class="c" d="M91.38,32l.72,0c-.16.26-.3.54-.49.79s-.39.53-.73.34-.16-.56,0-.81A2.07,2.07,0,0,1,91.38,32Z"/>
    <path class="b" d="M126.45,5.24l0,.83,0,0a.45.45,0,0,1-.65,0l-.73-1.31.07-.06C125.66,4.76,126.28,4.48,126.45,5.24Z"/>
    <path class="j" d="M166.71,24.92c.23-1.21,1.18-.54,1.81-.7C168.27,25.34,167.35,24.76,166.71,24.92Z"/>
    <path class="k" d="M105.61,33.35l.86-.16,1.21.25a4.58,4.58,0,0,0,0,.53C106.75,34.51,106,34.65,105.61,33.35Z"/>
    <path class="b" d="M112,13.68c.38-.51.73-1.07,1.49-1.08a.41.41,0,0,1-.06.61c-.07.72-.69.61-1.15.76Z"/>
    <path class="j" d="M158.25,21.1v.59c-.72.33-1.26.3-1.32-.67l.16-.17Z"/>
    <path class="b" d="M134.19,8.69c-.53,0-1.1,0-1.31-.64l.14-.16c.52.05,1.13-.09,1.31.64Z"/>
    <path class="c" d="M95.72,26.57c.2-.37,0-1,.63-1.12q.33,0,.36.3a1.11,1.11,0,0,1-.65,1.17l-.29-.06Z"/>
    <path class="b" d="M99.82,9.29c-.39,0-.83.11-1.1-.3,0,0,.17-.32.29-.34a.66.66,0,0,1,.85.6Z"/>
    <path class="b" d="M101.11,10c-.52,0-1.15.14-1.29-.66l0,0c.53,0,1.17-.18,1.3.64Z"/>
    <path class="b" d="M120,22.19c.53,0,1.1,0,1.29.66l-.13.13c-.53,0-1.09,0-1.27-.68Z"/>
    <path class="b" d="M124.54,25.67a.47.47,0,0,1,0,.46,1.4,1.4,0,0,1-.51-.23.55.55,0,0,1,.11-.95Z"/>
    <path class="c" d="M8.85,25.45l-.5-.28a2.76,2.76,0,0,1,.52-.25c.26-.05.56,0,.5.35C9.36,25.35,9,25.39,8.85,25.45Z"/>
    <path class="b" d="M134.33,8.53c.38.07.84,0,1.09.38,0,.05-.18.33-.31.35a.74.74,0,0,1-.92-.57Z"/>
    <path class="b" d="M68,22.91c.35.2,1.35-.61,1,.65l-1-.09a.55.55,0,0,1,.11-.62Z"/>
    <path class="b" d="M106.3,12.55c-.53,0-1.13.12-1.32-.63l.1-.1c.52,0,1.13-.08,1.28.67Z"/>
    <path class="c" d="M10.92,37.18H9.87c-.26-.21-.34-.51,0-.65C10.44,36.29,10.71,36.71,10.92,37.18Z"/>
    <path class="b" d="M129.7,4.71a.66.66,0,0,1,.88-.62c.13,0,.33.33.3.37-.29.43-.74.29-1.16.27Z"/>
    <path class="a" d="M101.75,36.26l-1.53-.72.33-.37c.75-.35,1.27-.24,1.36.7A.27.27,0,0,0,101.75,36.26Z"/>
    <path class="c" d="M68,12.54c.58-.09,1.18-.22,1.32.63h0c-.59.09-1.12.06-1.29-.67Z"/>
    <path class="b" d="M96.54,5.32c.19-.69.78-.61,1.3-.65L98,4.8c-.16.76-.78.6-1.3.66Z"/>
    <path class="b" d="M106.36,12.49c.54,0,1.13-.09,1.3.65l-.07.07c-.54,0-1.16.16-1.29-.66Z"/>
    <path class="b" d="M90.81,5.31c.52.08,1.22-.13,1.24.76l0,0c-.55,0-1.18.21-1.4-.58Z"/>
    <path class="b" d="M95.32,31.34c.42,0,.87-.15,1.16.28,0,0-.17.35-.3.37a.67.67,0,0,1-.89-.62Z"/>
    <path class="c" d="M78.88,31.32l1,.13a1.46,1.46,0,0,1-1.22.63.32.32,0,0,1-.27-.43Z"/>
    <path class="b" d="M141.94,12.86c-.15.1-.3.28-.46.31s-.58-.09-.51-.45c0-.09.33-.2.49-.18S141.78,12.75,141.94,12.86Z"/>
    <path class="c" d="M93.9,30.93v0c.54-.13,1.17-.56,1.41.39l0,0Z"/>
    <path class="c" d="M3.9,30.56c.55.2.57.77.82,1.18q-.22.18-.45.39c-.56-.2-.56-.76-.75-1.2l.07-.31Z"/>
    <path class="c" d="M124.53,7.35c0-1,.75-.68,1.31-.65l-.06,0c-.17.73-.75.66-1.29.65Z"/>
    <path class="b" d="M96,7.27c.39.06.84-.07,1.1.35a.62.62,0,0,1-.32.35.7.7,0,0,1-.9-.57Z"/>
    <path class="b" d="M132.88,8.05c-.39-.07-.85,0-1.09-.38,0,0,.19-.33.32-.35a.72.72,0,0,1,.91.57Z"/>
    <path class="b" d="M72.53,28.1c1.14.32.82.85.19,1.42l-.16-.89a.36.36,0,0,1-.11-.39c0-.12.09-.19.14-.19Z"/>
    <path class="b" d="M114.08,17.76c-.54,0-1.13.07-1.27-.68l0,0c.56,0,1.15-.12,1.31.64Z"/>
    <path class="b" d="M65.94,11.25c-.46,0-1,.17-1.16-.47l0-.21.21-.06c.44,0,1-.1,1.07.55Z"/>
    <path class="c" d="M105.68,18.36c.16-.74.7-.75,1.29-.66l0,0c-.16.76-.71.75-1.3.65Z"/>
    <path class="c" d="M75.84,17.7c-.56,0-1.13.07-1.3-.66l-.05.05c.58-.07,1.17-.17,1.32.64Z"/>
    <path class="c" d="M19.32,18.34a2.3,2.3,0,0,1-.5.67.46.46,0,0,1-.69-.27c0-.09.22-.34.37-.36a3.73,3.73,0,0,1,.88,0Z"/>
    <path class="b" d="M114.78,18.35c.55,0,1.14-.12,1.32.63l-.07.07c-.55,0-1.14.1-1.27-.68Z"/>
    <path class="c" d="M12.92,16.61l-.28.68c-.35-.16-1-.2-.89-.63S12.51,16.45,12.92,16.61Z"/>
    <path class="c" d="M74.51,19.65c-.09.81-.67.75-1.25.7l-.06-.06c.2-.74.75-.71,1.33-.62Z"/>
    <path class="c" d="M80.46,15.24a.88.88,0,0,1-.51,1c-.06,0-.32-.23-.35-.38-.09-.53.3-.7.72-.8Z"/>
    <path class="c" d="M73.25,15.74c-.58.08-1.19.23-1.32-.63v0c.57-.07,1.11-.06,1.29.66Z"/>
    <path class="h" d="M194.05,14.38c.5.07,1,.06,1.28.66l-.09.1c-.63.48-1.08.31-1.4-.37Z"/>
    <path class="b" d="M103.77,11.19c.53,0,1.15-.16,1.31.63l-.1.1c-.52,0-1.13.1-1.27-.67Z"/>
    <path class="c" d="M81.69,14.5c-.11.73-.69.7-1.23.74l-.14-.17c.22-.64.73-.7,1.3-.64Z"/>
    <path class="c" d="M26.61,14c-.24.54-.77.59-1.24.74-.11-.14-.23-.27-.35-.4.23-.53.8-.53,1.23-.76A3.62,3.62,0,0,0,26.61,14Z"/>
    <path class="c" d="M71.3,14.45c-.59.09-1.17.18-1.31-.64l0,0c.59-.1,1.14-.11,1.3.65Z"/>
    <path class="h" d="M191.47,13.06c.5.08,1,.09,1.3.65l-.36.33a1,1,0,0,1-1.19-.56Z"/>
    <path class="h" d="M192.77,13.71c.5.08,1,.09,1.28.67l-.12.13c-.72.38-1.22.3-1.33-.62Z"/>
    <path class="c" d="M28.23,12.31c.26-.53.82-.5,1.28-.67l.29.06.05.29c-.23.54-.76.6-1.24.75A5.3,5.3,0,0,0,28.23,12.31Z"/>
    <path class="b" d="M143.87,14.57c-.37-.08-.83,0-1.05-.41,0-.06.19-.32.32-.35a.79.79,0,0,1,.92.58Z"/>
    <path class="b" d="M181.54,11.31c-.24-.11-.67-.23-.4-.53s.48.05.6.33Z"/>
    <path class="c" d="M109,14.45c-.34-.09-.61-.24-.64-.63l0,0c.37.05.66.19.62.64Z"/>
    <path class="c" d="M108.28,16.41c.1.52-.16.7-.63.67l0,0c0-.46.25-.63.67-.63Z"/>
    <path class="c" d="M117.37,10.57a3.57,3.57,0,0,1-.07.56l-.3.07h-.31l0,.05C116.63,10.72,117,10.63,117.37,10.57Z"/>
    <path class="c" d="M14,40.58l-.58-.5.42-.39.56.48C14.27,40.31,14.14,40.45,14,40.58Z"/>
    <path class="c" d="M81.62,14.43c0-.3.12-.51.45-.52.06,0,.2.13.19.18-.05.31-.29.4-.57.41Z"/>
    <path class="b" d="M108.32,13.82c-.42,0-.72-.13-.73-.61l.07-.07c.41.06.66.27.62.72Z"/>
    <path class="c" d="M3.52,30.93l-.47-.66c-.08-.28,0-.39.31-.29l.54.58Z"/>
    <path class="c" d="M70.58,29.9c.06-.3.23-.61.53-.39s.1.49-.23.59h-.21Z"/>
    <path class="c" d="M107.65,17.08c0,.49-.24.64-.66.64l0,0c-.09-.51.21-.65.64-.65Z"/>
    <path class="c" d="M50,13.83l-.54.51c-.46-.58.22-.47.4-.66Z"/>
    <path class="a" d="M3.05,30.27c-.28-.22-.78-.37-.28-.82a6.89,6.89,0,0,1,.59.53L3.11,30Z"/>
    <path class="c" d="M29.51,11.64c.24-.23.5-.68.82-.16.13.21-.2.44-.48.51Z"/>
    <path class="c" d="M53.1,11.87l.26-.5.29.28-.55.22Z"/>
    <path class="c" d="M11.52,32.68l-.47-.3.32-.28.25.47Z"/>
    <path class="c" d="M125.85,6.07a2,2,0,0,0,.65,0c0,.48-.32.61-.72.63l.06,0Z"/>
    <path class="b" d="M112.32,14c-.14.27-.37.62-.64.33s.1-.49.36-.62Z"/>
    <path class="c" d="M97.44,32.16c.09,0,.19,0,.25,0,.22.13.17.29-.14.39,0,0-.17-.12-.22-.21S97.4,32.22,97.44,32.16Z"/>
    <path class="c" d="M113.47,13.21a6,6,0,0,1,.06-.61,1.09,1.09,0,0,1,.62-.06l-.05,0C114.21,13,113.85,13.12,113.47,13.21Z"/>
    <path class="b" d="M146.46,16.06l-.12.23-.35-.24c.08-.07.16-.2.24-.2S146.38,16,146.46,16.06Z"/>
    <path class="b" d="M144.72,15c.25.11.68.24.4.54s-.47-.09-.58-.36Z"/>
    <path class="b" d="M144.06,14.39a.78.78,0,0,1,.66.63l-.18.18a.77.77,0,0,1-.67-.63Z"/>
    <path class="c" d="M8.63,35.24a2.23,2.23,0,0,1,.21.44s-.14.14-.21.21a1.75,1.75,0,0,1-.2-.44C8.42,35.4,8.56,35.31,8.63,35.24Z"/>
    <path class="c" d="M7.23,34.37c.23.19.58.44.29.7S7,35,6.9,34.7Z"/>
    <path class="c" d="M48.13,14.65c.09,0,.18,0,.24,0s.16.28-.13.38c0,0-.17-.11-.21-.2S48.1,14.71,48.13,14.65Z"/>
    <path class="a" d="M85.16,34.86c-.27.19-.56.64-.85.12-.13-.22.2-.44.48-.51C84.92,34.6,85,34.72,85.16,34.86Z"/>
    <path class="c" d="M71.93,15.11c-.45,0-.76-.11-.63-.66l0,0c.43,0,.71.15.66.65Z"/>
    <path class="b" d="M116.78,19.6l.51.3-.31.3-.33-.47Z"/>
    <path class="c" d="M150.45,19.69l.57.17-.28.3-.24-.52Z"/>
    <path class="c" d="M31.46,11.12,31,10.89c.07-.07.16-.21.21-.2a2.14,2.14,0,0,1,.44.2Z"/>
    <path class="b" d="M123.08,24.4c0,.08,0,.18,0,.22s-.32.15-.45-.13c0,0,.14-.16.23-.19S123,24.36,123.08,24.4Z"/>
    <path class="c" d="M67.37,23.53l-.22.51-.24-.32.5-.15Z"/>
    <path class="c" d="M72.45,21a.67.67,0,0,1,.75-.66l.06.06c.06.51-.28.64-.68.71Z"/>
    <path class="b" d="M121.32,22.85l.49.31-.31.3-.31-.48Z"/>
    <path class="b" d="M118.54,20.61l-.12.22-.34-.23c.08-.07.16-.2.24-.2S118.47,20.54,118.54,20.61Z"/>
    <path class="a" d="M68,22.85a2.6,2.6,0,0,0-.11.62l-.27.1-.29,0,0,0C67.28,23,67.55,22.84,68,22.85Z"/>
    <path class="c" d="M18.35,21.12c.06.08.18.16.17.24a.37.37,0,0,1-.17.22C18.09,21.43,18.1,21.27,18.35,21.12Z"/>
    <path class="c" d="M100.48,22.25l-.2.51-.31-.28.52-.22Z"/>
    <path class="h" d="M190.7,13.16c0-.16,0-.33,0-.49.41-.15.63.07.81.39l-.19.22A.45.45,0,0,1,190.7,13.16Z"/>
    <path class="b" d="M119.92,22.3l-.5-.31.32-.3.29.5Z"/>
    <path class="c" d="M100.49,22.26c0-.29.09-.51.42-.52.07,0,.2.15.19.19a.5.5,0,0,1-.62.32Z"/>
    <path class="b" d="M72.58,21.06l-.27.42L72,21.21l.43-.26Z"/>
    <path class="b" d="M50.65,13.31a.59.59,0,0,1-.67.52l-.14-.15c0-.42.27-.51.57-.6Z"/>
    <path class="c" d="M55.07,10.6l.25-.5.26.27-.56.17Z"/>
    <path class="c" d="M70,13.81c-.43,0-.73-.14-.66-.64h0c.43,0,.73.14.63.66Z"/>
    <path class="b" d="M137.41,10.21l-.11.19-.35-.22c.08-.07.17-.2.24-.19S137.33,10.13,137.41,10.21Z"/>
    <path class="c" d="M102.11,21a2,2,0,0,1,.18.4s-.13.12-.2.18a1.59,1.59,0,0,1-.18-.4S102,21,102.11,21Z"/>
    <path class="b" d="M179.74,9.87l.52.3-.32.3-.32-.47Z"/>
    <path class="c" d="M184.27,13.12a4.68,4.68,0,0,1,0-.64c.39.08.74.19.63.71l0,0-.31,0Z"/>
    <path class="a" d="M94,29.44a.48.48,0,0,1,.25-.67s.2.12.21.19c0,.34-.24.42-.53.42Z"/>
    <path class="c" d="M19.25,17.78a.56.56,0,0,1,.79.34l-.72.22.06.06A1,1,0,0,0,19.25,17.78Z"/>
    <path class="c" d="M5.34,28.69c.23.14.48.35.19.58S5.09,29.21,5,29,5.07,28.58,5.34,28.69Z"/>
    <path class="b" d="M114.15,17.68c.4.05.64.24.63.67l0,0c-.4,0-.66-.18-.68-.61Z"/>
    <path class="a" d="M72.59,28.05a.6.6,0,0,0,0,.58c-.18,0-.49-.06-.5-.13C72,28.1,72.27,28,72.59,28.05Z"/>
    <path class="a" d="M4.41,28.1a.9.9,0,0,1,.93.59l-.25,0L5,29c-.38-.17-.71-.36-.57-.87Z"/>
    <path class="b" d="M148.44,17.93l-.21.36c-.07-.06-.2-.14-.18-.18a1.66,1.66,0,0,1,.18-.38Z"/>
    <path class="a" d="M83,28.06a1.82,1.82,0,0,1,0-.57l.22-.24.31.09.36.39Z"/>
    <path class="c" d="M105,19c0-.45.28-.61.7-.6h0c.1.5-.18.66-.62.68Z"/>
    <path class="c" d="M96.06,26.92c-.18.17-.48.51-.51.48-.48-.36-.06-.58.17-.83Z"/>
    <path class="b" d="M149.78,19l-.53-.23.3-.32.28.51Z"/>
    <path class="c" d="M121.91,8.63a3.66,3.66,0,0,1,0-.57,1.11,1.11,0,0,1,.62-.06l0,0C122.68,8.5,122.29,8.56,121.91,8.63Z"/>
    <path class="c" d="M74.53,19.67c0-.29.06-.52.39-.55.06,0,.21.13.2.17-.09.3-.33.37-.61.36Z"/>
    <path class="c" d="M78.26,19.81c-.16-.19-.48-.49-.45-.55.34-.48.59-.06.85.15C78.53,19.55,78.4,19.68,78.26,19.81Z"/>
    <path class="c" d="M90.75,8.62c0,.49-.27.62-.67.63l0,.05c-.12-.53.23-.62.62-.67Z"/>
    <path class="c" d="M105.07,19.05c0,.29-.14.51-.46.51-.06,0-.2-.13-.19-.18,0-.31.28-.41.56-.42Z"/>
    <path class="b" d="M116.65,19.73c-.38-.07-.64-.25-.62-.68l.07-.07a.7.7,0,0,1,.68.62Z"/>
    <path class="c" d="M149.83,19c.39.07.67.24.62.71l.05-.05a.6.6,0,0,1-.72-.62Z"/>
    <path class="c" d="M55,10.54l-.24.5-.27-.26.56-.18Z"/>
    <path class="c" d="M103.73,20c-.07.06-.15.19-.2.18a2,2,0,0,1-.39-.19c.06-.06.14-.18.19-.17A1.59,1.59,0,0,1,103.73,20Z"/>
    <path class="l" d="M29.76,23.63l-1.37.05c-.61-.14-1.43-.09-1.18-1.09s.62-2.05.95-3.07c.57-1.72,1.65-2.28,3.34-1.74,1.33.43,1.86,1.95,1.15,3.51A3.79,3.79,0,0,1,29.76,23.63Z"/>
    <path class="l" d="M83.51,27.34a1,1,0,0,0-.53.15,3.12,3.12,0,0,1-2.53-.79,4.11,4.11,0,0,1,1.1-3.82,1.91,1.91,0,0,1,2.32-.51,1.78,1.78,0,0,1,1,2.13A9,9,0,0,1,83.51,27.34Z"/>
    <path class="m" d="M156.93,21c.16.78.83.55,1.32.67a16.26,16.26,0,0,0,5.54,1.89,3.4,3.4,0,0,1,.77.32c-.31.43-.77.28-1.18.34-.21,0-.42.08-.63.13l-3.14-.05a2.44,2.44,0,0,1-2,0c-.31,0-.63-.09-.94-.11-1.44-.05-3.34-.54-3.33-1.74,0-1.53,2.08-1.11,3.31-1.41A1.61,1.61,0,0,1,156.93,21Z"/>
    <path class="n" d="M157.58,24.29l2,0c-.48.93-1.31.39-2,.46A3.91,3.91,0,0,0,157.58,24.29Z"/>
    <path class="o" d="M190.7,13.16a5.41,5.41,0,0,0,.58.12c.24.64.81.56,1.32.61.23.68.81.58,1.33.62.19.73.79.59,1.31.63.81,1.13,2,1.27,3.26,1.33-.19.65-.71.6-1.23.6l-4,.08.05-.08c-1.27-1.47-3.77-1.19-4.64-3.24C189.09,12.82,190,13.28,190.7,13.16Z"/>
    <path class="p" d="M188.67,13.83c1.52.28,2.62,1.61,4.33,1.55.53,0,.22,1.1.31,1.69a8.16,8.16,0,0,1-4.32-.92C187.8,15.65,187.93,14.72,188.67,13.83Z"/>
    <path class="l" d="M133.62,26.78c.32,1.14,1.26.46,1.92.64.06.69.56.71,1.08.69s.76.13.84.62c-.52,0-1.16-.13-1.27.68-2.94.3-5.77-.6-8.66-.86-.54-.42-1.36-.66-1.07-1.63s1-1,1.73-1,1.44.13,2.16.2C131.25,27.36,132.49,26.74,133.62,26.78Z"/>
    <path class="q" d="M101.91,35.87c-.22-.69-.81-.65-1.36-.7-.83-1.79-.63-2.34,1-2.53a10.39,10.39,0,0,1,1.57.08c.62,1,1.69.33,2.5.63.44,1,1.35.45,2,.62s.85.79.15,1.2c-.34.2-.72.26-.78.72l-2.74.08Z"/>
  </g>
</svg>
