<svg xmlns="http://www.w3.org/2000/svg" viewBox="0 0 83.35 25.51">
  <defs>
    <style>
      .a {
        fill: #723c83;
      }

      .b {
        fill: #29c3ec;
      }

      .c {
        fill: #956daf;
      }

      .d {
        fill: #3f2c7f;
      }

      .e {
        fill: #004b60;
      }

      .f {
        fill: #007dad;
      }

      .g {
        fill: #009a7e;
      }

      .h {
        fill: #cbdd5f;
      }

      .i {
        fill: #00553c;
      }

      .j {
        fill: #c14451;
      }

      .k {
        fill: #f9a134;
      }

      .l {
        fill: #fff;
      }
    </style>
  </defs>
  <title>Asset 1</title>
  <g>
    <polygon class="a" points="7.09 0 0 4.25 7.09 8.5 7.09 0"/>
    <polygon class="b" points="7.09 17.01 0 21.26 7.09 25.51 7.09 17.01"/>
    <polygon class="a" points="7.09 8.51 7.09 8.51 7.09 8.5 7.09 8.51"/>
    <polygon class="c" points="0 4.25 0 12.76 7.09 8.5 0 4.25"/>
    <polygon class="d" points="7.09 8.5 7.09 17.01 0 12.76 7.09 8.5"/>
    <polygon class="b" points="0 12.76 0 21.26 7.09 17.01 0 12.76"/>
    <g>
      <path d="M42.6,6.81h2.94v13H42.6Z"/>
      <path d="M49.92,6.81h8.23V9.29H52.86v3h4.52v2.48H52.86v5.06H49.92v-13Z"/>
      <path d="M61.7,6.81h8.23V9.29H64.64v3h4.53v2.48H64.64v5.06H61.7v-13Z"/>
      <path d="M73.48,6.81h4.76c2.82,0,5.11,1,5.11,4.2S81,15.43,78.24,15.43H76.42v4.42H73.48v-13Zm4.58,6.28c1.62,0,2.4-.72,2.4-2.08s-.84-1.86-2.4-1.86H76.42v3.94Z"/>
    </g>
    <polygon class="a" points="7.09 8.5 14.17 4.25 7.09 0 7.09 8.5"/>
    <polygon class="b" points="7.09 25.51 14.17 21.26 7.09 17.01 7.09 25.51"/>
    <polygon class="e" points="7.09 8.5 7.09 17.01 14.17 12.76 7.09 8.5"/>
    <polygon class="d" points="14.17 12.76 14.17 4.25 7.09 8.5 14.17 12.76"/>
    <polygon class="f" points="14.17 21.26 14.17 12.76 7.09 17.01 14.17 21.26"/>
    <polygon class="g" points="21.26 0 14.17 4.25 21.26 8.5 21.26 0"/>
    <polygon class="g" points="21.26 8.5 28.35 4.25 21.26 0 21.26 8.5"/>
    <polygon class="h" points="21.26 17.01 14.17 21.26 21.26 25.51 21.26 17.01"/>
    <polygon class="h" points="21.26 25.51 28.35 21.26 21.26 17.01 21.26 25.51"/>
    <polygon class="a" points="21.26 8.51 21.27 8.51 21.26 8.5 21.26 8.51"/>
    <polygon class="i" points="14.17 4.25 14.17 12.76 21.26 8.5 14.17 4.25"/>
    <polygon class="j" points="21.26 8.5 21.26 17.01 28.35 12.76 21.26 8.5"/>
    <polygon class="i" points="21.26 8.5 21.26 17.01 14.17 12.76 21.26 8.5"/>
    <polygon class="k" points="28.35 12.76 28.35 4.25 21.26 8.5 28.35 12.76"/>
    <polygon class="f" points="14.17 12.76 14.17 21.26 21.26 17.01 14.17 12.76"/>
    <polygon class="h" points="28.35 21.26 28.35 12.76 21.26 17.01 28.35 21.26"/>
    <polyline class="l" points="26.79 11.49 26.79 14.04 23.81 14.04 23.81 17.02 21.26 17.02 21.26 14.04 18.28 14.04 18.28 11.49 21.26 11.49 21.26 8.51 23.81 8.51 23.81 11.49 26.79 11.49"/>
  </g>
</svg>
