<svg xmlns="http://www.w3.org/2000/svg" viewBox="0 0 96.05 121.56">
  <defs>
    <style>
      .a, .b {
        fill: #ececec;
      }

      .a {
        stroke: #000;
        stroke-miterlimit: 10;
      }

      .c {
        fill: #e1011d;
      }

      .d {
        fill: #fefefe;
      }

      .e {
        fill: #fdfdfd;
      }

      .f {
        fill: #181010;
      }

      .g {
        fill: #e0000d;
      }

      .h {
        fill: #1a0e0e;
      }

      .i {
        fill: #dd041c;
      }

      .j {
        fill: #a20b1b;
      }

      .k {
        fill: #fbfbfb;
      }

      .l {
        fill: #f7f7f7;
      }

      .m {
        fill: #f8f8f8;
      }

      .n {
        fill: #f9f9f9;
      }

      .o {
        fill: #f8f9f9;
      }

      .p {
        fill: #f7f8f8;
      }

      .q {
        fill: #f6f7f7;
      }

      .r {
        fill: #f5f6f6;
      }

      .s {
        fill: #dc041d;
      }

      .t {
        fill: #da051d;
      }

      .u {
        fill: #d9051d;
      }

      .v {
        fill: #eeeff0;
      }

      .w {
        fill: #670a1a;
      }

      .x {
        fill: #151515;
      }

      .y {
        fill: #fafafa;
      }
    </style>
  </defs>
  <title>Asset 2</title>
  <g>
    <path class="a" d="M95.53,59.46c0-18.8,0-39.5,0-58.31,0-.49-.07-.65-.62-.65Q48,.53,1.15.5C.64.5.5.6.5,1.13q0,28.22,0,56.41m0,0c0,4.51,0,10.81,0,15.32A49.81,49.81,0,0,0,1.1,81a46.16,46.16,0,0,0,1.62,6.88,48.79,48.79,0,0,0,3.51,8.26A49.73,49.73,0,0,0,14,106.67a45.13,45.13,0,0,0,4.43,4,44.2,44.2,0,0,0,7.09,4.73,46.79,46.79,0,0,0,12.17,4.56,44.11,44.11,0,0,0,8,1.08,52.18,52.18,0,0,0,5.45-.06,48.33,48.33,0,0,0,6-.77,45.65,45.65,0,0,0,10.62-3.45A49,49,0,0,0,84,104.52,47.14,47.14,0,0,0,94.52,83a48.4,48.4,0,0,0,1-8.8c.09-5,0-10,0-14.95M53.75,102.67a4,4,0,0,1-.11-.44h.52a1.45,1.45,0,0,1-.29.71A2.31,2.31,0,0,1,53.75,102.67Z"/>
    <g>
      <path class="b" d="M78.12,63.65l.16-.07-.16.07a.74.74,0,0,1-.6.22A.74.74,0,0,0,78.12,63.65Z"/>
      <path class="b" d="M73.93,59.66l.47.42,1.34,1.23c.52.56,1,1.15,1.56,1.66-.55-.51-1-1.1-1.56-1.66L74.4,60.08Z"/>
      <path class="b" d="M51.18,106.62l.13.13-.13-.13Z"/>
      <path class="b" d="M79.41,64.15l0,.39,0-.39a.57.57,0,0,0-.47-.66A.57.57,0,0,1,79.41,64.15Z"/>
      <path class="b" d="M40.77,104l1.1-1.72Z"/>
      <path class="b" d="M74.71,58.55l-.21.12h0Z"/>
      <path class="b" d="M12,76a7.56,7.56,0,0,0-3.29,1.54A7.56,7.56,0,0,1,12,76Z"/>
      <path class="b" d="M74.86,58.52h0l.42.53Z"/>
      <path class="b" d="M45.33,73.56l.66-.12.42-.21-.42.21Z"/>
      <path class="b" d="M45.4,73.28a2.86,2.86,0,0,0-.07.28l-.53.61.53-.61A2.86,2.86,0,0,1,45.4,73.28Z"/>
      <path class="b" d="M77.09,65l-.12-.4.12.4c0,.58.27.86.62.8C77.36,65.82,77.14,65.53,77.09,65Z"/>
      <polygon class="b" points="45.39 72.67 45.38 72.68 45.39 72.67 45.39 72.67"/>
      <path class="b" d="M76.43,57.53a9.24,9.24,0,0,1-1.11.73l-.39.25.39-.25A9.24,9.24,0,0,0,76.43,57.53Z"/>
      <path class="b" d="M45.11,74.5c-.12.21-.24.41-.36.63.12-.22.24-.42.36-.63Z"/>
      <path class="c" d="M14.14,58,.5,57.78l13.62.27Z"/>
      <path class="c" d="M28.05,98.24a.8.8,0,0,1,1.16,0c3.24,2.16,6.51,4.27,9.75,6.44.44.3.53.21.8-.22,1.42-2.19,2.9-4.33,4.35-6.5a6.94,6.94,0,0,0,1.25-3.84c0-5.79,0-11.57,0-17.36a4.12,4.12,0,0,0,0-.42c-.22,0-.41,0-.6,0s-.65-.08-1-.12l.39-1.13.33-.54,0,0,.29-.33.53-.61a2.86,2.86,0,0,1,.07-.28c0-.2,0-.4,0-.6l-2.13-.33-.13-.25,1.78-1.66c-.36-.81-.8-1.69-1.12-2.6-.18-.53-.09-1.15-.28-1.68A29.59,29.59,0,0,0,42,62.64,4,4,0,0,1,41.45,60c0-.24,0-.49.07-.86-1.13-.21-2.23-.44-3.33-.6l-1.07,0a7.44,7.44,0,0,0-2,.64.5.5,0,0,0-.28.36c0,.86,0,1.73,0,2.62,4-1.46,4.65,0,5.94,1.36-.69,1-1.89,1-3,1.44,1.88,1.46,3.51,3,3.73,5.65a8.4,8.4,0,0,1-6.47-2.73c.14,1.51.34,2.93.38,4.36a14,14,0,0,1-.4,2.25,1.65,1.65,0,0,0,.07.94c1.1,2.06,1.6,1.94,3.56.79a12.42,12.42,0,0,0,1-.78c-.17.61-.3,1.07-.42,1.53q-.11.44-.18.87c-.08.55.1.82.71.66s1.29-.31,2.06-.49c-.39.81-.7,1.54-1.09,2.24-.27.49-.09.74.34.92.79.34,1.58.66,2.4,1-.69.26-1.37.46-2,.76-.85.41-.84.73,0,1.25l1.83,1.17c-1,0-1.74,0-2.52,0s-.82.22-.56.86.52,1.07.78,1.6c.06.14.1.3.16.49l-3-.89c-.23,1.1-.44,2.13-.64,3.14-.57-.73-1.14-1.48-1.73-2.25-1.05.62-1.23,1.65-1.73,2.57-.34-.83-.61-1.6-1-2.34s-.61-.8-1.29-.28-1.1.93-1.8,1.52c.1-.37.13-.58.2-.77.23-.63.51-1.23.68-1.87s-.12-.94-.7-.88c-.77.07-1.52.26-2.41.42a2.13,2.13,0,0,1,.26-.45c.43-.47.9-.91,1.3-1.41a.59.59,0,0,0-.22-1L27,82.6c.67-.31,1.29-.57,1.89-.88a1,1,0,0,0,.48-1.47c-.34-.7-.7-1.39-1.07-2.12.72.11,1.39.25,2.08.3.93.06,1.16-.27.85-1.16-.15-.42-.34-.82-.49-1.23a2,2,0,0,1-.06-.45l1,.54c-.3-.85-.5-1.55-.79-2.21a4.51,4.51,0,0,1,.22-3c.25-1,.67-2,1-3a2.5,2.5,0,0,0,0-.67c-.69.53-1.33,1.09-2,1.55a6.13,6.13,0,0,1-5.45.45.54.54,0,0,1-.21-.5c.93-1.91,2.24-3.36,4.49-3.66a3.4,3.4,0,0,0,1.18-.46,5.11,5.11,0,0,1-3.33-1.78c-.8.26-1.51.49-2.21.74A2.25,2.25,0,0,0,23,65.13c-.39,1.27-.72,1.41-2,1a.84.84,0,0,0-.64.15A7.18,7.18,0,0,0,18,69.78c-.21.57-.34,1.17-.58,2,.65-.31,1.09-.5,1.49-.73a3.26,3.26,0,0,1,4.25.64c.1.13.23.25.35.38.72.8.71.78-.19,1.37-.71.45-1.38,1-2.14,1.48A8,8,0,0,1,25.28,81c-2.76,0-5.3-.33-7.3-2.61a3.83,3.83,0,0,0,1,2.39,6.18,6.18,0,0,1,1.17,3.16c.08,1.59-.82,2.7-1.72,3.82a8.35,8.35,0,0,0-1.14,1.55,12.28,12.28,0,0,0-.57,2.07,4.48,4.48,0,0,0-.65-.87,20.35,20.35,0,0,0-1.64-1.26,4.56,4.56,0,0,1-1.79-3.43A6.71,6.71,0,0,1,14,80.94a10.59,10.59,0,0,0,.91-1.61,1.07,1.07,0,0,0,.07-.63A10.69,10.69,0,0,1,6.39,82c-.28-1.47.72-3.2,2.3-4.44A7.56,7.56,0,0,1,12,76l-.9-.57c-.84-.33-1.7-.64-2.53-1s-1.4-.68-2.16-1.06a5.72,5.72,0,0,1,4.41-2.62c1.92-.26,3.39.79,5,1.63.13-.68.27-1.34.38-2a10.15,10.15,0,0,1,2.54-5.25,3.23,3.23,0,0,0,.68-1c.42-1.18.95-1.45,2.12-1a.79.79,0,0,0,.68-.08c1.25-1.25,2.48-2.55,3.76-3.88a13,13,0,0,1-1.73-.81l-4.38-.08a1.49,1.49,0,0,1,0,.21A5.5,5.5,0,0,1,18,62.53a9.36,9.36,0,0,1-2.12,1.13c-.86.4-1.75.74-2.73,1.15a8.16,8.16,0,0,1-.34-3.13,5.68,5.68,0,0,1,1.34-3.63L.5,57.78c0,4.5,0,10.81,0,15.32a49.9,49.9,0,0,0,.59,8.09,45.74,45.74,0,0,0,1.62,6.87,48.11,48.11,0,0,0,3.51,8.26A49.79,49.79,0,0,0,14,106.91c.51.54,1,1,1.59,1.55l4-3.28Q23.82,101.72,28.05,98.24Z"/>
      <path class="c" d="M20.33,54.61l-.18.08c-.1,1.14-.22,2.29-.3,3.44l4.29.07A10.14,10.14,0,0,1,20.33,54.61Z"/>
      <path class="c" d="M86.23,59.51A8.22,8.22,0,0,1,86.66,63c0,.65-.17,1.3-.24,1.81-1.29-.5-2.47-.93-3.63-1.42a5,5,0,0,1-3-4l-4.3-.08c0,.31-.07.61-.1.84l.38,1.18c.52.56,1,1.15,1.56,1.66A.88.88,0,0,0,78,63,1.36,1.36,0,0,1,80,64a1.46,1.46,0,0,0,.39.76,9.75,9.75,0,0,1,2.91,5.85c.08.57.23,1.12.36,1.78,2.14-1.51,4.44-2.34,7-1.15A4.82,4.82,0,0,1,93,73.42c-2.27.78-4.11,2.64-6.78,2.08,3.58.83,6.36,2.39,6.92,6.42a8.61,8.61,0,0,1-4.78-.68c-1.41-.66-2.68-1.61-4.15-2.4.51.85,1,1.72,1.52,2.55a6.23,6.23,0,0,1,.52,6.3,6.13,6.13,0,0,1-1.4,1.58c-.76.72-1.56,1.39-2.29,2,.39-1.52-.67-2.58-1.62-3.65-1.13-1.27-2-2.69-1.55-4.39a17.09,17.09,0,0,1,1.48-3.2c.22-.45.46-.89.69-1.34l-.15-.12a1.11,1.11,0,0,0-.43.17c-1.55,1.65-3.57,2-5.7,2.15L75,81c-.79.08-.92,0-.74-.8a8,8,0,0,1,3.23-4.73c.22-.16.44-.3.77-.51-.83-.57-1.56-1.15-2.35-1.61-.61-.35-.56-.64-.16-1.09.89-1,1.84-2,3.34-1.62a15.33,15.33,0,0,1,2.31.94,3.87,3.87,0,0,1,.52.35,8.56,8.56,0,0,0-2.75-5.58,1.08,1.08,0,0,0-.91-.12,1.25,1.25,0,0,1-1.82-.79c-.23-1.38-1.29-1.66-2.34-2-.43-.15-.85-.32-1.34-.5a4.94,4.94,0,0,1-3.56,1.83,8.82,8.82,0,0,0,1.4.46c2.24.33,3.53,1.79,4.47,3.69,0,.1-.12.43-.24.47a6.24,6.24,0,0,1-6.69-1.4l-.69-.63-.24.09c.29.94.54,1.9.88,2.82A5.81,5.81,0,0,1,68.24,75c-.2.43-.5.82-.86,1.42l1.25-.56c-.18.91-.34,1.7-.54,2.72l3.08-.39c-.39.82-.75,1.64-1.16,2.44-.26.49-.09.78.35,1l2.11,1c-.71.38-1.33.7-1.93,1.06s-.76.74-.23,1.34a20.85,20.85,0,0,0,1.55,1.5,3.53,3.53,0,0,1-.67,0,15.27,15.27,0,0,0-1.6-.35c-.87-.08-1.22.4-.94,1.25.12.37.31.73.42,1.11a4.07,4.07,0,0,1,.07.79h0l0,0,0,0h0c-.48-.38-.94-.77-1.44-1.13-.75-.54-1.1-.47-1.35.27s-.6,1.5-.9,2.26c-.48-.83-1-1.66-1.51-2.65-.49.54-.84.88-1.14,1.26s-.51.78-.81,1.25c-.23-1.1-.44-2.14-.67-3.23l-3,.86c.27-.53.52-1,.75-1.5a3.52,3.52,0,0,0,.22-.62c.13-.55,0-.87-.66-.84s-1.53,0-2.51,0c.78-.47,1.41-.81,2-1.21.77-.52.74-.82-.12-1.21-.62-.27-1.27-.49-2-.74l2.38-1c.44-.19.6-.44.33-.92-.38-.68-.7-1.4-1.1-2.22.73.17,1.33.36,1.94.45.84.11,1-.15.8-1-.16-.59-.33-1.17-.53-1.87.74.43,1.38.82,2,1.17a1.37,1.37,0,0,0,1.94-.44,2.38,2.38,0,0,0,.47-2.61,7.21,7.21,0,0,1,0-4c.1-.52.1-1.06.16-1.78a8.6,8.6,0,0,1-6.47,2.7c.24-2.59,1.81-4.19,3.73-5.62l-3-1a14.69,14.69,0,0,0-.3,2,1.84,1.84,0,0,1-.8,1.48,25.76,25.76,0,0,0-2.47,2.43c-.35.38-.49.81.17,1.18a6.85,6.85,0,0,1,1.16,1.18l-2.16.56c.16.47.32.93.47,1.39l1.33,2.12H54.44a4.42,4.42,0,0,0-.08.54c0,4.91-.06,9.82.09,14.73a13.71,13.71,0,0,0,3.14,8.22c1,1.27,2,2.59,2.95,3.89a5.05,5.05,0,0,1,.36.71c.46-.3.91-.58,1.35-.88,2.73-1.81,5.46-3.63,8.21-5.41a1,1,0,0,1,.89.13c1.64,1.28,3.24,2.6,4.84,3.91L82,106.89c.68-.68,1.35-1.39,2-2.13A47.18,47.18,0,0,0,94.52,83.24a48.29,48.29,0,0,0,1-8.79c.09-5,0-10,0-15h0v.19Z"/>
      <path class="c" d="M75.49,59v.17l4.25.07a.59.59,0,0,1,0-.13c-.19-1.26-.22-2.54-.33-3.81a6,6,0,0,0-.15-.76,12.14,12.14,0,0,1-2.8,3,9.24,9.24,0,0,1-1.11.73l-.39.25h-.07l.42.53Z"/>
      <path class="c" d="M37.12,58.51l1.07,0-.18,0A3.32,3.32,0,0,0,37.12,58.51Z"/>
      <path class="c" d="M19.85,58.13v0l4.38.08-.08,0Z"/>
      <path class="c" d="M86.23,59.51l9.3.18V59.5l-9.38-.17A1.42,1.42,0,0,0,86.23,59.51Z"/>
      <path class="c" d="M.5,57.78,14.14,58a9.15,9.15,0,0,1,2.2-1.86A8.07,8.07,0,0,0,17.8,54.7a1.91,1.91,0,0,0,.25-.56l-.14-.22c-.78.26-1.57.49-2.32.79a6.9,6.9,0,0,1-6.6-.8,5.8,5.8,0,0,1,3.35-2.23,30.72,30.72,0,0,1,4.13-.56,16.5,16.5,0,0,1-2.28-1,7.11,7.11,0,0,1-1.69-1.5c-.58-.71-.26-1.26.61-1.48a6.57,6.57,0,0,1,4.46.18,5.81,5.81,0,0,1,2.5,2.15c.22.33.38.45.77.26,3-1.47,5.22-.53,7.07,2.14.27.38.42.83.68,1.22a.87.87,0,0,0,.55.38,16.53,16.53,0,0,1,6.06,1.48,23.07,23.07,0,0,1-1.07-2.69A7,7,0,0,1,34,50a1,1,0,0,1,.74-.66,1.37,1.37,0,0,1,1,.6c.86,1.58,1.64,3.21,2.46,4.81a1.26,1.26,0,0,0,.27.35,21.35,21.35,0,0,1,3-1.74,17.19,17.19,0,0,1,3-.49A4.36,4.36,0,0,0,46,52.21C43.21,52,41.5,50,39.42,48.47a5.7,5.7,0,0,1,4.76-1.34,8.16,8.16,0,0,1,4.55,2.13c0-.68,0-1.2,0-1.71a1.66,1.66,0,0,1,.25-.9,1.19,1.19,0,0,1,.83-.43.91.91,0,0,1,.67.53A19.68,19.68,0,0,1,50.87,49c3-2,6-2.86,9.22-.59C58,49.94,56.28,52,53.45,52c0,.1,0,.21,0,.31a15.84,15.84,0,0,0,1.58.48c1,.21,2.06.32,3.08.53a5.38,5.38,0,0,1,3.09,2.34,7.83,7.83,0,0,0,3-3.55,12.93,12.93,0,0,0,.42-2.41c.06-.53,0-1.08.75-1.13S67,49,67,49.62s0,1.48,0,2.1c1.56-.24,3.08-.45,4.59-.7a1.62,1.62,0,0,0,.83-.37A4.85,4.85,0,0,1,75.71,49a8.63,8.63,0,0,1,2.78.64c.46.16.62.19.93-.27A5.68,5.68,0,0,1,85.67,47a3.74,3.74,0,0,0,.67.1c1.14.14,1,.93.62,1.53A6,6,0,0,1,84,50.7l-1.19.41c1.36.17,2.73.26,4.06.53a6.3,6.3,0,0,1,3.53,2.16c-3,2.33-5.91,1.32-8.89.05a1.63,1.63,0,0,0,.76,1.68c.59.51,1.25,1,1.89,1.41a5.53,5.53,0,0,1,2,2.39l9.38.17c0-5.79,0-11.77,0-17.81H.5C.5,47.05.51,52.41.5,57.78Z"/>
      <path class="c" d="M75.48,59.14l0,.15,4.3.08,0-.16Z"/>
      <path class="d" d="M95.54,1.39c0-.49-.07-.65-.62-.65Q48,.76,1.15.74C.64.74.5.84.5,1.37q0,20,0,40h95C95.52,27.94,95.53,14.23,95.54,1.39Z"/>
      <path class="e" d="M53.75,102.9a2.29,2.29,0,0,0,.12.28,1.53,1.53,0,0,0,.29-.72h-.52A3.54,3.54,0,0,0,53.75,102.9Z"/>
      <path class="e" d="M67.72,117c.59-.28,1.17-.59,1.75-.89-3-3-6.09-6-9.16-9l-.67.57a2.73,2.73,0,0,0-1.06-2.27c-1.7-1.62-3.42-3.22-5.14-4.83a.93.93,0,0,0-.3-.23c-.25-.08-.51-.14-.77-.2a2.68,2.68,0,0,0-.22.93,10,10,0,0,0,.38,1.37c.71,2.63-.32,4.66-2.32,6.55.13-.83.25-1.5.35-2.16a5.55,5.55,0,0,0-.42-3.16c-.55-1.24-1.09-2.49-1.66-3.81a30,30,0,0,0-6.63,4.56q-6.51,6.45-13,12.87a46.08,46.08,0,0,0,8.86,3c1.17.26,2.36.48,3.54.65H54.58c.84-.12,1.69-.24,2.52-.4A45.65,45.65,0,0,0,67.72,117ZM53.87,103.18a2.29,2.29,0,0,1-.12-.28,3.54,3.54,0,0,1-.11-.44h.52A1.53,1.53,0,0,1,53.87,103.18Z"/>
      <path class="e" d="M70.86,98.55,64.16,103a25,25,0,0,1-2.33,1.51,2,2,0,0,0-1.12,1.77,1,1,0,0,0,.32.66l9,8.89a46.44,46.44,0,0,0,8.86-6c.93-.81,1.84-1.64,2.72-2.5-.76-.6-1.52-1.2-2.27-1.81C76.51,103.18,73.71,100.88,70.86,98.55Z"/>
      <path class="e" d="M39.24,105.58l-10.64-7-10.77,8.83L16,108.86c.78.69,1.58,1.36,2.39,2a44.14,44.14,0,0,0,7.09,4.72c.9.49,1.81.94,2.73,1.37,3.36-3.33,6.74-6.64,10.09-10A7.8,7.8,0,0,0,39.24,105.58Z"/>
      <path class="f" d="M76.19,102.14c-1.6-1.31-3.2-2.63-4.84-3.91a1,1,0,0,0-.89-.13c-2.75,1.78-5.48,3.6-8.21,5.41-.44.3-.89.58-1.35.88a5.05,5.05,0,0,0-.36-.71c-1-1.3-1.94-2.62-2.95-3.89a13.71,13.71,0,0,1-3.14-8.22c-.15-4.91-.08-9.82-.09-14.73a4.42,4.42,0,0,1,.08-.54h1.61l-1.33-2.12h-.63c.33.51.66,1,1.08,1.65a4.87,4.87,0,0,1-3.36-1.31.58.58,0,0,0-.49-.15c-.11,0-.16.29-.21.46a1.17,1.17,0,0,0,0,.37,5.17,5.17,0,0,1-1.4,4.33,5.36,5.36,0,0,1-1.39-4.73c0-.14-.07-.4-.16-.42a.6.6,0,0,0-.5.12,5,5,0,0,1-3.34,1.33l.41-.71c.12-.22.24-.42.36-.63h-.6l0,0-.33.54-.39,1.13c.32,0,.64.09,1,.12s.38,0,.6,0a4.12,4.12,0,0,1,0,.42c0,5.79,0,11.57,0,17.36A6.94,6.94,0,0,1,44.11,98c-1.45,2.17-2.93,4.31-4.35,6.5-.27.43-.36.52-.8.22-3.24-2.17-6.51-4.28-9.75-6.44a.8.8,0,0,0-1.16,0q-4.23,3.48-8.48,6.94l-4,3.28.45.4,1.81-1.48L28.6,98.55l10.64,7a7.8,7.8,0,0,1-.92,1.41c-3.35,3.34-6.73,6.65-10.09,10l.58.25q6.52-6.43,13-12.87a30,30,0,0,1,6.63-4.56c.57,1.32,1.11,2.57,1.66,3.81a5.55,5.55,0,0,1,.42,3.16c-.1.66-.22,1.33-.35,2.16,2-1.89,3-3.92,2.32-6.55a10,10,0,0,1-.38-1.37,2.68,2.68,0,0,1,.22-.93c.26.06.52.12.77.2a.93.93,0,0,1,.3.23c1.72,1.61,3.44,3.21,5.14,4.83a2.73,2.73,0,0,1,1.06,2.27l.67-.57c3.07,3,6.12,6,9.16,9l.55-.28-9-8.89a1,1,0,0,1-.32-.66,2,2,0,0,1,1.12-1.77A25,25,0,0,0,64.16,103l6.7-4.42c2.85,2.33,5.65,4.63,8.47,6.92.75.61,1.51,1.21,2.27,1.81l.38-.39Zm-16.14,4.09c-1.47-2.18-3.57-3.65-5.41-5.4a8.42,8.42,0,0,0-1.37-1.16,1.26,1.26,0,0,0-1.06-.16,1.75,1.75,0,0,0-.68,1.13,3.61,3.61,0,0,0,.32,1.44,5.13,5.13,0,0,1-.54,4.67l-.16.07,0-.2h0a7,7,0,0,0,0-1,6.74,6.74,0,0,0-.84-2.87,8.78,8.78,0,0,1-1.19-5.53c-.58,0-.58,0-.66,1.93a34.24,34.24,0,0,0-7.93,5.46l-.25.15,0-.08.18-.18h0c.11-.16.21-.32.31-.48l1.1-1.72c.39-.61.78-1.22,1.19-1.82.3-.43.6-.87.92-1.29a9.5,9.5,0,0,0,2-6v-17l1.73-.85v.81a4.49,4.49,0,0,0,.82,2.68,20.5,20.5,0,0,1,1.26,2.31c.51-2,2.53-3.4,1.83-5.81a18.65,18.65,0,0,1,1.86.82c.15.09.21.46.21.71,0,4.21,0,8.42,0,12.62a16.3,16.3,0,0,0,1.95,8.39c.85,1.43,1.94,2.72,2.93,4.07.45.63.95,1.23,1.37,1.88A2.32,2.32,0,0,1,60.05,106.23Z"/>
      <path class="f" d="M43.77,76.21l.39-1.13.33-.54-.33.54Z"/>
      <path class="f" d="M82,106.89h0l-5.79-4.75Z"/>
      <polygon class="f" points="44.49 74.54 44.51 74.5 44.51 74.5 44.49 74.54"/>
      <path class="g" d="M95.52,41.69v-.35H.5v.35Z"/>
      <path class="h" d="M48.06,58c-.19.13-.44.22-.56.4s-.12.15-.17.23h.77A4.68,4.68,0,0,0,48.06,58Z"/>
      <path class="h" d="M32.28,58.35l0,.07H33L33,58.36Z"/>
      <path class="h" d="M29.65,58.3l-.07.06.74,0,.07-.06Z"/>
      <path class="h" d="M28,58.33l.06,0-.9,0-.07.05Z"/>
      <path class="h" d="M35.45,58.4h0l6.06.11c-1.48-.23-2.91-.45-4.32-.58A4.21,4.21,0,0,0,35.45,58.4Z"/>
      <path class="h" d="M33,58.43h-.7c.17.22.34.43.5.65a1,1,0,0,1,.22.43c0,.67,0,1.34,0,2.2-1.75-.94-3.42-1.66-5.29-.78l-.16-.19,2.71-2.35-.74,0a21.72,21.72,0,0,0-2.9,2.85,4.36,4.36,0,0,1-2.36,1.9,2.47,2.47,0,0,0-1.94,2.08.59.59,0,0,1-1,.41c-.61-.45-1-.23-1.52.2a10.23,10.23,0,0,0-3.05,6.36,1.37,1.37,0,0,1-.25.63,10.53,10.53,0,0,1,2.87-7.62,2.43,2.43,0,0,0,.53-1,.85.85,0,0,1,1.33-.53c.55.44.89.28,1.33-.17A68.22,68.22,0,0,1,28,58.33l-.91,0-.81.67-.08-.69-2,0a13,13,0,0,0,1.73.81c-1.28,1.33-2.51,2.63-3.76,3.88a.79.79,0,0,1-.68.08c-1.17-.41-1.7-.14-2.12,1a3.23,3.23,0,0,1-.68,1,10.15,10.15,0,0,0-2.54,5.25c-.11.67-.25,1.33-.38,2-1.6-.84-3.07-1.89-5-1.63a5.72,5.72,0,0,0-4.41,2.62c.76.38,1.45.75,2.16,1.06s1.69.67,2.53,1h2.29l.05.16L12,76a7.56,7.56,0,0,0-3.29,1.54c-1.58,1.24-2.58,3-2.3,4.44a10.69,10.69,0,0,0,8.55-3.26,1.07,1.07,0,0,1-.07.63A10.59,10.59,0,0,1,14,80.94a6.71,6.71,0,0,0-1.35,4.84,4.56,4.56,0,0,0,1.79,3.43A20.35,20.35,0,0,1,16,90.47a4.48,4.48,0,0,1,.65.87,12.28,12.28,0,0,1,.57-2.07,8.35,8.35,0,0,1,1.14-1.55c.9-1.12,1.8-2.23,1.72-3.82A6.18,6.18,0,0,0,19,80.74a3.83,3.83,0,0,1-1-2.39c2,2.28,4.54,2.58,7.3,2.61a8,8,0,0,0-4.1-6.06c.76-.53,1.43-1,2.14-1.48.9-.59.91-.57.19-1.37-.12-.13-.25-.25-.35-.38A3.26,3.26,0,0,0,18.91,71c-.4.23-.84.42-1.49.73.24-.81.37-1.41.58-2a7.18,7.18,0,0,1,2.34-3.53A.84.84,0,0,1,21,66.1c1.32.44,1.65.3,2-1a2.25,2.25,0,0,1,1.5-1.48c.7-.25,1.41-.48,2.21-.74a5.11,5.11,0,0,0,3.33,1.78,3.4,3.4,0,0,1-1.18.46c-2.25.3-3.56,1.75-4.49,3.66a.54.54,0,0,0,.21.5,6.13,6.13,0,0,0,5.45-.45c.71-.46,1.35-1,2-1.55a2.5,2.5,0,0,1,0,.67c-.32,1-.74,1.94-1,3a4.51,4.51,0,0,0-.22,3c.29.66.49,1.36.79,2.21l-1-.54a2,2,0,0,0,.06.45c.15.41.34.81.49,1.23.31.89.08,1.22-.85,1.16-.69-.05-1.36-.19-2.08-.3.37.73.73,1.42,1.07,2.12a1,1,0,0,1-.48,1.47c-.6.31-1.22.57-1.89.88l2.14,1.19a.59.59,0,0,1,.22,1c-.4.5-.87.94-1.3,1.41a2.13,2.13,0,0,0-.26.45c.89-.16,1.64-.35,2.41-.42.58-.06.84.35.7.88s-.45,1.24-.68,1.87c-.07.19-.1.4-.2.77.7-.59,1.23-1.08,1.8-1.52s.93-.48,1.29.28.62,1.51,1,2.34c.5-.92.68-2,1.73-2.57.59.77,1.16,1.52,1.73,2.25.2-1,.41-2,.64-3.14l3,.89c-.06-.19-.1-.35-.16-.49-.26-.53-.55-1-.78-1.6s-.13-.84.56-.86,1.56,0,2.52,0l-1.83-1.17c-.82-.52-.83-.84,0-1.25.63-.3,1.31-.5,2-.76-.82-.34-1.61-.66-2.4-1-.43-.18-.61-.43-.34-.92.39-.7.7-1.43,1.09-2.24-.77.18-1.42.32-2.06.49s-.79-.11-.71-.66q.07-.44.18-.87c.12-.46.25-.92.42-1.53a12.42,12.42,0,0,1-1,.78c-2,1.15-2.46,1.27-3.56-.79a1.65,1.65,0,0,1-.07-.94,14,14,0,0,0,.4-2.25c0-1.43-.24-2.85-.38-4.36a8.4,8.4,0,0,0,6.47,2.73c-.22-2.63-1.85-4.19-3.73-5.65,1.1-.4,2.3-.4,3-1.44-1.29-1.4-2-2.82-5.94-1.36,0-.89,0-1.76,0-2.62a.5.5,0,0,1,.28-.36,7.44,7.44,0,0,1,2-.64l-1.9,0C34.21,58.83,33.5,58.83,33,58.43ZM18.89,71.73c1.78-1.09,2.94-.81,4.42,1-.76.51-1.5,1-2.3,1.49-.29.17-.73.07-1.09.13a2.74,2.74,0,0,0-.54.21c.14.14.25.33.42.4a7.5,7.5,0,0,1,3.54,2.68c.54.82.92,1.74,1.43,2.72-3.43.06-6-1.09-7.59-4.26a6.58,6.58,0,0,0,.57,3.83c.31.59.7,1.15,1.06,1.72a4.07,4.07,0,0,1-.25,4.95c-.42.53-.86,1.05-1.26,1.59s-.71,1.07-1.07,1.62l-.72-.51a5.2,5.2,0,0,1-1.57-7.17,3.64,3.64,0,0,1,.31-.51,7.11,7.11,0,0,0,1.56-5.48A9.34,9.34,0,0,1,7,81.38a5.62,5.62,0,0,1,3.12-4.11c.91-.4,1.89-.64,2.84-1a3.62,3.62,0,0,0,2.48-1.89,3.12,3.12,0,0,0,.05-.32c-3,1.62-5.6.65-8.07-1.08,2.37-2.42,5.36-2.41,9,.64A26.41,26.41,0,0,1,18.89,71.73Zm17.45,5.79a5.4,5.4,0,0,0,2.14-.35c.06.47-.08,1.28.26,1.64s1.16.25,1.75.35c-.14.49-.57,1.2-.41,1.73s.92.87,1.37,1.25c-.32.28-1,.6-1.11,1.08s.31,1,.5,1.45c-1.54.29-1.65.56-1,2.45-.66,0-1.47-.32-2,0s-.6,1.11-.86,1.68c-1.61-1.35-1.82-1.33-2.93.38a9.73,9.73,0,0,0-1-1.62c-.55-.61-1.14-.12-1.65.14-.1-.54,0-1.21-.34-1.58s-1-.44-1.35-.59c.05-.49.35-1.19.14-1.66S29,83,28.5,82.64c1.89-1.26,1.89-1.26,1-3.59,2.44,0,2.49-.06,2.4-1.68.58.08,1.28.39,1.77.19s.76-.9,1.09-1.34C35.19,76.62,35.69,77.36,36.34,77.52Zm-4.21-1.39c.56.72,1.11,1.07,1.69.16.06.57-.12.84-.52.89A1,1,0,0,1,32.13,76.13ZM40,63.4c-.8.78-1.62.89-4.23.51a4,4,0,0,0,.51.75,38.27,38.27,0,0,1,3.18,2.6,9.25,9.25,0,0,1,1.53,2.61c-3.3-.22-5.64-1.6-6.48-5l-.27.1c.15,1.54.23,3.09.46,4.62.27,1.71.47,3.39-.38,5-.32.61-.73,1.17-1.1,1.76a4.26,4.26,0,0,1-1.52-5.15,15.38,15.38,0,0,0,1.19-5.83v-.48C31,68,28.75,69.84,25,68.86a5.18,5.18,0,0,1,3.9-3.11,4.74,4.74,0,0,0,2.86-1.52,3.5,3.5,0,0,0,.34-.82c-2.14.74-3.85.68-5.09-1.15,1.36-1.77,3.71-1.54,6.58.69V59.41c.46-.17.67-.11.66.37,0,1.1,0,2.2,0,3.38C36.19,62.25,38.16,61.19,40,63.4Z"/>
      <path class="h" d="M41.49,58.52l-6.06-.11-.21.07,1.9,0a3.32,3.32,0,0,1,.89,0l.18,0,3.94.08Z"/>
      <path class="h" d="M73.45,59.25l-.18-.15-1.24,0,.17.15Z"/>
      <path class="h" d="M31.5,57.35l.78,1H33a3.23,3.23,0,0,1-.72-2,6.64,6.64,0,0,0-1.09.63c-.49.44-1,.87-1.49,1.3l.74,0Z"/>
      <path class="h" d="M26.19,58.24l-2.05,0,.08,0,2,0Z"/>
      <path class="h" d="M48.09,58.71s0-.05,0-.07h-.77l-.07.09.83,0Z"/>
      <path class="h" d="M51.71,58c-.57,0-.5.27-.39.67a.64.64,0,0,1,0,.07h.87A5.75,5.75,0,0,1,51.71,58Z"/>
      <path class="h" d="M14.94,58.07l0,0-.83,0,0,0Z"/>
      <path class="h" d="M52.29,58.82a.76.76,0,0,1-.08-.11h-.87l0,.1Z"/>
      <path class="h" d="M16,57.14A12.76,12.76,0,0,0,18.3,55a1.33,1.33,0,0,0,.13-1.26c-.2-.26-.85-.3-1.26-.23a9.78,9.78,0,0,0-1.69.61,6.35,6.35,0,0,1-5.59-.41A7.18,7.18,0,0,1,14,51.91c1.15-.12,2.3-.15,3.44-.29A6,6,0,0,0,18.82,51c-1.33-.39-2.42-.66-3.48-1a4.11,4.11,0,0,1-2.54-2.06c2.84-1.36,5.6-.26,7.39,2.9,3-2.32,6.06-1.16,7.62,2.11a5.86,5.86,0,0,1-4.2-1,.83.83,0,0,0-.69,0,8,8,0,0,1,2.6,6.17,9.36,9.36,0,0,1-5-4.47,1.47,1.47,0,0,0-1,1.4c-.1,1-.17,2-.25,3h.6c.08-1.15.2-2.3.3-3.44l.18-.08a10.14,10.14,0,0,0,3.81,3.59l2.05,0c-.14-1.11-.27-2.16-.41-3.34l4.52.48a2.45,2.45,0,0,1,0,.27l-3.16,2.61.9,0a44.34,44.34,0,0,1,3.59-2.76c-2-1.17-4.12-1-6.22-1.11a14.54,14.54,0,0,1,5.69-.09c1.87.42,3.67,1.1,5.46,1.65,0,0-.13-.21-.21-.39q-.94-2.11-1.86-4.23a.61.61,0,0,1-.06-.37c.1-.38.24-.75.37-1.12a7.27,7.27,0,0,1,.59.86c.69,1.3,1.29,2.65,2,3.92.43.75,1.17,1.36.28,2.33.48.1.82.18,1.16.23,1.4.21,2.8.43,4.21.61a2.08,2.08,0,0,0,.84-.15,5.36,5.36,0,0,1,1-.31c-.39.4-.79.79-1.15,1.21l.82,0a6,6,0,0,1,.78-.63,7.88,7.88,0,0,0,3.12-4.19c0-.09,0-.19.09-.45a10,10,0,0,1-5.64,3.2,24.12,24.12,0,0,1-4.26.15,4.45,4.45,0,0,1,3.6-2.95c1.18-.2,2.38-.36,3.53-.66a3.08,3.08,0,0,0,2.08-1.63c-3.12.48-5.37-1-7.36-3,2.44-1.66,6.29-.63,8.83,2.44.27-1.4-.3-2.83.39-4.15.64,1.3.13,2.69.36,4.09C52.5,48,55.38,46.93,59,48.28c-1.34,2-3.9,3.12-7.4,3.37a5.39,5.39,0,0,0,1.33,1.05,15.29,15.29,0,0,0,3.38.88,5.24,5.24,0,0,1,4.36,2.52c.07.12.12.26.21.45a11.38,11.38,0,0,1-5.29-.26A13.56,13.56,0,0,1,51,53.67a7.34,7.34,0,0,0,3,4.22,7.31,7.31,0,0,1,1,.88h.76c-.9-1.08-2.17-1.79-3-2.91a13.75,13.75,0,0,0,6.8,1.45l-1.36,1.5.82,0c.14-.18.28-.35.43-.52.55-.65,1.08-1.35,2.16-1.27-.45-.9.25-1.17.7-1.53A6.78,6.78,0,0,0,65,51.33c.13-.69.17-1.39.24-2.08.85-.12,1.32.19,1.29,1a14.73,14.73,0,0,1-.31,1.84,5.68,5.68,0,0,0,0,.59,2.9,2.9,0,0,0,.59,0l4.69-1.2.18.37a8,8,0,0,1-1.09.85c-.82.47-1.71.83-2.52,1.32s-.89,1-.06,1.71c1.35,1.11,2.68,2.25,4,3.37l1.24,0c-.77-.67-1.54-1.34-2.34-2S69.35,56,68.56,55.35c-.21-.15-.39-.35-.66-.59,1.06-.53,1.9-1.56,3.1-1.3a7.44,7.44,0,0,0,3.69-.22,8.29,8.29,0,0,0-1.24,5.63l1-.2.21-.12.15,0h.07l.39-.25a9.24,9.24,0,0,0,1.11-.73,12.14,12.14,0,0,0,2.8-3,6,6,0,0,1,.15.76c.11,1.27.14,2.55.33,3.81a.59.59,0,0,0,0,.13l.65,0c-.21-1.29-.25-2.61-.39-3.92a1.61,1.61,0,0,0-1-1.59,9.46,9.46,0,0,1-5,4.46,7.35,7.35,0,0,1,2.59-6c-.17-.51-.4-.39-.73-.18a5.73,5.73,0,0,1-4.14,1c1.45-3.27,4.56-4.45,7.61-2.12,1.64-3.11,4.51-4.26,7.41-2.89-1.35,2.18-3.67,2.39-6,3a5.79,5.79,0,0,0,1.33.62c1,.14,1.94.19,2.91.24a7.65,7.65,0,0,1,4.7,1.89,6.44,6.44,0,0,1-5.63.4,10.27,10.27,0,0,0-1.76-.63,1.43,1.43,0,0,0-1.18.27A1.29,1.29,0,0,0,81.13,55a9.66,9.66,0,0,0,2.16,2,5.74,5.74,0,0,1,2.18,2.3h.68a5.53,5.53,0,0,0-2-2.39c-.64-.45-1.3-.9-1.89-1.41a1.63,1.63,0,0,1-.76-1.68c3,1.27,5.94,2.28,8.89-.05a6.3,6.3,0,0,0-3.53-2.16c-1.33-.27-2.7-.36-4.06-.53L84,50.7A6,6,0,0,0,87,48.65c.42-.6.52-1.39-.62-1.53a3.74,3.74,0,0,1-.67-.1,5.68,5.68,0,0,0-6.25,2.37c-.31.46-.47.43-.93.27A8.63,8.63,0,0,0,75.71,49a4.85,4.85,0,0,0-3.25,1.63,1.62,1.62,0,0,1-.83.37c-1.51.25-3,.46-4.59.7,0-.62.06-1.36,0-2.1s-.83-1.08-1.66-1-.69.6-.75,1.13a12.93,12.93,0,0,1-.42,2.41,7.83,7.83,0,0,1-3,3.55,5.38,5.38,0,0,0-3.09-2.34c-1-.21-2.06-.32-3.08-.53a15.84,15.84,0,0,1-1.58-.48c0-.1,0-.21,0-.31,2.83,0,4.51-2.09,6.64-3.61-3.27-2.27-6.27-1.41-9.22.59a19.68,19.68,0,0,0-.38-2.26.91.91,0,0,0-.67-.53,1.19,1.19,0,0,0-.83.43,1.66,1.66,0,0,0-.25.9c0,.51,0,1,0,1.71a8.16,8.16,0,0,0-4.55-2.13,5.7,5.7,0,0,0-4.76,1.34C41.5,50,43.21,52,46,52.21a4.36,4.36,0,0,1-1.55.61,17.19,17.19,0,0,0-3,.49,21.35,21.35,0,0,0-3,1.74,1.26,1.26,0,0,1-.27-.35c-.82-1.6-1.6-3.23-2.46-4.81a1.37,1.37,0,0,0-1-.6A1,1,0,0,0,34,50a7,7,0,0,0,.13,2.29,23.07,23.07,0,0,0,1.07,2.69,16.53,16.53,0,0,0-6.06-1.48.87.87,0,0,1-.55-.38c-.26-.39-.41-.84-.68-1.22-1.85-2.67-4.07-3.61-7.07-2.14-.39.19-.55.07-.77-.26a5.81,5.81,0,0,0-2.5-2.15,6.57,6.57,0,0,0-4.46-.18c-.87.22-1.19.77-.61,1.48a7.11,7.11,0,0,0,1.69,1.5,16.5,16.5,0,0,0,2.28,1,30.72,30.72,0,0,0-4.13.56A5.8,5.8,0,0,0,9,53.91a6.9,6.9,0,0,0,6.6.8c.75-.3,1.54-.53,2.32-.79l.14.22a1.91,1.91,0,0,1-.25.56,8.07,8.07,0,0,1-1.46,1.46A9.15,9.15,0,0,0,14.14,58L15,58A6.39,6.39,0,0,1,16,57.14Z"/>
      <path class="h" d="M85.56,59.49l.67,0a1.42,1.42,0,0,1-.08-.18h-.68Z"/>
      <path class="h" d="M86.07,63.2c0,.23-.07.45-.1.64-.74-.24-1.41-.5-2.11-.69a4.42,4.42,0,0,1-3.44-3.66s0-.07,0-.1l-.64,0a5,5,0,0,0,3,4c1.16.49,2.34.92,3.63,1.42.07-.51.2-1.16.24-1.81a8.22,8.22,0,0,0-.43-3.47l-.67,0A7.28,7.28,0,0,1,86.07,63.2Z"/>
      <path class="h" d="M55.93,58.89l-.1-.11h-.76l.11.11Z"/>
      <path class="h" d="M70.84,59.05H69.9l.15.14.94,0a1.14,1.14,0,0,0-.11-.11S70.85,59.07,70.84,59.05Z"/>
      <path class="h" d="M47.19,59.73c0,1,0,1.79,0,2.62a8.17,8.17,0,0,0,1.39,4.07c.43.67.8,1.4,1.2,2.11A42.37,42.37,0,0,0,52,63.7a17.51,17.51,0,0,0,.36-3.89,9,9,0,0,1,2.31,4.6,1.5,1.5,0,0,1,.17-.49c1.36-1.66,2.74-3.31,4.12-5h-.82l-1.38,1.52a4.43,4.43,0,0,0-.82-1.57h-.75a4.12,4.12,0,0,1,1,1.93,5.33,5.33,0,0,1-3.94-2l-.92,0a9,9,0,0,1-.3,6A22.37,22.37,0,0,1,49.79,67a8.79,8.79,0,0,1-1.7-8.3l-.83,0a5.47,5.47,0,0,1-4,2.1,4,4,0,0,1,1.25-2.16h-.8a3.83,3.83,0,0,0-1,2.74A6.29,6.29,0,0,0,47.19,59.73ZM56,61.41l-1.14,1.44-1-1.9Z"/>
      <path class="h" d="M64.57,58.94v.13h.68V59Z"/>
      <path class="h" d="M61.76,58.89l-.13.12h.59l.13-.12Z"/>
      <path class="h" d="M59,59l.1-.11-.82,0-.1.12Z"/>
      <path class="h" d="M64.57,57.21v1.73h.68c0-.6,0-1.21,0-1.81,0-.21.19-.43.29-.64l.28.1V59h.66V56.7A10.46,10.46,0,0,1,69.9,59h.94c-.6-.57-1.25-1.09-1.87-1.63l-.3-.22c-.34-.21-.68-.42-1-.61-1.28-.72-2.5-1-3.69.25-.71.7-1.46,1.37-2.2,2h.59A12,12,0,0,1,64.57,57.21Z"/>
      <path class="h" d="M65.82,59v.13l.66,0V59Z"/>
      <path class="h" d="M19.25,58.12v0l.59,0v0Z"/>
      <path class="h" d="M19.21,58.62a4.84,4.84,0,0,1-4,4.63,10.78,10.78,0,0,0-1.67.6,5.9,5.9,0,0,1,1.4-5.78l-.82,0a5.68,5.68,0,0,0-1.34,3.63,8.16,8.16,0,0,0,.34,3.13c1-.41,1.87-.75,2.73-1.15A9.36,9.36,0,0,0,18,62.53a5.5,5.5,0,0,0,1.85-4.15,1.49,1.49,0,0,0,0-.21l-.59,0C19.24,58.31,19.23,58.47,19.21,58.62Z"/>
      <path class="h" d="M74.4,60.08l-.47-.42-.48-.41-1.25,0c1,.86,2,1.7,3,2.56.43.37.8.83,1.19,1.24l.28.31a2.78,2.78,0,0,0,.62.49.61.61,0,0,0,.18,0,.74.74,0,0,0,.6-.22l.16-.07.37-.16.29.07a.57.57,0,0,1,.47.66l0,.39c.32.37.65.74,1,1.1A9.92,9.92,0,0,1,82.83,71c.1.58.13,1.18.19,1.77l-.18,0a4.72,4.72,0,0,1-.2-.71,10.9,10.9,0,0,0-2.7-6c-.13-.11-.28-.2-.4-.32a1,1,0,0,0-1.44-.18,1,1,0,0,1-.39.18c-.35.06-.57-.22-.62-.8l-.12-.4a4.41,4.41,0,0,0-2.91-1.8c-.24,0-.58-.21-.64-.4A7.43,7.43,0,0,0,71,59.2l-.94,0c.5.48,1,1,1.47,1.48a6,6,0,0,0-5,1.06V59.11l-.66,0V63c1.41-1.18,2.82-2.12,4.61-1.86a9.91,9.91,0,0,1,2.11.87c-1.1,1.83-2.38,2.19-5.11,1.47a2.34,2.34,0,0,0,.27.75,5,5,0,0,0,3,1.56,5.1,5.1,0,0,1,3.7,3C71.54,69.9,69,68.65,66.67,65a11.48,11.48,0,0,0,.59,4.7c.24.66.5,1.31.68,2a4.47,4.47,0,0,1-1.54,4.74,6.81,6.81,0,0,1-1.71-6.09,39.14,39.14,0,0,0,.45-5.36c-1,3.32-3.31,4.73-6.57,5a6,6,0,0,1,2-3.28c.84-.74,1.79-1.35,2.69-2a2.47,2.47,0,0,0,.35-.48c-.21-.05-.43-.18-.62-.14a4.47,4.47,0,0,1-3.46-.52c1-1.37,2.12-2.23,5.73-.38,0-1.36,0-2.71,0-4.06h-.68v3.15c-1.76-.82-3.48-1.16-5.16.34A11.71,11.71,0,0,1,62.22,59h-.59c-.63.58-1.26,1.16-1.84,1.79a8.05,8.05,0,0,0-2.07,5.12,1.58,1.58,0,0,1-.57,1,8.41,8.41,0,0,0-2.95,3.36,14.73,14.73,0,0,0-7.27-.51l-.22,0c-1.17.26-1.46.16-2-1a7.19,7.19,0,0,1-.57-2,9.43,9.43,0,0,0-1.55-4.33,3,3,0,0,1,0-3.83l-.55-.08-3.94-.08c1.1.16,2.2.39,3.33.6,0,.37,0,.62-.07.86A4,4,0,0,0,42,62.64a29.59,29.59,0,0,1,1.51,3.52c.19.53.1,1.15.28,1.68.32.91.76,1.79,1.12,2.6L43.12,72.1l.13.25,2.13.33h0L45,72.21l-.8-.34c1.46-2.29,9.4-2.31,11.08.11-.9,0-1.7,0-2.49.09a3.16,3.16,0,0,0-.65.18,2.64,2.64,0,0,0,.4.62c.49.46,1,.88,1.52,1.32h.63c-.15-.46-.31-.92-.47-1.39l2.16-.56a6.85,6.85,0,0,0-1.16-1.18c-.66-.37-.52-.8-.17-1.18a25.76,25.76,0,0,1,2.47-2.43,1.84,1.84,0,0,0,.8-1.48,14.69,14.69,0,0,1,.3-2l3,1c-1.92,1.43-3.49,3-3.73,5.62a8.6,8.6,0,0,0,6.47-2.7c-.06.72-.06,1.26-.16,1.78a7.21,7.21,0,0,0,0,4,2.38,2.38,0,0,1-.47,2.61,1.37,1.37,0,0,1-1.94.44c-.66-.35-1.3-.74-2-1.17.2.7.37,1.28.53,1.87.23.84,0,1.1-.8,1-.61-.09-1.21-.28-1.94-.45.4.82.72,1.54,1.1,2.22.27.48.11.73-.33.92l-2.38,1c.68.25,1.33.47,2,.74.86.39.89.69.12,1.21-.58.4-1.21.74-2,1.21,1,0,1.75,0,2.51,0s.79.29.66.84a3.52,3.52,0,0,1-.22.62c-.23.49-.48,1-.75,1.5l3-.86c.23,1.09.44,2.13.67,3.23.3-.47.53-.88.81-1.25s.65-.72,1.14-1.26c.56,1,1,1.82,1.51,2.65.3-.76.64-1.5.9-2.26s.6-.81,1.35-.27c.5.36,1,.75,1.44,1.13a4.07,4.07,0,0,0-.07-.79c-.11-.38-.3-.74-.42-1.11-.28-.85.07-1.33.94-1.25a15.27,15.27,0,0,1,1.6.35,3.53,3.53,0,0,0,.67,0A20.85,20.85,0,0,1,70.31,85c-.53-.6-.45-.94.23-1.34s1.22-.68,1.93-1.06l-2.11-1c-.44-.22-.61-.51-.35-1,.41-.8.77-1.62,1.16-2.44l-3.08.39c.2-1,.36-1.81.54-2.72l-1.25.56c.36-.6.66-1,.86-1.42a5.81,5.81,0,0,0-.13-4.76c-.34-.92-.59-1.88-.88-2.82l.24-.09.69.63a6.24,6.24,0,0,0,6.69,1.4c.12,0,.29-.37.24-.47-.94-1.9-2.23-3.36-4.47-3.69a8.82,8.82,0,0,1-1.4-.46,4.94,4.94,0,0,0,3.56-1.83c.49.18.91.35,1.34.5,1,.36,2.11.64,2.34,2a1.25,1.25,0,0,0,1.82.79,1.08,1.08,0,0,1,.91.12,8.56,8.56,0,0,1,2.75,5.58,3.87,3.87,0,0,0-.52-.35,15.33,15.33,0,0,0-2.31-.94c-1.5-.34-2.45.62-3.34,1.62-.4.45-.45.74.16,1.09.79.46,1.52,1,2.35,1.61-.33.21-.55.35-.77.51a8,8,0,0,0-3.23,4.73c-.18.79,0,.88.74.8l.3,0c2.13-.11,4.15-.5,5.7-2.15a1.11,1.11,0,0,1,.43-.17l.15.12c-.23.45-.47.89-.69,1.34a17.09,17.09,0,0,0-1.48,3.2c-.4,1.7.42,3.12,1.55,4.39,1,1.07,2,2.13,1.62,3.65.73-.65,1.53-1.32,2.29-2a6.13,6.13,0,0,0,1.4-1.58,6.23,6.23,0,0,0-.52-6.3c-.53-.83-1-1.7-1.52-2.55,1.47.79,2.74,1.74,4.15,2.4a8.61,8.61,0,0,0,4.78.68c-.56-4-3.34-5.59-6.92-6.42,2.67.56,4.51-1.3,6.78-2.08a4.82,4.82,0,0,0-2.35-2.16c-2.57-1.19-4.87-.36-7,1.15-.13-.66-.28-1.21-.36-1.78a9.75,9.75,0,0,0-2.91-5.85A1.46,1.46,0,0,1,80,64,1.36,1.36,0,0,0,78,63a.88.88,0,0,1-.73,0c-.55-.51-1-1.1-1.56-1.66Zm-8.77,16.3,1.11.73a1.82,1.82,0,0,1-.77,0c-.21-.1-.33-.42-.49-.64Zm1.79.92c.21.54.28,1.31.68,1.58s1.23.17,1.85.22c-.94,2.37-1,2.36,1,3.55-2,1.38-2,1.48-1.07,2.93-1.7,0-1.88.24-1.87,2.1-1.46-.75-1.46-.75-2.69,1.45-1.32-1.77-1.4-1.77-3-.29-.5-2-.5-2-2.76-1.67.64-2,.56-2.23-.94-2.49.18-.49.61-1.06.49-1.47s-.77-.77-1.12-1.08c.43-.37,1.21-.71,1.37-1.24s-.27-1.24-.45-1.87c2.11.15,2.11.15,2-2.07,1.64,1.09,3,.89,3.8-1C65.71,78,65.94,78.07,67.42,77.3ZM92,73c-2.45,1.7-5,2.68-8,1.08a1.87,1.87,0,0,0,1.2,1.61,18,18,0,0,0,2.74,1A6,6,0,0,1,92.4,81a2.8,2.8,0,0,1,.06.28c-3.23.45-6.45-1.43-8.82-5.18a6.85,6.85,0,0,0,.8,4.3c.24.41.51.8.78,1.19a6.08,6.08,0,0,1,1,4.44,3.86,3.86,0,0,1-1.8,2.89c-.39.26-.77.55-1.11.8-.85-1.13-1.71-2.25-2.55-3.38a4,4,0,0,1,0-4.84c1.48-2.28,1.58-2.62,1.53-5.26-1.58,3-4.13,4.13-7.4,4.08a7.52,7.52,0,0,1,4.45-5.25,3.88,3.88,0,0,0,.56-.23.4.4,0,0,0,.19-.32c0-.1-.2-.27-.27-.25-1.6.38-2.42-1-3.58-1.55a2.81,2.81,0,0,1,4.11-1.16,8.68,8.68,0,0,1,1.42,1c.43.34.81.75,1.21,1.13C87.31,70.75,90,70.57,92,73Z"/>
      <path class="h" d="M80.38,59.23l-.65,0,0,.16.64,0C80.39,59.33,80.39,59.28,80.38,59.23Z"/>
      <path class="h" d="M44.49,58.66l.09-.08-.82,0-.07.09Z"/>
      <path class="h" d="M69.15,89.37h0Z"/>
      <polygon class="h" points="74.86 58.52 74.86 58.52 74.93 58.51 74.86 58.52"/>
      <path class="i" d="M73.93,59.66l.81-.25.06.17c-.14.16-.27.33-.4.5l1.34,1.23-.38-1.18c0-.23.06-.53.1-.84l-2,0Z"/>
      <path class="i" d="M75.49,59l-.21.08-.42-.53-.15,0-.21.12h0l-1,.2a8.29,8.29,0,0,1,1.24-5.63,7.44,7.44,0,0,1-3.69.22c-1.2-.26-2,.77-3.1,1.3.27.24.45.44.66.59.79.6,1.61,1.15,2.37,1.77s1.57,1.31,2.34,2l2.21,0Z"/>
      <path class="i" d="M73.27,59.1l.18.15,2,0,0-.15Z"/>
      <path class="i" d="M74.5,58.67l-1,.2,1-.2Z"/>
      <path class="j" d="M13.42,75.57l-.05-.16H11.08L12,76h0Z"/>
      <path class="j" d="M11.08,75.41,12,76h0Z"/>
      <path class="h" d="M46,73.44l-.66.12-.53.61-.29.33h.6Z"/>
      <path class="h" d="M44.51,74.5l.29-.33-.29.33Z"/>
      <path class="h" d="M44.51,74.5Z"/>
      <path class="h" d="M46.42,73.21c-.07-.18-.13-.37-.2-.54h-.84c0,.2,0,.4,0,.6l1,0Z"/>
      <path class="f" d="M46,73.44l.42-.21-1,0a2.86,2.86,0,0,0-.07.28Z"/>
      <polygon class="h" points="69.18 89.41 69.15 89.37 69.14 89.38 69.18 89.41"/>
      <path class="k" d="M58.59,102c-1-1.35-2.08-2.64-2.93-4.07a16.3,16.3,0,0,1-1.95-8.39c-.05-4.2,0-8.41,0-12.62,0-.25-.06-.62-.21-.71a18.65,18.65,0,0,0-1.86-.82c.7,2.41-1.32,3.8-1.83,5.81a20.5,20.5,0,0,0-1.26-2.31,4.49,4.49,0,0,1-.82-2.68v-.81L46,76.22v17a9.5,9.5,0,0,1-2,6c-.32.42-.62.86-.92,1.29-.41.6-.8,1.21-1.19,1.82L40.77,104c-.1.16-.2.32-.31.48h0l.12.11a34.24,34.24,0,0,1,7.93-5.46c.08-2,.08-2,.66-1.93a8.78,8.78,0,0,0,1.19,5.53,6.74,6.74,0,0,1,.84,2.87,7,7,0,0,1,0,1h0l.13.13a5.13,5.13,0,0,0,.54-4.67,3.61,3.61,0,0,1-.32-1.44,1.75,1.75,0,0,1,.68-1.13,1.26,1.26,0,0,1,1.06.16,8.42,8.42,0,0,1,1.37,1.16c1.84,1.75,3.94,3.22,5.41,5.4a2.32,2.32,0,0,0-.09-2.38C59.54,103.2,59,102.6,58.59,102Z"/>
      <path class="k" d="M51.2,105.6a7,7,0,0,1,0,1h0A7,7,0,0,0,51.2,105.6Z"/>
      <path class="k" d="M41.87,102.28c.39-.61.78-1.22,1.19-1.82C42.65,101.06,42.26,101.67,41.87,102.28Z"/>
      <path class="k" d="M40.46,104.48c.11-.16.21-.32.31-.48-.1.16-.2.32-.31.48Z"/>
      <path class="l" d="M52.17,72.25a3.16,3.16,0,0,1,.65-.18c.79,0,1.59-.06,2.49-.09-1.68-2.42-9.62-2.4-11.08-.11l.8.34c.66,0,1.33-.12,2-.15.09,0,.25.17.27.28a.48.48,0,0,1-.16.36c-.22.19-.48.34-.72.51v0l-.42.21-.88,1.06c-.12.21-.24.41-.36.63l-.41.71a5,5,0,0,0,3.34-1.33.6.6,0,0,1,.5-.12c.09,0,.19.28.16.42a5.36,5.36,0,0,0,1.39,4.73,5.17,5.17,0,0,0,1.4-4.33,1.17,1.17,0,0,1,0-.37c0-.17.1-.42.21-.46a.58.58,0,0,1,.49.15,4.87,4.87,0,0,0,3.36,1.31c-.42-.63-.75-1.14-1.08-1.65-.51-.44-1-.86-1.52-1.32A2.64,2.64,0,0,1,52.17,72.25Z"/>
      <path class="k" d="M40.46,104.48l-.18.18,0,.08.25-.15-.12-.11Z"/>
      <path class="k" d="M40.46,104.48h0l-.18.18.18-.18Z"/>
      <path class="k" d="M40.46,104.48h0l.12.11-.12-.11Z"/>
      <polygon class="k" points="40.46 104.48 40.46 104.48 40.46 104.48 40.46 104.48"/>
      <path class="k" d="M51.15,106.82l.16-.07-.13-.13Z"/>
      <path class="k" d="M51.18,106.62l0,.2,0-.2Z"/>
      <path class="l" d="M78.65,63.42l-.37.16-.16.07Z"/>
      <path class="l" d="M54.83,63.92a1.5,1.5,0,0,0-.17.49,9,9,0,0,0-2.31-4.6A17.51,17.51,0,0,1,52,63.7a42.37,42.37,0,0,1-2.2,4.83c-.4-.71-.77-1.44-1.2-2.11a8.17,8.17,0,0,1-1.39-4.07c-.05-.83,0-1.67,0-2.62a6.29,6.29,0,0,1-4.53,1.66,3.83,3.83,0,0,1,1-2.74l-1.56,0,.55.08a3,3,0,0,0,0,3.83,9.43,9.43,0,0,1,1.55,4.33,7.19,7.19,0,0,0,.57,2c.49,1.13.78,1.23,2,1l.22,0a14.73,14.73,0,0,1,7.27.51A8.41,8.41,0,0,1,57.15,67a1.58,1.58,0,0,0,.57-1,8.05,8.05,0,0,1,2.07-5.12c.58-.63,1.21-1.21,1.84-1.79L59,59C57.57,60.61,56.19,62.26,54.83,63.92Z"/>
      <path class="l" d="M73.42,62.36c.06.19.4.36.64.4A4.41,4.41,0,0,1,77,64.56l.12.4c0,.57.27.86.62.8a1,1,0,0,0,.39-.18,1,1,0,0,1,1.44.18c.12.12.27.21.4.32l.48-.44c-.33-.36-.66-.73-1-1.1l0-.39a.57.57,0,0,0-.47-.66l-.29-.07-.53.23a.74.74,0,0,1-.6.22.61.61,0,0,1-.18,0,2.78,2.78,0,0,1-.62-.49l-.54-.14.26-.17c-.39-.41-.76-.87-1.19-1.24-1-.86-2-1.7-3-2.56L71,59.2A7.43,7.43,0,0,1,73.42,62.36Zm-1.09-2.88a.21.21,0,0,1,0,.06l-.07,0s0-.05,0-.06Z"/>
      <path class="l" d="M22.62,63.42c-.44.45-.78.61-1.33.17a.85.85,0,0,0-1.33.53,2.43,2.43,0,0,1-.53,1,10.53,10.53,0,0,0-2.87,7.62,1.37,1.37,0,0,0,.25-.63,10.23,10.23,0,0,1,3.05-6.36c.48-.43.91-.65,1.52-.2a.59.59,0,0,0,1-.41,2.47,2.47,0,0,1,1.94-2.08,4.36,4.36,0,0,0,2.36-1.9,21.72,21.72,0,0,1,2.9-2.85l-1.58,0A68.22,68.22,0,0,0,22.62,63.42Z"/>
      <path class="l" d="M33,58.43l2.19,0,.21-.07-2.48,0Z"/>
      <path class="l" d="M42.13,58.62l1.56,0,.07-.09-2.27,0Z"/>
      <path class="l" d="M61.63,59l.13-.12-2.71,0L59,59Z"/>
      <path class="l" d="M31.14,57a6.64,6.64,0,0,1,1.09-.63,3.23,3.23,0,0,0,.72,2l2.48,0h0a4.21,4.21,0,0,1,1.72-.46c1.41.13,2.84.35,4.32.58l2.27,0c.36-.42.76-.81,1.15-1.21a5.36,5.36,0,0,0-1,.31,2.08,2.08,0,0,1-.84.15c-1.41-.18-2.81-.4-4.21-.61-.34-.05-.68-.13-1.16-.23.89-1,.15-1.58-.28-2.33-.74-1.27-1.34-2.62-2-3.92a7.27,7.27,0,0,0-.59-.86c-.13.37-.27.74-.37,1.12a.61.61,0,0,0,.06.37q.91,2.11,1.86,4.23c.08.18.19.35.21.39-1.79-.55-3.59-1.23-5.46-1.65a14.54,14.54,0,0,0-5.69.09c2.1.07,4.24-.06,6.22,1.11a44.34,44.34,0,0,0-3.59,2.76l1.59,0C30.15,57.87,30.65,57.44,31.14,57Z"/>
      <path class="l" d="M64,56.84c1.19-1.2,2.41-1,3.69-.25.34.19.68.4,1,.61l.3.22c.62.54,1.27,1.06,1.87,1.63l1.19,0c-1.34-1.12-2.67-2.26-4-3.37-.83-.69-.87-1.16.06-1.71s1.7-.85,2.52-1.32a8,8,0,0,0,1.09-.85l-.18-.37-4.69,1.2a2.9,2.9,0,0,1-.59,0,5.68,5.68,0,0,1,0-.59,14.73,14.73,0,0,0,.31-1.84c0-.79-.44-1.1-1.29-1-.07.69-.11,1.39-.24,2.08a6.78,6.78,0,0,1-2.69,4.19c-.45.36-1.15.63-.7,1.53-1.08-.08-1.61.62-2.16,1.27-.15.17-.29.34-.43.52l2.71,0C62.5,58.21,63.25,57.54,64,56.84Z"/>
      <path class="l" d="M29.58,58.36l.07-.06-1.59,0-.06,0Z"/>
      <path class="l" d="M35.22,58.48l-2.19,0C33.5,58.83,34.21,58.83,35.22,58.48Z"/>
      <path class="l" d="M70.88,59.09a1.14,1.14,0,0,1,.11.11l1.21,0L72,59.07l-1.19,0S70.87,59.08,70.88,59.09Z"/>
      <path class="l" d="M77.52,63.87a.61.61,0,0,1-.18,0A.61.61,0,0,0,77.52,63.87Z"/>
      <path class="l" d="M78.94,63.49l-.29-.07-.37.16.37-.16Z"/>
      <path class="m" d="M47.5,58.4c.12-.18.37-.27.56-.4a4.68,4.68,0,0,1,0,.64l3.24.06a.64.64,0,0,0,0-.07c-.11-.4-.18-.68.39-.67a5.75,5.75,0,0,0,.5.75l2.86.06a7.31,7.31,0,0,0-1-.88,7.34,7.34,0,0,1-3-4.22,13.56,13.56,0,0,0,4.53,2.62,11.38,11.38,0,0,0,5.29.26c-.09-.19-.14-.33-.21-.45a5.24,5.24,0,0,0-4.36-2.52,15.29,15.29,0,0,1-3.38-.88,5.39,5.39,0,0,1-1.33-1.05c3.5-.25,6.06-1.36,7.4-3.37-3.6-1.35-6.48-.3-8.88,2.53-.23-1.4.28-2.79-.36-4.09-.69,1.32-.12,2.75-.39,4.15-2.54-3.07-6.39-4.1-8.83-2.44,2,2,4.24,3.47,7.36,3a3.08,3.08,0,0,1-2.08,1.63c-1.15.3-2.35.46-3.53.66a4.45,4.45,0,0,0-3.6,2.95,24.12,24.12,0,0,0,4.26-.15,10,10,0,0,0,5.64-3.2c0,.26-.07.36-.09.45A7.88,7.88,0,0,1,45.36,58a6,6,0,0,0-.78.63l2.75.05C47.38,58.55,47.44,58.48,47.5,58.4Z"/>
      <path class="m" d="M56.23,60.81a4.12,4.12,0,0,0-1-1.93l-2.89-.06A5.33,5.33,0,0,0,56.23,60.81Z"/>
      <path class="m" d="M47.26,58.72l.07-.09-2.75-.05-.09.08Z"/>
      <path class="m" d="M52.29,58.82l2.89.06-.11-.11-2.86-.06A.76.76,0,0,0,52.29,58.82Z"/>
      <path class="m" d="M49.79,67a22.37,22.37,0,0,0,1.28-2.24,9,9,0,0,0,.3-6l-3.28-.06A8.79,8.79,0,0,0,49.79,67Z"/>
      <path class="m" d="M47.26,58.72l-2.77-.06a4,4,0,0,0-1.25,2.16A5.47,5.47,0,0,0,47.26,58.72Z"/>
      <path class="m" d="M48.09,58.74l3.28.06,0-.1-3.24-.06s0,0,0,.07Z"/>
      <path class="n" d="M7.4,73c2.47,1.73,5.07,2.7,8.07,1.08a3.12,3.12,0,0,1-.05.32,3.62,3.62,0,0,1-2.48,1.89c-.95.32-1.93.56-2.84,1A5.62,5.62,0,0,0,7,81.38a9.34,9.34,0,0,0,8.83-5.27,7.11,7.11,0,0,1-1.56,5.48,3.64,3.64,0,0,0-.31.51,5.2,5.2,0,0,0,1.57,7.17l.72.51c.36-.55.69-1.1,1.07-1.62s.84-1.06,1.26-1.59a4.07,4.07,0,0,0,.25-4.95c-.36-.57-.75-1.13-1.06-1.72a6.58,6.58,0,0,1-.57-3.83c1.62,3.17,4.16,4.32,7.59,4.26-.51-1-.89-1.9-1.43-2.72a7.5,7.5,0,0,0-3.54-2.68c-.17-.07-.28-.26-.42-.4a2.74,2.74,0,0,1,.54-.21c.36-.06.8,0,1.09-.13.8-.44,1.54-1,2.3-1.49-1.48-1.78-2.64-2.06-4.42-1a26.41,26.41,0,0,0-2.44,1.93C12.76,70.61,9.77,70.6,7.4,73Z"/>
      <path class="o" d="M81.73,72.55a8.68,8.68,0,0,0-1.42-1,2.81,2.81,0,0,0-4.11,1.16c1.16.6,2,1.93,3.58,1.55.07,0,.26.15.27.25a.4.4,0,0,1-.19.32,3.88,3.88,0,0,1-.56.23,7.52,7.52,0,0,0-4.45,5.25c3.27,0,5.82-1.11,7.4-4.08,0,2.64,0,3-1.53,5.26a4,4,0,0,0,0,4.84c.84,1.13,1.7,2.25,2.55,3.38.34-.25.72-.54,1.11-.8a3.86,3.86,0,0,0,1.8-2.89,6.08,6.08,0,0,0-1-4.44c-.27-.39-.54-.78-.78-1.19a6.85,6.85,0,0,1-.8-4.3c2.37,3.75,5.59,5.63,8.82,5.18A2.8,2.8,0,0,0,92.4,81,6,6,0,0,0,88,76.73a18,18,0,0,1-2.74-1,1.87,1.87,0,0,1-1.2-1.61c3,1.6,5.54.62,8-1.08-2.06-2.47-4.73-2.29-9.1.64C82.54,73.3,82.16,72.89,81.73,72.55Z"/>
      <path class="m" d="M85.56,59.49l-.09-.17-5.09-.09c0,.05,0,.1,0,.16Z"/>
      <path class="m" d="M83.29,57a9.66,9.66,0,0,1-2.16-2A1.29,1.29,0,0,1,81,53.78a1.43,1.43,0,0,1,1.18-.27,10.27,10.27,0,0,1,1.76.63,6.44,6.44,0,0,0,5.63-.4,7.65,7.65,0,0,0-4.7-1.89c-1-.05-1.95-.1-2.91-.24A5.79,5.79,0,0,1,80.64,51c2.38-.65,4.7-.86,6-3-2.9-1.37-5.77-.22-7.41,2.89-3-2.33-6.16-1.15-7.61,2.12a5.73,5.73,0,0,0,4.14-1c.33-.21.56-.33.73.18a7.35,7.35,0,0,0-2.59,6,9.46,9.46,0,0,0,5-4.46,1.61,1.61,0,0,1,1,1.59c.14,1.31.18,2.63.39,3.92l5.09.09A5.74,5.74,0,0,0,83.29,57Z"/>
      <path class="m" d="M80.42,59.49a4.42,4.42,0,0,0,3.44,3.66c.7.19,1.37.45,2.11.69,0-.19.08-.41.1-.64a7.28,7.28,0,0,0-.51-3.71l-5.16-.1S80.41,59.46,80.42,59.49Z"/>
      <path class="p" d="M19.25,58.12,15,58l0,0,4.31.08Z"/>
      <path class="p" d="M13.54,63.85a10.78,10.78,0,0,1,1.67-.6,4.84,4.84,0,0,0,4-4.63c0-.15,0-.31,0-.47l-4.31-.08A5.9,5.9,0,0,0,13.54,63.85Z"/>
      <path class="p" d="M19.5,55.11a1.47,1.47,0,0,1,1-1.4,9.36,9.36,0,0,0,5,4.47A8,8,0,0,0,22.92,52a.83.83,0,0,1,.69,0,5.86,5.86,0,0,0,4.2,1c-1.56-3.27-4.6-4.43-7.62-2.11-1.79-3.16-4.55-4.26-7.39-2.9A4.11,4.11,0,0,0,15.34,50c1.06.38,2.15.65,3.48,1a6,6,0,0,1-1.39.58c-1.14.14-2.29.17-3.44.29a7.18,7.18,0,0,0-4.1,1.83,6.35,6.35,0,0,0,5.59.41,9.78,9.78,0,0,1,1.69-.61c.41-.07,1.06,0,1.26.23A1.33,1.33,0,0,1,18.3,55,12.76,12.76,0,0,1,16,57.14a6.39,6.39,0,0,0-1,.9l4.28.08C19.33,57.11,19.4,56.11,19.5,55.11Z"/>
      <path class="q" d="M65.25,59v.13h.57V59Z"/>
      <path class="q" d="M65.54,56.5c-.1.21-.29.43-.29.64,0,.6,0,1.21,0,1.81h.57V56.6Z"/>
      <path class="q" d="M65.24,63.14c-3.61-1.85-4.7-1-5.73.38A4.47,4.47,0,0,0,63,64c.19,0,.41.09.62.14a2.47,2.47,0,0,1-.35.48c-.9.68-1.85,1.29-2.69,2a6,6,0,0,0-2,3.28c3.26-.31,5.6-1.72,6.57-5a39.14,39.14,0,0,1-.45,5.36,6.81,6.81,0,0,0,1.71,6.09,4.47,4.47,0,0,0,1.54-4.74c-.18-.67-.44-1.32-.68-2a11.48,11.48,0,0,1-.59-4.7c2.31,3.69,4.87,4.94,7.74,3.81a5.1,5.1,0,0,0-3.7-3,5,5,0,0,1-3-1.56,2.34,2.34,0,0,1-.27-.75c2.73.72,4,.36,5.11-1.47a9.91,9.91,0,0,0-2.11-.87c-1.79-.26-3.2.68-4.61,1.86V59.09h-.57C65.24,60.43,65.24,61.78,65.24,63.14Z"/>
      <path class="l" d="M34.26,59.78c0-.48-.2-.54-.66-.37V63c-2.87-2.23-5.22-2.46-6.58-.69,1.24,1.83,2.95,1.89,5.09,1.15a3.5,3.5,0,0,1-.34.82,4.74,4.74,0,0,1-2.86,1.52A5.18,5.18,0,0,0,25,68.86c3.74,1,6-.83,7.83-4v.48a15.38,15.38,0,0,1-1.19,5.83,4.26,4.26,0,0,0,1.52,5.15c.37-.59.78-1.15,1.1-1.76.85-1.6.65-3.28.38-5-.23-1.53-.31-3.08-.46-4.62l.27-.1c.84,3.37,3.18,4.75,6.48,5a9.25,9.25,0,0,0-1.53-2.61,38.27,38.27,0,0,0-3.18-2.6,4,4,0,0,1-.51-.75c2.61.38,3.43.27,4.23-.51-1.79-2.21-3.76-1.15-5.69-.24C34.26,62,34.25,60.88,34.26,59.78Z"/>
      <path class="r" d="M33.63,77.56c-.49.2-1.19-.11-1.77-.19.09,1.62,0,1.66-2.4,1.68.93,2.33.93,2.33-1,3.59.49.38,1.2.68,1.44,1.19s-.09,1.17-.14,1.66c.38.15,1.05.22,1.35.59s.24,1,.34,1.58c.51-.26,1.1-.75,1.65-.14a9.73,9.73,0,0,1,1,1.62c1.11-1.71,1.32-1.73,2.93-.38.26-.57.39-1.43.86-1.68s1.31,0,2,0c-.7-1.89-.59-2.16,1-2.45-.19-.48-.63-1.06-.5-1.45s.79-.8,1.11-1.08c-.45-.38-1.21-.73-1.37-1.25s.27-1.24.41-1.73c-.59-.1-1.4,0-1.75-.35s-.2-1.17-.26-1.64a5.4,5.4,0,0,1-2.14.35c-.65-.16-1.15-.9-1.62-1.3C34.39,76.66,34.11,77.37,33.63,77.56Zm2.45,1.68c2.45.16,2.2-.11,2.37,2.24a5.52,5.52,0,0,1-.11,1.34,3.34,3.34,0,0,1-3.26,3.06,12.68,12.68,0,0,1-2.61-.1.78.78,0,0,1-.57-.51,17,17,0,0,1,0-3.27,3.21,3.21,0,0,1,3-2.69C35.37,79.26,35.8,79.25,36.08,79.24Z"/>
      <path class="r" d="M64.69,76c-.85,1.88-2.16,2.08-3.8,1,.14,2.22.14,2.22-2,2.07.18.63.62,1.35.45,1.87s-.94.87-1.37,1.24c.35.31,1,.62,1.12,1.08s-.31,1-.49,1.47c1.5.26,1.58.46.94,2.49,2.26-.31,2.26-.31,2.76,1.67,1.62-1.48,1.7-1.48,3,.29,1.23-2.2,1.23-2.2,2.69-1.45,0-1.86.17-2.07,1.87-2.1C69,84.13,69,84,71,82.65c-2-1.19-2-1.18-1-3.55-.62,0-1.38.09-1.85-.22s-.47-1-.68-1.58C65.94,78.07,65.71,78,64.69,76Zm3,5.37a6.87,6.87,0,0,1-.09,1.57,3.32,3.32,0,0,1-2.83,2.91,3,3,0,0,1-.66.11c-3.36,0-3.17.23-3.07-3.11.08-2.45,1.61-3.57,4.44-3.56C67.89,79.39,67.54,79.2,67.71,81.33Z"/>
      <path class="s" d="M62.35,58.9l-.13.12,2.35,0v-.13Z"/>
      <path class="s" d="M62.35,58.9l2.22,0V57.21A12,12,0,0,0,62.35,58.9Z"/>
      <path class="s" d="M59.41,62.56c1.68-1.5,3.4-1.16,5.16-.34V59.07l-2.35,0A11.71,11.71,0,0,0,59.41,62.56Z"/>
      <path class="s" d="M66.48,59v.14l3.57.07L69.9,59Z"/>
      <path class="s" d="M66.48,59,69.9,59a10.46,10.46,0,0,0-3.42-2.34Z"/>
      <path class="s" d="M66.48,61.72a6,6,0,0,1,5-1.06c-.49-.5-1-1-1.47-1.48l-3.57-.07Z"/>
      <path class="t" d="M30.39,58.32l1.89,0-.78-1Z"/>
      <path class="t" d="M27.61,60.73l.16.19c1.87-.88,3.54-.16,5.29.78,0-.86,0-1.53,0-2.2a1,1,0,0,0-.22-.43c-.16-.22-.33-.43-.5-.65l-2,0Z"/>
      <path class="t" d="M30.39,58.32l-.07.06,2,0,0-.07Z"/>
      <path class="u" d="M59.59,57.32a13.75,13.75,0,0,1-6.8-1.45c.87,1.12,2.14,1.83,3,2.91l2.4,0Z"/>
      <path class="u" d="M58.13,58.94l.1-.12-2.4,0,.1.11Z"/>
      <path class="u" d="M58.13,58.94l-2.2,0a4.43,4.43,0,0,1,.82,1.57Z"/>
      <path class="u" d="M26.28,59l.81-.67-.89,0Z"/>
      <path class="u" d="M27.09,58.31l.07-.05-1,0v0Z"/>
      <path class="u" d="M30.32,55.65a2.45,2.45,0,0,0,0-.27l-4.52-.48c.14,1.18.27,2.23.41,3.34l1,0Z"/>
      <path class="v" d="M82.64,72.13a4.72,4.72,0,0,0,.2.71l.18,0c-.06-.59-.09-1.19-.19-1.77a9.92,9.92,0,0,0-2.41-5.38l-.48.44A10.9,10.9,0,0,1,82.64,72.13Z"/>
      <path class="u" d="M56,61.41,53.93,61l1,1.9Z"/>
      <path class="f" d="M46.22,72.67c.07.17.13.36.2.54.24-.17.5-.32.72-.51a.48.48,0,0,0,.16-.36c0-.11-.18-.28-.27-.28-.67,0-1.34.1-2,.15l.36.46h.83Z"/>
      <path class="f" d="M45,72.21l.36.46h0Z"/>
      <path class="w" d="M33.82,76.29c-.58.91-1.13.56-1.69-.16a1,1,0,0,0,1.17,1.05C33.7,77.13,33.88,76.86,33.82,76.29Z"/>
      <path class="w" d="M66,77.12a1.82,1.82,0,0,0,.77,0l-1.11-.73-.15.1C65.64,76.7,65.76,77,66,77.12Z"/>
      <path class="c" d="M74.8,59.58l-.06-.17-.81.25.47.42C74.53,59.91,74.66,59.74,74.8,59.58Z"/>
      <path class="v" d="M76.72,63.33,76.44,63l-.26.17Z"/>
      <path class="v" d="M72.35,59.54a.21.21,0,0,0,0-.06l-.06,0s0,0,0,.06Z"/>
      <path class="v" d="M72.35,59.54l-.07,0s0-.05,0-.06,0,0,0,.06Z"/>
      <path class="x" d="M31.93,82a17,17,0,0,0,0,3.27.78.78,0,0,0,.57.51,12.68,12.68,0,0,0,2.61.1,3.34,3.34,0,0,0,3.26-3.06,5.52,5.52,0,0,0,.11-1.34c-.17-2.35.08-2.08-2.37-2.24-.28,0-.71,0-1.13.07A3.21,3.21,0,0,0,31.93,82Zm4.87-2.15.9.1a6.82,6.82,0,0,1-.07,3.39,2.45,2.45,0,0,1-1.85,1.79,9.18,9.18,0,0,1-2.22.2c-1.19,0-1.19-.06-1.24-1.22C32.15,80.88,33.59,79.52,36.8,79.85Z"/>
      <path class="x" d="M61.06,82.81c-.1,3.34-.29,3.12,3.07,3.11a3,3,0,0,0,.66-.11,3.32,3.32,0,0,0,2.83-2.91,6.87,6.87,0,0,0,.09-1.57c-.17-2.13.18-1.94-2.21-2.08C62.67,79.24,61.14,80.36,61.06,82.81Zm6-2.92a25.39,25.39,0,0,1,0,2.91,2.59,2.59,0,0,1-2.29,2.42,15.16,15.16,0,0,1-2.61,0,.64.64,0,0,1-.43-.47,11.87,11.87,0,0,1,.06-2.53,2.62,2.62,0,0,1,2.59-2.37C65.2,79.82,66.07,79.89,67,79.89Z"/>
      <path class="y" d="M33.56,85.33a9.18,9.18,0,0,0,2.22-.2,2.45,2.45,0,0,0,1.85-1.79A6.82,6.82,0,0,0,37.7,80l-.9-.1c-3.21-.33-4.65,1-4.48,4.26C32.37,85.27,32.37,85.31,33.56,85.33Z"/>
      <path class="y" d="M61.75,82.27a11.87,11.87,0,0,0-.06,2.53.64.64,0,0,0,.43.47,15.16,15.16,0,0,0,2.61,0A2.59,2.59,0,0,0,67,82.8a25.39,25.39,0,0,0,0-2.91c-1,0-1.84-.07-2.7,0A2.62,2.62,0,0,0,61.75,82.27Z"/>
    </g>
  </g>
</svg>
