<svg xmlns="http://www.w3.org/2000/svg" xmlns:xlink="http://www.w3.org/1999/xlink" viewBox="0 0 145.39 244.66">
  <defs>
    <style>
      .a {
        fill: none;
      }

      .b {
        clip-path: url(#a);
      }

      .c {
        fill: #198829;
      }
    </style>
    <clipPath id="a" transform="translate(0 0)">
      <rect class="a" width="154.73" height="250.45"/>
    </clipPath>
  </defs>
  <title>vaud</title>
  <g class="b">
    <g>
      <path class="c" d="M22.52,152a5.75,5.75,0,0,1-4.09,5.85,13.16,13.16,0,0,1-4,.49,13.73,13.73,0,0,1-4.05-.49A5.75,5.75,0,0,1,6.29,152a5.69,5.69,0,0,1,2.64-5.07,1.07,1.07,0,0,1,.6-.15.93.93,0,0,1,1,.94,1.1,1.1,0,0,1-.56.94A3.79,3.79,0,0,0,8.3,152,3.68,3.68,0,0,0,11,155.77a10.45,10.45,0,0,0,3.4.41,10.26,10.26,0,0,0,3.36-.41A3.68,3.68,0,0,0,20.5,152a3.75,3.75,0,0,0-1.62-3.34,1.11,1.11,0,0,1-.55-.94.93.93,0,0,1,.94-.94,1.11,1.11,0,0,1,.61.15A5.7,5.7,0,0,1,22.52,152" transform="translate(0 0)"/>
      <path class="c" d="M15,139c0,2.89.84,4.13,2.8,4.13,2.23,0,2.69-2,2.69-3.59,0-2.59-1.23-4.2-3.2-4.2H15.06m7.46,4.48c0,3.27-1.84,5.39-4.68,5.39-3,0-4.71-2.12-4.71-6v-3.9H12c-2.67,0-3.76,1.09-3.76,3.78a7.06,7.06,0,0,0,.94,3.39,1.36,1.36,0,0,1,.21.7.94.94,0,0,1-1,1,1.14,1.14,0,0,1-.84-.42,8.12,8.12,0,0,1-1.32-4.74c0-3.89,1.78-5.7,5.61-5.7h6.16a2.81,2.81,0,0,0,1.55-.31l1.15-.6a1.36,1.36,0,0,1,.56-.15,1,1,0,0,1,1,1.07,1.09,1.09,0,0,1-.62,1l-1.06.64a6.1,6.1,0,0,1,1.88,4.86" transform="translate(0 0)"/>
      <path class="c" d="M22.32,118.64a1,1,0,0,1-1.1,1H12.7c-3,0-4.4,1.25-4.4,3.81a3.85,3.85,0,0,0,4.08,4h8.84a1,1,0,1,1,0,2.08H7.59a1,1,0,1,1,0-2.08h.54a5.28,5.28,0,0,1-1.84-4.36c0-3.45,2.24-5.51,6-5.51h8.94a1,1,0,0,1,1.1,1" transform="translate(0 0)"/>
      <path class="c" d="M22.29,108.93v.42c0,2.93-1.19,4.07-4.26,4.07H8.51v1.26a.95.95,0,1,1-1.89,0v-1.24l-3.91,0a1,1,0,1,1,0-2.08H6.59l0-2.44a.95.95,0,1,1,1.89,0v2.43H18c1.83,0,2.31-.49,2.31-2.41a1,1,0,1,1,2,0" transform="translate(0 0)"/>
      <path class="c" d="M8.3,100.18A3.85,3.85,0,0,0,11,104a10.29,10.29,0,0,0,3.37.41,10.38,10.38,0,0,0,3.39-.41,3.84,3.84,0,0,0,2.72-3.86,3.8,3.8,0,0,0-2.72-3.88,10.11,10.11,0,0,0-3.39-.41A10.1,10.1,0,0,0,11,96.3a3.81,3.81,0,0,0-2.72,3.88m14.22,0A5.78,5.78,0,0,1,18.43,106a12.73,12.73,0,0,1-4,.53,13,13,0,0,1-4-.52,6.26,6.26,0,0,1,0-11.74,12.78,12.78,0,0,1,4-.52,12.79,12.79,0,0,1,4,.52,5.81,5.81,0,0,1,4.09,5.88" transform="translate(0 0)"/>
      <path class="c" d="M22.32,80a1,1,0,0,1-1.1,1H12.7c-3,0-4.4,1.25-4.4,3.81a3.86,3.86,0,0,0,4.08,4h8.84a1,1,0,1,1,0,2.08H7.59a1,1,0,1,1,0-2.08h.54a5.28,5.28,0,0,1-1.84-4.36c0-3.45,2.24-5.51,6-5.51h8.94a1,1,0,0,1,1.1,1" transform="translate(0 0)"/>
      <path class="c" d="M8.3,64.31A3.67,3.67,0,0,0,10.93,68a10.82,10.82,0,0,0,3.46.41A10.66,10.66,0,0,0,17.88,68,4,4,0,0,0,18,60.55a13.48,13.48,0,0,0-3.58-.37,13.41,13.41,0,0,0-3.56.37A3.64,3.64,0,0,0,8.3,64.31m14.22.29A5.37,5.37,0,0,1,18.63,70a13.72,13.72,0,0,1-4.24.55A13.56,13.56,0,0,1,10.18,70,5.36,5.36,0,0,1,6.29,64.6a5.06,5.06,0,0,1,1.86-4.42h-7a1,1,0,1,1,0-2.08H21.22a1,1,0,1,1,0,2.08h-.57a5,5,0,0,1,1.87,4.42" transform="translate(0 0)"/>
      <path class="c" d="M8.24,48.92A3.8,3.8,0,0,0,11,52.81a6.89,6.89,0,0,0,2.12.28V44.74A6.4,6.4,0,0,0,11,45a3.83,3.83,0,0,0-2.75,3.92m14.28-.19c0,3-1.43,5.1-4.12,6a12.17,12.17,0,0,1-4,.49,12.51,12.51,0,0,1-4-.49,5.73,5.73,0,0,1-4.08-5.79,5.76,5.76,0,0,1,4.08-5.82,11.71,11.71,0,0,1,3.7-.49.94.94,0,0,1,1,1v9.48a7,7,0,0,0,2.61-.29,4,4,0,0,0,2.85-4.14,5.12,5.12,0,0,0-1.67-4,1.12,1.12,0,0,1-.37-.76.91.91,0,0,1,.91-1,1,1,0,0,1,.68.24,6.87,6.87,0,0,1,2.47,5.56" transform="translate(0 0)"/>
      <path class="c" d="M71.37,143.18,33.69,157.67a4.14,4.14,0,0,1-1.37.27,2.33,2.33,0,0,1-2.39-2.47,2.49,2.49,0,0,1,1.84-2.39l34.46-13.2v-.09L31.77,126.87a2.48,2.48,0,0,1-1.84-2.39A2.33,2.33,0,0,1,32.32,122a4.14,4.14,0,0,1,1.37.27l37.68,14.49c2.29.82,3,1.65,3,3.21s-.73,2.38-3,3.21" transform="translate(0 0)"/>
      <path class="c" d="M60.55,91.43H54a.49.49,0,0,0-.55.55v10.45c0,8.71,2.66,12.37,8.53,12.37,5.41,0,8.25-3.75,8.25-10.81,0-7.52-3.67-12.56-9.72-12.56M72,83.64a2.36,2.36,0,0,1,2.38,2.57,2.61,2.61,0,0,1-1.56,2.38l-3.48,2.1v.19c3.58,3.21,5.59,7.06,5.59,13.93,0,8.44-4.58,14.94-12.92,14.94-8.62,0-13-6-13-16.59V92a.48.48,0,0,0-.55-.55H45.33c-7.24,0-11.27,2.75-11.27,11.36a20.66,20.66,0,0,0,2.75,10,3.29,3.29,0,0,1,.55,1.74,2.17,2.17,0,0,1-2.3,2.29,2.7,2.7,0,0,1-2-1c-2-2.66-3.67-7.33-3.67-13.29,0-10.82,4.86-15.86,15.59-15.86H62.66a8.75,8.75,0,0,0,4.67-.91L70.63,84A3.48,3.48,0,0,1,72,83.64" transform="translate(0 0)"/>
      <path class="c" d="M71.73,47.71h-3v.09c3.94,2.47,6.23,6.6,6.23,12.74,0,9.63-6,15.13-16.68,15.13H32.59a2.48,2.48,0,1,1,0-5H57.07c8.71,0,13.11-3.67,13.11-11.28,0-6.6-4.68-11.73-12.2-11.73H32.59a2.48,2.48,0,1,1,0-5H71.73a2.48,2.48,0,1,1,0,5" transform="translate(0 0)"/>
      <path class="c" d="M62.57,6.1A38.75,38.75,0,0,0,52.12,5,38.41,38.41,0,0,0,41.76,6.1c-5.14,1.74-7.61,5.78-7.61,11.28S37.08,26.91,42,28.56a31.62,31.62,0,0,0,10.09,1.19c4.4,0,7.33-.27,10.17-1.19,4.95-1.65,7.89-5.59,7.89-11.18S67.7,7.84,62.57,6.1M71.74,5H68.53v.09c3.75,2.11,6.41,6,6.41,13.11,0,7.43-3.94,12.74-10.81,15a38.25,38.25,0,0,1-12,1.55A38,38,0,0,1,40.2,33.24c-6.88-2.3-10.82-7.61-10.82-15,0-7.15,2.66-11,6.42-13.11V5H14a2.37,2.37,0,0,1-2.66-2.47A2.37,2.37,0,0,1,14,.05H71.74a2.36,2.36,0,0,1,2.65,2.48A2.36,2.36,0,0,1,71.74,5" transform="translate(0 0)"/>
      <path class="c" d="M72.53,174.05c-.14,6.11-.51,11.7-1.11,16.6A65.05,65.05,0,0,1,70,198.21H11.69a63,63,0,0,1-1.41-7.56,165,165,0,0,1-1.18-16.6c-.07-2.94-.06-5.28,0-6.57H72.55c0,1.29,0,3.63,0,6.57m-4.59,30.89-3.25-4.48H69.4c-.43,1.5-.92,3-1.46,4.48m-40.17-4.48L51,232.37c-.74.84-1.5,1.68-2.29,2.53l-25-34.44m10,0,20.48,28.18c-.71.88-1.45,1.76-2.21,2.64L29.51,200.46m10,0,17.63,24.27c-.68.92-1.38,1.85-2.11,2.77l-19.65-27m10,0L60,220.61c-.64,1-1.3,1.95-2,2.92L41.24,200.46m10,0,11.46,15.78c-.59,1-1.22,2.07-1.87,3.1L47.1,200.46m10,0,8.07,11.1q-.81,1.68-1.71,3.33L53,200.46m10,0,4.4,6c-.47,1.21-1,2.41-1.51,3.6l-7-9.65M45.34,238.39,17.78,200.46h4.13l25.77,35.48-.56.6c-.65.66-1.24,1.28-1.78,1.85M42.72,241a10.31,10.31,0,0,1-.8.71L12.54,201.31c-.09-.28-.18-.56-.26-.85H16l28.31,39c-.6.61-1.15,1.17-1.63,1.62m-6.87-3.15-1.28-1.34A101.85,101.85,0,0,1,18.27,215,71.35,71.35,0,0,1,14,205.75L40.57,242.3A7.42,7.42,0,0,1,38.92,241c-.85-.78-1.88-1.88-3.07-3.14m38.93-71.56a1.12,1.12,0,0,0-1.12-1.1H8a1.12,1.12,0,0,0-1.12,1.1s-.09,3.19,0,7.77a164.46,164.46,0,0,0,1.2,16.83,65.69,65.69,0,0,0,1.33,7.28h0l.36,1.41h0a72.62,72.62,0,0,0,6.57,16.47,104.25,104.25,0,0,0,16.66,22l1.26,1.33c1.22,1.29,2.28,2.4,3.17,3.24,1.41,1.32,2.42,1.9,3.39,2h.15c1-.06,1.94-.64,3.35-2,.75-.7,1.61-1.6,2.6-2.64.57-.59,1.18-1.23,1.86-1.92a105.65,105.65,0,0,0,16.63-22A71.81,71.81,0,0,0,72,199.62l.37-1.41h0a69.09,69.09,0,0,0,1.34-7.28c.61-5,1-10.64,1.13-16.83.09-4.59,0-7.74,0-7.77" transform="translate(0 0)"/>
      <path class="c" d="M20.76,172.58a.45.45,0,0,1,.45-.5.46.46,0,0,1,.47.5v5.65a.05.05,0,0,0,.06.06h3a.43.43,0,1,1,0,.86H21.2a.42.42,0,0,1-.44-.46" transform="translate(0 0)"/>
      <path class="c" d="M26.93,172.58a.46.46,0,1,1,.91,0v6.12a.46.46,0,1,1-.91,0" transform="translate(0 0)"/>
      <path class="c" d="M31.17,178.31h1.64c.84,0,1.29-.45,1.29-1.15A1.13,1.13,0,0,0,32.81,176H31.17a.05.05,0,0,0-.06.06v2.19a.05.05,0,0,0,.06.06m1.59-3.14a1.11,1.11,0,1,0,0-2.2H31.17a.05.05,0,0,0-.06.06v2.08a.05.05,0,0,0,.06.06m-1-2.62a.39.39,0,0,1,.42-.41h2.17c1.41,0,2.12.72,2.12,1.83a1.49,1.49,0,0,1-.95,1.54v0A1.61,1.61,0,0,1,35,177.15c0,1.32-.84,2-2.27,2H30.61a.39.39,0,0,1-.42-.41" transform="translate(0 0)"/>
      <path class="c" d="M37,172.55a.39.39,0,0,1,.41-.42h3.61a.43.43,0,0,1,.46.43.42.42,0,0,1-.46.43H38a.05.05,0,0,0-.06.06v2.07a.05.05,0,0,0,.06.06h2.54a.43.43,0,1,1,0,.85H38s-.06,0-.06.07v2.13a.05.05,0,0,0,.06.06h3a.43.43,0,1,1,0,.86H37.45a.38.38,0,0,1-.41-.41" transform="translate(0 0)"/>
      <path class="c" d="M47.39,174.16a1.14,1.14,0,0,0-1.3-1.17H44.45s-.07,0-.07.06v2.21s0,.06.07.06h1.64c.81,0,1.3-.43,1.3-1.16m-3.92,4.55v-6.16a.38.38,0,0,1,.41-.41h2.2a2,2,0,0,1,2.21,2A1.86,1.86,0,0,1,47,176.05l1.26,2.47a.54.54,0,0,1,.06.25.42.42,0,0,1-.44.43.48.48,0,0,1-.44-.29L46,176.18H44.45s-.07,0-.07.06v2.47a.46.46,0,1,1-.91,0" transform="translate(0 0)"/>
      <path class="c" d="M54.44,172.13a.42.42,0,0,1,.45.44.41.41,0,0,1-.45.42H52.82a.05.05,0,0,0-.06.06v5.66a.46.46,0,1,1-.92,0v-5.66a.05.05,0,0,0-.06-.06H50.16a.41.41,0,0,1-.45-.42.42.42,0,0,1,.45-.44" transform="translate(0 0)"/>
      <path class="c" d="M59.15,170a.37.37,0,0,1,.28-.14.34.34,0,0,1,.35.35.4.4,0,0,1-.1.26l-.71.79a.42.42,0,0,1-.31.15.33.33,0,0,1-.33-.33.45.45,0,0,1,.11-.28m-1.89,1.78a.39.39,0,0,1,.42-.41h3.61a.43.43,0,1,1,0,.85h-3a.05.05,0,0,0-.06.06v2.07a.05.05,0,0,0,.06.06h2.54a.43.43,0,1,1,0,.85H57.53s-.06,0-.06.07v2.13a.05.05,0,0,0,.06.06h3a.43.43,0,1,1,0,.86H57a.39.39,0,0,1-.42-.41" transform="translate(0 0)"/>
      <path class="c" d="M37,181.44a.26.26,0,0,1,.28-.28h2.52a.31.31,0,0,1,.31.31.32.32,0,0,1-.31.33H37.76s0,0,0,0v1.22s0,0,0,0h1.73a.31.31,0,0,1,.31.32.31.31,0,0,1-.31.32H37.76s0,0,0,0v1.27s0,0,0,0h2.08a.32.32,0,0,1,0,.64H37.32a.27.27,0,0,1-.28-.28" transform="translate(0 0)"/>
      <path class="c" d="M44.5,181.16a.33.33,0,0,1,.34.32.34.34,0,0,1-.34.32H43.4s0,0,0,0v3.56a.34.34,0,1,1-.68,0v-3.56s0,0,0,0H41.53a.33.33,0,0,1-.33-.32.32.32,0,0,1,.33-.32" transform="translate(0 0)"/>
      <path class="c" d="M28.31,189.8a1.2,1.2,0,0,0-1.37-1.23H25.37a.05.05,0,0,0-.06.06V191a.05.05,0,0,0,.06.06h1.57a1.21,1.21,0,0,0,1.37-1.24m-3.92-1.68a.38.38,0,0,1,.41-.41H27a2.1,2.1,0,1,1,0,4.19h-1.6a.05.05,0,0,0-.06.06v2.32a.45.45,0,0,1-.46.5.45.45,0,0,1-.46-.5" transform="translate(0 0)"/>
      <path class="c" d="M33.85,192.25l-1.12-3.19h0l-1.13,3.19M30,194.15l2.15-6c.12-.34.29-.52.6-.52a.64.64,0,0,1,.62.52l2.12,6a.46.46,0,0,1,0,.2.42.42,0,0,1-.44.43.46.46,0,0,1-.44-.33l-.48-1.35H31.27l-.48,1.35a.45.45,0,0,1-.44.33.41.41,0,0,1-.43-.43.65.65,0,0,1,0-.2" transform="translate(0 0)"/>
      <path class="c" d="M40.56,187.71a.43.43,0,1,1,0,.86H38.94a.05.05,0,0,0-.06.06v5.65a.46.46,0,1,1-.92,0v-5.65a.05.05,0,0,0-.06-.06H36.28a.43.43,0,1,1,0-.86" transform="translate(0 0)"/>
      <path class="c" d="M46.59,189.73c0-.73-.48-1.16-1.3-1.16H43.65a.05.05,0,0,0-.06.06v2.21a.05.05,0,0,0,.06.06h1.64a1.14,1.14,0,0,0,1.3-1.17m-3.92,4.55v-6.16a.39.39,0,0,1,.42-.41h2.19a2,2,0,0,1,2.22,2,1.87,1.87,0,0,1-1.33,1.89l1.26,2.48a.5.5,0,0,1,.06.24.43.43,0,0,1-.44.44.52.52,0,0,1-.45-.29l-1.38-2.74H43.65s-.06,0-.06.07v2.46a.46.46,0,1,1-.92,0" transform="translate(0 0)"/>
      <path class="c" d="M49.65,188.15a.45.45,0,0,1,.47-.49.44.44,0,0,1,.45.49v6.13a.44.44,0,0,1-.45.49.45.45,0,0,1-.47-.49" transform="translate(0 0)"/>
      <path class="c" d="M52.92,188.12a.39.39,0,0,1,.42-.41H57a.43.43,0,1,1,0,.86H53.9a.05.05,0,0,0-.06.06v2.06a.05.05,0,0,0,.06.06h2.54a.43.43,0,1,1,0,.86H53.9a.05.05,0,0,0-.06.06v2.14a.05.05,0,0,0,.06.06H57a.43.43,0,1,1,0,.85H53.34a.39.39,0,0,1-.42-.41" transform="translate(0 0)"/>
      <path class="c" d="M144.27,244.65a1.14,1.14,0,0,1-1.13-1.13V1.12a1.13,1.13,0,0,1,2.25,0v242.4a1.13,1.13,0,0,1-1.12,1.13" transform="translate(0 0)"/>
    </g>
  </g>
</svg>
