<svg xmlns="http://www.w3.org/2000/svg" viewBox="0 0 96 114.95">
  <defs>
    <style>
      .a {
        fill: #020302;
      }

      .b {
        fill: #404040;
      }

      .c {
        fill: #fefefe;
      }

      .d {
        fill: #0d6d17;
      }

      .e {
        fill: #030301;
      }

      .f {
        fill: #f0f01b;
      }
    </style>
  </defs>
  <title>Asset 3</title>
  <g>
    <path class="a" d="M0,65.18V0H96V65.45a.52.52,0,0,0-.06.16,29.25,29.25,0,0,1-.84,5.19,57.44,57.44,0,0,1-7.23,16.52A76.42,76.42,0,0,1,75,102.81a52.3,52.3,0,0,1-12.7,8.76,32.72,32.72,0,0,1-11.45,3.26c-.3,0-.6.08-.9.12h-.54a1.53,1.53,0,0,0-.36-.07L47.7,115H47a.51.51,0,0,0-.17-.07,29.79,29.79,0,0,1-7.92-1.64,44.83,44.83,0,0,1-12-6.57A77.48,77.48,0,0,1,15.55,95.93a64.23,64.23,0,0,1-7.12-9.61,78.08,78.08,0,0,1-6-11.73A36,36,0,0,1,.16,66.38C.11,66,.05,65.58,0,65.18Zm95-64H1.22V34.19H95Zm-93.92,34V49.58c0,.06,0,.12,0,.17s.09.22.18.26c1.17.55,2.33,1.09,3.51,1.61A6.09,6.09,0,0,0,8,52.28a24.94,24.94,0,0,0,3.44-.69c1.86-.53,3.68-1.18,5.52-1.75a14.53,14.53,0,0,1,4.48-.72,13.53,13.53,0,0,1,3.51.5c1.75.49,3.49,1,5.24,1.51a18.8,18.8,0,0,0,3.87.76,10.54,10.54,0,0,0,3.62-.37c1.69-.46,3.37-1,5-1.45a13.22,13.22,0,0,1,5.56-.43,37.65,37.65,0,0,1,5.46,1.28A48,48,0,0,0,62.12,53a9.25,9.25,0,0,0,2.78,0,15.35,15.35,0,0,0,3.22-1.05c1.4-.59,2.79-1.21,4.22-1.73a8.18,8.18,0,0,1,4-.42,23.44,23.44,0,0,1,4.11,1.07c1.67.56,3.35,1.11,5,1.6a6.33,6.33,0,0,0,2.53.21,9.27,9.27,0,0,0,3-1c1.18-.59,2.33-1.2,3.52-1.77a.51.51,0,0,0,.36-.56c0-4.58,0-9.16,0-13.74v-.4ZM94.89,64.68c-.17,0-.28.07-.38.11-1,.39-2,.81-2.93,1.19a10.26,10.26,0,0,1-3,.79,11.54,11.54,0,0,1-3.75-.37c-1.76-.46-3.5-1-5.26-1.44a28.31,28.31,0,0,0-3.65-.7,12,12,0,0,0-5.16.76c-1.59.54-3.16,1.12-4.74,1.66a15.14,15.14,0,0,1-4.25.9,11.67,11.67,0,0,1-3.94-.5c-1.74-.52-3.46-1.13-5.21-1.63a17.16,17.16,0,0,0-3-.59,14.45,14.45,0,0,0-4.93.55c-2.27.58-4.53,1.19-6.8,1.72a10.91,10.91,0,0,1-4.37.15,44.26,44.26,0,0,1-4.41-1.07c-1.78-.52-3.53-1.14-5.3-1.66a12.4,12.4,0,0,0-4.61-.49,21.37,21.37,0,0,0-4.53,1,39,39,0,0,1-6,1.6,6.84,6.84,0,0,1-3.42-.22c-1.06-.4-2.11-.86-3.16-1.3l-.95-.42a4.25,4.25,0,0,0,0,.62c.19,1.13.32,2.26.58,3.37a45.45,45.45,0,0,0,3.76,10,.9.9,0,0,0,.35.32c.49.27,1,.52,1.48.77a13.65,13.65,0,0,0,2,.94,6.17,6.17,0,0,0,3.19-.1c1.64-.33,3.25-.77,4.87-1.18a22.65,22.65,0,0,1,4.55-.76,15.6,15.6,0,0,1,5.33.83c1.51.46,3,1,4.55,1.38a16,16,0,0,0,3.36.54A9.82,9.82,0,0,0,38,81.12c1.53-.38,3-.89,4.53-1.34a13,13,0,0,1,5.08-.61,31.06,31.06,0,0,1,5.32,1.12c1.9.53,3.8,1.07,5.72,1.51a12.26,12.26,0,0,0,2.9.29,9.76,9.76,0,0,0,2.52-.35c2-.57,4.09-1.2,6.12-1.83a11.93,11.93,0,0,1,6.62-.22c1.59.42,3.17.87,4.75,1.31a17.26,17.26,0,0,0,5.71.88,4.94,4.94,0,0,0,2.5-.68,1.52,1.52,0,0,0,.52-.52c.39-.78.75-1.58,1.11-2.39A47.66,47.66,0,0,0,93.8,71.5a34.67,34.67,0,0,0,1-5.15C94.85,65.82,94.85,65.28,94.89,64.68Zm-.06-13.84-.5.23c-1.06.55-2.12,1.11-3.2,1.63a7.63,7.63,0,0,1-4.65.93,25,25,0,0,1-3.11-.71c-1.73-.53-3.42-1.16-5.14-1.71a9.09,9.09,0,0,0-6.72.34L68.16,53a11.32,11.32,0,0,1-6.26,1,38.14,38.14,0,0,1-5.29-1.18,73.66,73.66,0,0,0-7.34-2,11.93,11.93,0,0,0-5.15,0c-1.4.35-2.78.75-4.16,1.16a20,20,0,0,1-4.65,1,15.55,15.55,0,0,1-4.93-.69c-1.85-.52-3.69-1.1-5.56-1.6a12.24,12.24,0,0,0-5.11-.36,27,27,0,0,0-4.43,1.16,48.06,48.06,0,0,1-5.64,1.68,7.9,7.9,0,0,1-4.92-.42l-2.13-.95c-.5-.22-1-.46-1.52-.7V63.63c1.2.53,2.39,1.09,3.6,1.58a8.76,8.76,0,0,0,2.08.56,9.1,9.1,0,0,0,3.58-.44c1.73-.47,3.44-1,5.16-1.53a14.55,14.55,0,0,1,8.59-.21c1.73.51,3.45,1.08,5.17,1.63a25,25,0,0,0,4.42,1.09,14.24,14.24,0,0,0,5.44-.43c1.94-.49,3.86-1,5.79-1.53a14,14,0,0,1,7.92.11c1.47.46,2.94.92,4.4,1.42a12.11,12.11,0,0,0,8.31-.07l4.17-1.48a17.41,17.41,0,0,1,5-1.09,15.89,15.89,0,0,1,4.8.64c1.84.5,3.67,1,5.51,1.53a9.37,9.37,0,0,0,6.59-.47c1-.45,2-.82,3-1.2a.42.42,0,0,0,.33-.47q0-6,0-12ZM6.5,80.49l0,.06c0,.09.07.18.12.27.81,1.52,1.59,3.07,2.46,4.56a53,53,0,0,0,6.56,9.12,1.9,1.9,0,0,0,2,.65c.84-.18,1.69-.36,2.53-.58a14.39,14.39,0,0,1,6.39-.36,39.58,39.58,0,0,1,4,1,16,16,0,0,0,9.22.22c1.87-.54,3.75-1.08,5.64-1.56a12.15,12.15,0,0,1,6.89.15c1.37.45,2.74.9,4.1,1.38a11.84,11.84,0,0,0,7.32.42c1.65-.46,3.3-1,4.95-1.43a22.9,22.9,0,0,1,4.26-.9,14.39,14.39,0,0,1,5.64.7,15.28,15.28,0,0,0,1.78.4,1.37,1.37,0,0,0,1.52-.6c.81-1.16,1.71-2.27,2.55-3.42a63.47,63.47,0,0,0,4.81-7.34l.37-.76a9.46,9.46,0,0,1-1,.28,12.44,12.44,0,0,1-5.19-.24c-1.93-.49-3.85-1-5.77-1.6a12.14,12.14,0,0,0-7.4,0c-1.53.51-3.08,1-4.63,1.44a14.38,14.38,0,0,1-4.32.72,23.48,23.48,0,0,1-5.76-1c-2.12-.59-4.24-1.21-6.38-1.71a10.69,10.69,0,0,0-5.5.1c-1.26.37-2.52.73-3.75,1.15a13.31,13.31,0,0,1-8.57.21c-1.61-.49-3.21-1-4.83-1.48a13.63,13.63,0,0,0-4.25-.67,20.92,20.92,0,0,0-4.85.8,39.09,39.09,0,0,1-6.14,1.34,5.71,5.71,0,0,1-3.77-.77C7.15,80.86,6.82,80.68,6.5,80.49ZM17.28,96.22c.42.47.79.92,1.19,1.32,1.44,1.44,2.87,2.89,4.34,4.29a52.83,52.83,0,0,0,5.69,4.64,42.21,42.21,0,0,0,11.76,6.06A27,27,0,0,0,47,113.79a26.45,26.45,0,0,0,5-.16,31,31,0,0,0,4.86-1.06,38.81,38.81,0,0,0,8.37-3.75,52.09,52.09,0,0,0,8.31-6.08c1.22-1.08,2.39-2.23,3.53-3.38s2-2.08,2.91-3.12c.18-.2.34-.42.51-.62-.73-.18-1.42-.33-2.09-.52a16.38,16.38,0,0,0-3.45-.7,13.75,13.75,0,0,0-4.47.5c-1.78.49-3.54,1-5.3,1.54a17.38,17.38,0,0,1-4.28.74A11,11,0,0,1,57,96.57c-1.62-.51-3.22-1.07-4.83-1.6a11.11,11.11,0,0,0-6.23-.25c-1.75.43-3.49.94-5.23,1.42a15.93,15.93,0,0,1-5.85.79,29.29,29.29,0,0,1-3.12-.45C29.57,96,27.48,95.13,25.23,95a15.78,15.78,0,0,0-2.75.08c-1.19.17-2.36.49-3.54.75Z"/>
    <path class="b" d="M47.7,115l1.37-.07a1.53,1.53,0,0,1,.36.07Z"/>
    <path class="c" d="M95,1.14V34.19H1.22v-33ZM46.77,24.29a17.21,17.21,0,0,1-5-.5,17.24,17.24,0,0,0-7.39-.32,3.7,3.7,0,0,0-3,2.29,2,2,0,0,0,.07,1.86c.3.51.69,1,1,1.44l.63-.41a3.93,3.93,0,0,0,1.36,2.14,6.62,6.62,0,0,1,2.26-1.11,14.19,14.19,0,0,1,6-.32,13.94,13.94,0,0,1,6.71,2.71c.21.15.41.32.61.48,2.11-4.24,5.65-7.07,9.31-9.73-.33-1-.69-2-1-3a14.29,14.29,0,0,1-.65-5.55,11.94,11.94,0,0,1,1.39-4.44L59,9.77,54.89,5.88c-.5-.48-1-1-1.49-1.44a.5.5,0,0,0-.55-.15l-2.92.79L46.44,6l-.06.09a2.68,2.68,0,0,1,.28.18c.66.65,1.31,1.3,2,2a.57.57,0,0,1,.18.37q0,3.33,0,6.67a.36.36,0,0,1-.07.24c-.47.29-1,.56-1.49.86V16c0-1.8,0-3.6,0-5.41a.94.94,0,0,0-.17-.51c-.42-.59-.87-1.17-1.31-1.76L43.59,5.44l-.45.19-1.48-2-8,4a.32.32,0,0,0-.2.33c0,1.27,0,2.55,0,3.83a.47.47,0,0,0,.2.36c.49.35,1,.65,1.49,1a.49.49,0,0,1,.2.36.48.48,0,0,0,.26.45c.79.5,1.57,1,2.36,1.51a.44.44,0,0,1,.23.46c0,.54,0,1.08-.06,1.63a.53.53,0,0,0,.27.54c.46.29.9.62,1.35.92.2.12.35.24.32.52,0,.07.08.19.16.24.63.45,1.27.89,1.91,1.33C43.64,22.13,45.16,23.18,46.77,24.29Z"/>
    <path class="d" d="M1.07,35.17H94.93v.4c0,4.58,0,9.16,0,13.74a.51.51,0,0,1-.36.56c-1.19.57-2.34,1.18-3.52,1.77a9.27,9.27,0,0,1-3,1,6.33,6.33,0,0,1-2.53-.21c-1.69-.49-3.37-1-5-1.6a23.44,23.44,0,0,0-4.11-1.07,8.18,8.18,0,0,0-4,.42c-1.43.52-2.82,1.14-4.22,1.73A15.35,15.35,0,0,1,64.9,53a9.25,9.25,0,0,1-2.78,0,48,48,0,0,1-8.34-2.09,37.65,37.65,0,0,0-5.46-1.28,13.22,13.22,0,0,0-5.56.43c-1.68.48-3.36,1-5,1.45a10.54,10.54,0,0,1-3.62.37,18.8,18.8,0,0,1-3.87-.76c-1.75-.5-3.49-1-5.24-1.51a13.53,13.53,0,0,0-3.51-.5,14.53,14.53,0,0,0-4.48.72c-1.84.57-3.66,1.22-5.52,1.75A24.94,24.94,0,0,1,8,52.28a6.09,6.09,0,0,1-3.26-.66C3.59,51.1,2.43,50.56,1.26,50c-.09,0-.13-.17-.18-.26s0-.11,0-.17V35.17Z"/>
    <path class="d" d="M94.89,64.68c0,.6,0,1.14-.1,1.67a34.67,34.67,0,0,1-1,5.15,47.66,47.66,0,0,1-2.42,6.79c-.36.81-.72,1.61-1.11,2.39a1.52,1.52,0,0,1-.52.52,4.94,4.94,0,0,1-2.5.68A17.26,17.26,0,0,1,81.54,81c-1.58-.44-3.16-.89-4.75-1.31a11.93,11.93,0,0,0-6.62.22c-2,.63-4.07,1.26-6.12,1.83a9.76,9.76,0,0,1-2.52.35,12.26,12.26,0,0,1-2.9-.29c-1.92-.44-3.82-1-5.72-1.51a31.06,31.06,0,0,0-5.32-1.12,13,13,0,0,0-5.08.61c-1.51.45-3,1-4.53,1.34a9.82,9.82,0,0,1-2.85.36,16,16,0,0,1-3.36-.54c-1.54-.39-3-.92-4.55-1.38a15.6,15.6,0,0,0-5.33-.83,22.65,22.65,0,0,0-4.55.76c-1.62.41-3.23.85-4.87,1.18a6.17,6.17,0,0,1-3.19.1,13.65,13.65,0,0,1-2-.94c-.5-.25-1-.5-1.48-.77a.9.9,0,0,1-.35-.32,45.45,45.45,0,0,1-3.76-10c-.26-1.11-.39-2.24-.58-3.37a4.25,4.25,0,0,1,0-.62l1,.42c1.05.44,2.1.9,3.16,1.3a6.84,6.84,0,0,0,3.42.22,39,39,0,0,0,6-1.6,21.37,21.37,0,0,1,4.53-1,12.4,12.4,0,0,1,4.61.49c1.77.52,3.52,1.14,5.3,1.66a44.26,44.26,0,0,0,4.41,1.07,10.91,10.91,0,0,0,4.37-.15c2.27-.53,4.53-1.14,6.8-1.72a14.45,14.45,0,0,1,4.93-.55,17.16,17.16,0,0,1,3,.59c1.75.5,3.47,1.11,5.21,1.63a11.67,11.67,0,0,0,3.94.5,15.14,15.14,0,0,0,4.25-.9c1.58-.54,3.15-1.12,4.74-1.66a12,12,0,0,1,5.16-.76,28.31,28.31,0,0,1,3.65.7c1.76.44,3.5,1,5.26,1.44a11.54,11.54,0,0,0,3.75.37,10.26,10.26,0,0,0,3-.79c1-.38,2-.8,2.93-1.19C94.61,64.75,94.72,64.73,94.89,64.68Z"/>
    <path class="c" d="M94.83,50.84v.39q0,6,0,12a.42.42,0,0,1-.33.47c-1,.38-2,.75-3,1.2a9.37,9.37,0,0,1-6.59.47c-1.84-.49-3.67-1-5.51-1.53a15.89,15.89,0,0,0-4.8-.64,17.41,17.41,0,0,0-5,1.09l-4.17,1.48a12.11,12.11,0,0,1-8.31.07c-1.46-.5-2.93-1-4.4-1.42a14,14,0,0,0-7.92-.11c-1.93.49-3.85,1-5.79,1.53a14.24,14.24,0,0,1-5.44.43,25,25,0,0,1-4.42-1.09c-1.72-.55-3.44-1.12-5.17-1.63a14.55,14.55,0,0,0-8.59.21c-1.72.53-3.43,1.06-5.16,1.53a9.1,9.1,0,0,1-3.58.44,8.76,8.76,0,0,1-2.08-.56c-1.21-.49-2.4-1-3.6-1.58V51c.53.24,1,.48,1.52.7l2.13.95a7.9,7.9,0,0,0,4.92.42,48.06,48.06,0,0,0,5.64-1.68,27,27,0,0,1,4.43-1.16,12.24,12.24,0,0,1,5.11.36c1.87.5,3.71,1.08,5.56,1.6a15.55,15.55,0,0,0,4.93.69,20,20,0,0,0,4.65-1c1.38-.41,2.76-.81,4.16-1.16a11.93,11.93,0,0,1,5.15,0,73.66,73.66,0,0,1,7.34,2A38.14,38.14,0,0,0,61.9,54a11.32,11.32,0,0,0,6.26-1l3.35-1.45a9.09,9.09,0,0,1,6.72-.34c1.72.55,3.41,1.18,5.14,1.71a25,25,0,0,0,3.11.71,7.63,7.63,0,0,0,4.65-.93c1.08-.52,2.14-1.08,3.2-1.63Z"/>
    <path class="c" d="M6.5,80.49c.32.19.65.37,1,.57a5.71,5.71,0,0,0,3.77.77,39.09,39.09,0,0,0,6.14-1.34,20.92,20.92,0,0,1,4.85-.8,13.63,13.63,0,0,1,4.25.67c1.62.48,3.22,1,4.83,1.48a13.31,13.31,0,0,0,8.57-.21c1.23-.42,2.49-.78,3.75-1.15a10.69,10.69,0,0,1,5.5-.1c2.14.5,4.26,1.12,6.38,1.71a23.48,23.48,0,0,0,5.76,1,14.38,14.38,0,0,0,4.32-.72c1.55-.46,3.1-.93,4.63-1.44a12.14,12.14,0,0,1,7.4,0c1.92.56,3.84,1.11,5.77,1.6a12.44,12.44,0,0,0,5.19.24,9.46,9.46,0,0,0,1-.28l-.37.76a63.47,63.47,0,0,1-4.81,7.34c-.84,1.15-1.74,2.26-2.55,3.42a1.37,1.37,0,0,1-1.52.6,15.28,15.28,0,0,1-1.78-.4,14.39,14.39,0,0,0-5.64-.7,22.9,22.9,0,0,0-4.26.9c-1.65.48-3.3,1-4.95,1.43a11.84,11.84,0,0,1-7.32-.42c-1.36-.48-2.73-.93-4.1-1.38a12.15,12.15,0,0,0-6.89-.15c-1.89.48-3.77,1-5.64,1.56a16,16,0,0,1-9.22-.22,39.58,39.58,0,0,0-4-1,14.39,14.39,0,0,0-6.39.36c-.84.22-1.69.4-2.53.58a1.9,1.9,0,0,1-2-.65A53,53,0,0,1,9,85.38c-.87-1.49-1.65-3-2.46-4.56-.05-.09-.08-.18-.12-.27Z"/>
    <path class="d" d="M17.28,96.22l1.66-.35c1.18-.26,2.35-.58,3.54-.75A15.78,15.78,0,0,1,25.23,95c2.25.09,4.34,1,6.51,1.44a29.29,29.29,0,0,0,3.12.45,15.93,15.93,0,0,0,5.85-.79c1.74-.48,3.48-1,5.23-1.42a11.11,11.11,0,0,1,6.23.25c1.61.53,3.21,1.09,4.83,1.6a11,11,0,0,0,3.82.61,17.38,17.38,0,0,0,4.28-.74c1.76-.51,3.52-1,5.3-1.54a13.75,13.75,0,0,1,4.47-.5,16.38,16.38,0,0,1,3.45.7c.67.19,1.36.34,2.09.52-.17.2-.33.42-.51.62-1,1-1.9,2.11-2.91,3.12s-2.31,2.3-3.53,3.38a52.09,52.09,0,0,1-8.31,6.08,38.81,38.81,0,0,1-8.37,3.75,31,31,0,0,1-4.86,1.06,26.45,26.45,0,0,1-5,.16,27,27,0,0,1-6.71-1.26,42.21,42.21,0,0,1-11.76-6.06,52.83,52.83,0,0,1-5.69-4.64c-1.47-1.4-2.9-2.85-4.34-4.29C18.07,97.14,17.7,96.69,17.28,96.22Z"/>
    <path class="e" d="M46.77,24.29c-1.61-1.11-3.13-2.16-4.66-3.2-.64-.44-1.28-.88-1.91-1.33-.08-.05-.17-.17-.16-.24,0-.28-.12-.4-.32-.52-.45-.3-.89-.63-1.35-.92a.53.53,0,0,1-.27-.54c0-.55,0-1.09.06-1.63a.44.44,0,0,0-.23-.46c-.79-.49-1.57-1-2.36-1.51a.48.48,0,0,1-.26-.45.49.49,0,0,0-.2-.36c-.49-.35-1-.65-1.49-1a.47.47,0,0,1-.2-.36c0-1.28,0-2.56,0-3.83a.32.32,0,0,1,.2-.33l8-3.95,1.48,2,.45-.19,2.17,2.88c.44.59.89,1.17,1.31,1.76a.94.94,0,0,1,.17.51c0,1.81,0,3.61,0,5.41v.39c.53-.3,1-.57,1.49-.86a.36.36,0,0,0,.07-.24q0-3.34,0-6.67a.57.57,0,0,0-.18-.37c-.64-.66-1.29-1.31-2-2a2.68,2.68,0,0,0-.28-.18L46.44,6l3.49-.94,2.92-.79a.5.5,0,0,1,.55.15c.49.49,1,1,1.49,1.44L59,9.77l.06.09A11.94,11.94,0,0,0,57.7,14.3a14.29,14.29,0,0,0,.65,5.55c.29,1,.65,2,1,3-3.66,2.66-7.2,5.49-9.31,9.73-.2-.16-.4-.33-.61-.48a13.94,13.94,0,0,0-6.71-2.71,14.19,14.19,0,0,0-6,.32,6.62,6.62,0,0,0-2.26,1.11,3.93,3.93,0,0,1-1.36-2.14l-.63.41c-.35-.48-.74-.93-1-1.44a2,2,0,0,1-.07-1.86,3.7,3.7,0,0,1,3-2.29,17.24,17.24,0,0,1,7.39.32A17.21,17.21,0,0,0,46.77,24.29Zm-11-11.74c0-.86,0-1.64,0-2.42A1.47,1.47,0,0,1,36,9.42a1.65,1.65,0,0,1,2-.68,1.8,1.8,0,0,1,1.2,1.7c-.09,2.24-.13,4.48-.2,6.72a.45.45,0,0,0,.23.46q3.16,2.16,6.32,4.33A.38.38,0,0,0,46,22c1.18-.6,2.36-1.18,3.55-1.76.45-.23.91-.45,1.35-.66a1.67,1.67,0,0,1,.62,1.09,4.89,4.89,0,0,1-.23,2.43,2.1,2.1,0,0,1-1.15,1.35,4.59,4.59,0,0,1-1,.38,16.22,16.22,0,0,1-7.65-.24,17.07,17.07,0,0,0-7-.27,2.86,2.86,0,0,0-2.25,1.46,1.59,1.59,0,0,0,.38,2.14c3.91-2.23,11-1.57,15.18,1.58l.15-.22c.69-1,1.32-2,2.09-2.88a32.49,32.49,0,0,1,6.13-5.46.33.33,0,0,0,.14-.46c-.32-1-.66-1.95-.92-2.95a12.94,12.94,0,0,1,.64-9c.11-.22,0-.32-.13-.44-.93-.89-1.87-1.78-2.79-2.68a.43.43,0,0,0-.49-.13l-4,1.06-.67.2c.5.5,1,.94,1.41,1.41a.71.71,0,0,1,.2.45c0,2.46,0,4.92,0,7.37a.41.41,0,0,1-.24.42l-2.86,1.64L44.5,19V10.37a5.12,5.12,0,0,0,0-1.52,5.17,5.17,0,0,0-.89-1.24c-.71-1-1.43-1.92-2.16-2.89l-7,3.46a.32.32,0,0,0-.14.22c0,1,0,2,0,3a.26.26,0,0,0,.09.19C34.79,11.91,35.26,12.2,35.79,12.55Z"/>
    <path class="f" d="M35.79,12.55c-.53-.35-1-.64-1.46-1a.26.26,0,0,1-.09-.19c0-1,0-2,0-3a.32.32,0,0,1,.14-.22l7-3.46c.73,1,1.45,1.93,2.16,2.89a5.17,5.17,0,0,1,.89,1.24,5.12,5.12,0,0,1,0,1.52V19l2-1.18,2.86-1.64a.41.41,0,0,0,.24-.42c0-2.45,0-4.91,0-7.37a.71.71,0,0,0-.2-.45C49,7.42,48.52,7,48,6.48l.67-.2,4-1.06a.43.43,0,0,1,.49.13c.92.9,1.86,1.79,2.79,2.68.13.12.24.22.13.44a12.94,12.94,0,0,0-.64,9c.26,1,.6,2,.92,2.95a.33.33,0,0,1-.14.46,32.49,32.49,0,0,0-6.13,5.46c-.77.9-1.4,1.91-2.09,2.88l-.15.22c-4.16-3.15-11.27-3.81-15.18-1.58a1.59,1.59,0,0,1-.38-2.14,2.86,2.86,0,0,1,2.25-1.46,17.07,17.07,0,0,1,7,.27,16.22,16.22,0,0,0,7.65.24,4.59,4.59,0,0,0,1-.38,2.1,2.1,0,0,0,1.15-1.35,4.89,4.89,0,0,0,.23-2.43,1.67,1.67,0,0,0-.62-1.09c-.44.21-.9.43-1.35.66C48.34,20.8,47.16,21.38,46,22a.38.38,0,0,1-.47,0q-3.15-2.18-6.32-4.33a.45.45,0,0,1-.23-.46c.07-2.24.11-4.48.2-6.72A1.8,1.8,0,0,0,38,8.74a1.65,1.65,0,0,0-2,.68,1.47,1.47,0,0,0-.21.71C35.77,10.91,35.79,11.69,35.79,12.55Z"/>
  </g>
</svg>
